<?xml version="1.0" encoding="utf-8"?>
<!-- Generator: Adobe Illustrator 18.1.1, SVG Export Plug-In . SVG Version: 6.00 Build 0)  -->
<!DOCTYPE svg PUBLIC "-//W3C//DTD SVG 1.1//EN" "http://www.w3.org/Graphics/SVG/1.1/DTD/svg11.dtd" [
	<!ENTITY ns_extend "http://ns.adobe.com/Extensibility/1.0/">
	<!ENTITY ns_ai "http://ns.adobe.com/AdobeIllustrator/10.0/">
	<!ENTITY ns_graphs "http://ns.adobe.com/Graphs/1.0/">
	<!ENTITY ns_vars "http://ns.adobe.com/Variables/1.0/">
	<!ENTITY ns_imrep "http://ns.adobe.com/ImageReplacement/1.0/">
	<!ENTITY ns_sfw "http://ns.adobe.com/SaveForWeb/1.0/">
	<!ENTITY ns_custom "http://ns.adobe.com/GenericCustomNamespace/1.0/">
	<!ENTITY ns_adobe_xpath "http://ns.adobe.com/XPath/1.0/">
]>
<svg version="1.1" id="Ebene_1" xmlns:x="&ns_extend;" xmlns:i="&ns_ai;" xmlns:graph="&ns_graphs;"
	 xmlns="http://www.w3.org/2000/svg" xmlns:xlink="http://www.w3.org/1999/xlink" x="0px" y="0px"
	 viewBox="0 0 167.3 168.7" enable-background="new 0 0 167.3 168.7" xml:space="preserve">
<metadata>
	<sfw  xmlns="&ns_sfw;">
		<slices></slices>
		<sliceSourceBounds  width="170.7" height="169.5" y="-364.7" x="188.3" bottomLeftOrigin="true"></sliceSourceBounds>
	</sfw>
</metadata>
<g opacity="0.5">
	<g>
		<g>
			<g>
				<g>
					<path fill="#FFFFFF" d="M1.9,170.2c-0.3,0.2,0.1,0.4,0.1,0.5C2.4,170.2,1.8,170.1,1.9,170.2z"/>
					<polygon fill="#FFFFFF" points="5.3,165.4 5.4,165.6 5.7,164.7 					"/>
					<path fill="#FFFFFF" d="M9.1,161.6c-0.9-0.1-1.3,1.5-2.2,2l-0.2,0l0.1,0.7C7.6,163.4,8.4,162,9.1,161.6z"/>
					<path fill="#FFFFFF" d="M12.3,160.6c-0.3-0.1,0.3-0.6-0.5,0.4c0.1,0,0.1,0,0.1,0C12,160.9,12.1,160.8,12.3,160.6z"/>
					<path fill="#FFFFFF" d="M11.9,161C11.5,161.4,12.3,160.9,11.9,161L11.9,161z"/>
					<path fill="#FFFFFF" d="M13.6,159l-0.4,0.7c0.2,0,0.7-0.4,0.6-0.2C14.3,158.9,14.1,158.9,13.6,159z"/>
					<path fill="#FFFFFF" d="M13.7,158.1l-0.2,0.4C13.6,158.5,13.7,158.4,13.7,158.1z"/>
					<path fill="#FFFFFF" d="M13.1,159.2l0.4-0.7c-0.2,0-0.3-0.2-0.2,0.3C13.2,158.6,13.3,158.9,13.1,159.2z"/>
					<path fill="#FFFFFF" d="M12.7,159.5c-0.4,0.2-0.9,0.5-0.5-0.2C11.3,160.4,11.8,160.6,12.7,159.5z"/>
					<path fill="#FFFFFF" d="M8.8,160.8l-0.5,0.3l-0.2,0.5C8.2,161.4,9,161,8.8,160.8z"/>
					<path fill="#FFFFFF" d="M17.2,155.9c-0.1-0.1-0.5-0.1-0.6-0.2l-0.3,0.5C16.5,156.1,17,155.8,17.2,155.9z"/>
					<path fill="#FFFFFF" d="M16.5,155.7l0.4-0.8C16.4,155.5,16.4,155.7,16.5,155.7z"/>
					<polygon fill="#FFFFFF" points="13.3,157.5 12.7,158.8 13.5,157.3 					"/>
					<polygon fill="#FFFFFF" points="19.4,153.7 19.3,154.3 19.6,153.3 					"/>
					<path fill="#FFFFFF" d="M20.9,152.2c0,0.5,0.7,0,0.6,0.4c0.4-0.4,0.5-1,0.7-1.4C21.9,151.5,21.5,151.9,20.9,152.2z"/>
					<path fill="#FFFFFF" d="M22.4,150.4c-0.1,0.2-0.2,0.5-0.3,0.8C22.2,150.9,22.3,150.7,22.4,150.4z"/>
					<path fill="#FFFFFF" d="M18,154c0.1,0,0.4,0.1,0.8-0.2l-0.5-0.1C18.1,153.9,18.1,153.9,18,154z"/>
					<path fill="#FFFFFF" d="M18.2,153.8L18.2,153.8c0.3-0.2,0.5-0.4,0.5-0.5C18.7,153.4,18.5,153.5,18.2,153.8z"/>
					<path fill="#FFFFFF" d="M17.9,154.1C17.9,154,18,154,17.9,154.1C17.9,154,17.9,154,17.9,154.1z"/>
					<path fill="#FFFFFF" d="M15.1,156.2c0.2-0.5,0.7-1.4-0.2-1C14.8,155.7,15.3,155.4,15.1,156.2z"/>
					<path fill="#FFFFFF" d="M17.3,154l-0.7,0.6c0.1,0.1,0.3,0.1,0.2,0.3L17.3,154z"/>
					<polygon fill="#FFFFFF" points="17.5,153.6 17.3,154 17.5,153.8 					"/>
					<path fill="#FFFFFF" d="M21,151.2c0.1-0.4,0.4-0.7,0.7-1.1c-0.4,0.3-0.8,0.6-1.2,1C20.6,151.2,20.7,151.6,21,151.2z"/>
					<path fill="#FFFFFF" d="M19.6,152.4C19.6,152.4,19.7,152.4,19.6,152.4C19.6,152.3,19.6,152.4,19.6,152.4z"/>
					<path fill="#FFFFFF" d="M25,146.8c0,0-0.1,0-0.1,0C24.9,146.8,24.9,146.9,25,146.8L25,146.8z"/>
					<path fill="#FFFFFF" d="M20.5,151.1c-0.3,0.2-0.4,0.4-0.5,0.7c0.2-0.2,0.4-0.5,0.6-0.7C20.6,151,20.6,151,20.5,151.1z"/>
					<path fill="#FFFFFF" d="M23.1,149.3c-0.2,0.1-0.4,0.2-0.6,0.3C22.8,149.6,23.2,149.4,23.1,149.3z"/>
					<path fill="#FFFFFF" d="M19.8,152.3C19.8,152.3,19.8,152.4,19.8,152.3C20,152.4,19.9,152.3,19.8,152.3z"/>
					<path fill="#FFFFFF" d="M19.8,152.3c0.1-0.2,0.1-0.4,0.2-0.5c-0.1,0.2-0.3,0.4-0.3,0.5C19.7,152.3,19.8,152.3,19.8,152.3z"/>
					<path fill="#FFFFFF" d="M24.1,143.9c0.2,0.3-0.2,1.3-1.1,1.6c-0.4,0.8,0.9,1.3,2,1.3c-0.1-0.1-0.2-0.3,0.2-1
						c-0.4,0.1-1.7,1-1.5,0.2c0.7-1,0.8-0.6,1.3-0.8c-0.7,0,0.5-1.5-0.2-1.9l-0.5,0.9C24.2,144.1,24.3,143.8,24.1,143.9z"/>
					<path fill="#FFFFFF" d="M23.7,148l-0.2,0.3c0.3-0.2,0.7-0.3,1.3-0.5c0.3-0.6,0.3-0.8,0.2-0.9l-1.3,1.2L23.7,148z"/>
					<path fill="#FFFFFF" d="M22.4,149.4c-0.1-0.5,0.4-1.2-0.3-1.2c-0.7,0.8-0.3,0.8-0.6,1.4C22.6,148.3,21.3,150.1,22.4,149.4
						c-0.2,0.3-0.4,0.5-0.6,0.7c0.3-0.2,0.5-0.3,0.8-0.5c0,0,0,0,0,0l0,0c0,0,0,0,0,0c-0.1,0-0.1,0,0,0c0,0,0,0,0,0
						C22.4,149.5,22.4,149.5,22.4,149.4c0.4-0.3,0.1,0,0.1,0.2c0,0,0,0,0,0.1c0,0,0,0,0,0l1-1.4C23.2,148.5,22.9,148.8,22.4,149.4z"
						/>
					<path fill="#FFFFFF" d="M14.8,153.9c0.1,0,0.1,0,0.1,0C15,153.8,15,153.8,14.8,153.9z"/>
					<path fill="#FFFFFF" d="M15.5,153.6c0,0.1,0,0.3-0.3,0.6c-0.3,0.2-0.1-0.1-0.3-0.2c-0.1,0.3-0.4,0.8,0.3,0.4l0-0.1
						c0.6-0.4,1.6-0.6,1.5-0.5C16.4,153.6,16.1,153.6,15.5,153.6z"/>
					<path fill="#FFFFFF" d="M18.9,151.4l0.8-1.2l-0.8,0.2l0.2,0.1C18.5,151.1,18.8,151.2,18.9,151.4z"/>
					<polygon fill="#FFFFFF" points="25.3,146.8 25.5,147.3 25.6,146.3 					"/>
					<polygon fill="#FFFFFF" points="26.6,145.5 26.8,145.8 27,145.3 					"/>
					<path fill="#FFFFFF" d="M96.2,68.3l0.2-0.4C96.3,68.1,96.3,68.2,96.2,68.3z"/>
					<path fill="#FFFFFF" d="M94.1,70.4l0.1,0.2C94.2,70.4,94.2,70.3,94.1,70.4z"/>
					<path fill="#FFFFFF" d="M58.4,113.4c0.7-0.2,1.6-0.2,1.2-0.5l-0.4-0.2C58.9,113.1,58.6,113.3,58.4,113.4z"/>
					<path fill="#FFFFFF" d="M78.3,89.6c-0.1,0-0.1,0-0.2,0c0,0.2,0,0.4,0,0.6C78.2,90,78.2,89.8,78.3,89.6z"/>
					<path fill="#FFFFFF" d="M77.3,88l0.8-0.4C77.9,87.7,77.7,87.8,77.3,88z"/>
					<path fill="#FFFFFF" d="M107.5,56.3l0-0.7C107,56.2,107.4,56.1,107.5,56.3z"/>
					<path fill="#FFFFFF" d="M39.7,132c0.5-0.3,0.8-0.5,1.1-0.7C40.2,131.5,39.6,131.6,39.7,132z"/>
					<path fill="#FFFFFF" d="M98.7,72.4c0.1-0.2,0.1-0.4,0.1-0.4C98.6,72.2,98.5,72.4,98.7,72.4z"/>
					<path fill="#FFFFFF" d="M41.9,130.2c-0.1,0-0.2,0.1-0.3,0.1c-0.2,0.3-0.4,0.6-0.8,0.9C41.3,131.1,41.7,130.8,41.9,130.2z"/>
					<path fill="#FFFFFF" d="M149.8,14.2c0,0,0.1,0,0.1-0.1C149.9,14.1,149.8,14.1,149.8,14.2z"/>
					<path fill="#FFFFFF" d="M165.1,4.9c-0.1,0.1-0.3,0.3-0.5,0.5C164.8,5.4,164.9,5.2,165.1,4.9z"/>
					<path fill="#FFFFFF" d="M31.9,140.4C31.6,140.7,31.9,140.5,31.9,140.4L31.9,140.4z"/>
					<path fill="#FFFFFF" d="M29.3,140.5c0-0.1,0-0.2,0-0.3C29.4,140.4,29.4,140.4,29.3,140.5z"/>
					<path fill="#FFFFFF" d="M42.7,125.5C42.7,125.5,42.7,125.5,42.7,125.5C42.6,125.5,42.6,125.5,42.7,125.5z"/>
					<path fill="#FFFFFF" d="M31.3,140.7c0.1-0.1,0.3-0.2,0.4-0.3C31.7,140.4,31.6,140.5,31.3,140.7z"/>
					<path fill="#FFFFFF" d="M31.5,140.7c-0.1,0.1-0.2,0.1-0.3,0.2C31.3,141,31.4,141,31.5,140.7z"/>
					<path fill="#FFFFFF" d="M32.3,140c-0.2,0.2-0.3,0.3-0.5,0.4c0.1,0,0.1,0,0.1,0C32,140.3,32.1,140.2,32.3,140z"/>
					<path fill="#FFFFFF" d="M128.1,37.7C128.1,37.7,128.1,37.7,128.1,37.7C128.3,37.3,128.2,37.4,128.1,37.7z"/>
					<path fill="#FFFFFF" d="M62.3,103C62.3,103,62.3,103,62.3,103C62.3,103,62.3,103,62.3,103L62.3,103z"/>
					<path fill="#FFFFFF" d="M63.1,101.8c0,0.8-0.3,1-0.7,1.2l1.2,0.6L63.1,101.8z"/>
					<path fill="#FFFFFF" d="M101.2,63.1l-1,0.4c0.4-1.3,1.1-1.8,0.1-1.5c0.9,1.1-2.6,2.8-1.7,3.9L98,66.2c0.1-0.1,0.1-0.2,0.2-0.3
						c-1.4,0.4,0,1.4-1.2,2.4c-0.5,0.3-0.9,0.5-0.7,0.1l-0.7,1.1c-0.3,0.2-0.4,0-0.1-0.2l-1.3,1.4l0,0c0,0.3-0.2,1-0.4,1.3
						c-0.5,0.2,0.1-0.3-0.1-0.3l-0.5,1c-0.6,0.1-0.2-0.8,0.4-1.3c-1.7-0.2-0.4,0.9-2.5,1.8l0.6-0.8c-1-0.1-1.4,0.7-2.5,1.1
						c0.4,0,2.5-0.8,1.9,0.3c-0.3,0.2-0.6,0.4-0.9,1.1c-0.3-0.3-0.7,0.2-1.2,0.7l-0.4-0.5c-0.4,0.7-0.2,0.9-0.3,1.4
						c-0.7,0.6-1.2,0.4-1.6,0.3c-1.1,1,1.3-0.2,0.1,1.2c-1,0.7-1.5,1.5-2.2,2.8c-0.8,0.5-0.2-0.4-0.5-0.3l-0.2,0.9
						c-0.1,0.1-0.2,0-0.2-0.1c-0.3,0.6,0.4,0.5-0.2,1.3c0.3,0.7-2.2,0.7-2.5,2.2c-0.3,0.1-0.2-0.4-0.4-0.5c-0.8,1.6-0.8,1.3-1.2,2.8
						l-1.1,0.6c1-0.3,0.6,0.9,0.2,1.9c0.4-0.1,0.7-0.1,0.9-0.2l-0.9,1.4c-0.2,0.1-0.3-0.2-0.3-0.6c0,0.1-0.1,0.2-0.1,0.3
						c-0.6,0.2-0.6-0.2-0.6-0.8c0.2,0,0.5-0.1,0.7-0.1c0-0.5-0.1-1.1-0.4-1.3c0,0.1-0.1,0.3-0.2,0.5c0-0.1,0-0.3-0.1-0.3
						c-0.1,0-0.1,0.2-0.2,0.5l-0.8-0.2l0.1,0.3l-1.8,1.1c-0.5,1.5-0.7,3.2-2.1,5.1c0-0.8-0.5-0.7-0.9-1.1c0.9,0,1.1-1.5,2-2.2
						c-0.5,0.4-0.6,0.1-0.6-0.1l-1.1,1.9c-0.3-0.4-0.6,0.1-1.1,0.3c1,0.4-0.7,1.6-1.1,2.4c-0.3-0.2-0.4-0.6,0.4-1.3
						c-1.4,0.3-0.2,1.9-1.5,2.3c0.2-0.2,0.3-0.3,0.3-0.4c-0.2,0.6-1.4,1.5-1.4,1.1l0.2-0.2c-1.3,1.1-3.7,3.7-3.3,4.5
						c-0.1-0.1-0.6-0.9-0.6-1.1l-0.1,4.2c-0.3-0.7-2.3-1.2-1.6-2.5c-0.4,0.2-0.8,0.5-1.2,1.3c0.3-0.1,1.2,0.2,1,0.6
						c-1.3,0.2-0.8,0.2-2.2,0.7c0.4-0.2,0.9,1,0.4,1.4c0-0.2-0.8-0.8-0.8-1l-0.4,2c0.1-0.4-0.6-0.7-1.1-0.7c0.3,0-1,1-1.3,1.4
						l0.7-0.3c-1.4,1.2-0.2,2.4-1.5,3.7c0-0.3-0.6-1.4-1.4-0.8c0.1,0.7,0.6,3.3-0.2,4.8l-0.5,0l-0.6,1.2c-0.1-1.2,0.2-4,0.5-5.4
						c-0.7,0.3-0.4-0.1-1.1,0.6c-0.5,0,0.1-0.7,0.3-1L51,113c0.6,0.4-0.8,1.8-0.4,2.1l1.4-2.4c0.6,0.4,0.3,2.4-1,3.6
						c-0.5,0.1-0.6-1.1-0.8-1.2c0,0.3-0.8,1.5-1.1,1.5l0.3-0.8c-0.9,0.5-0.5,1.7-1.7,2.1c-0.3,0.3-1.5,0.2-1.2,0.6
						c1,0.1,2.8,1.7,2.9,2.4c-0.1,0.1-2,1-2.6,1c-0.9,0-0.3-1.7-1.1-1.7c0.1,0.1,0,0.6,0,0.7c-0.4,0.2-0.3-0.5-0.9,0.2
						c0.4,0.6-1.3,1.3,0.1,0.7c-0.5,0.8-0.8,0.6-1.5,1.3c0.5,0.1,0.4,1.7-0.1,2.5c-0.1-0.2-0.4-0.2-0.5-0.2
						c-1.3,1.3-2.2,1.7-3.5,2.9c-0.2,0-0.9,0.4-0.9,0c-0.1,0.3-0.1,0.6-0.4,1c-1.1,0.3,0.8-0.9-0.3-0.8c0.2,0.3-0.6,1.4-0.9,2.1
						c0.6,0.3,1.3-1.1,1.7-1.9c0.6,0.6,0.3,2.1-0.7,3.7c-0.9,1.2-0.8,0.1-0.9,0.3c-2,1.8-0.6,2.6-2.5,3.8c-1,0.2-0.8-0.7-1.2-0.9
						c0.7-1,1.5-1,2-1.6l-0.9,0.5c0.1-0.4,0.6-1,1-1.2c-0.9,0.2-3.2,3.1-5,4.3c-0.1,0.4-0.4,1-0.1,0.9l0.4-0.5
						c0.7-0.1-0.4,1.3,0.3,0.8c-0.4,0.8-0.7,1.9-1.8,2.6l-0.6-0.3c0.1,0.1,0.8-0.3,0.9-0.7c-0.2,0.6-1.9,0.8-1.7,1.7l0.9-0.3
						c-0.4,0.8-0.7,2.1-1.6,2.7c0.8,0.1,0.1-0.2,1.2-0.3c-1.1-0.1,2-2,0.6-1.8c1.1,0,1.2-0.7,2.4-1c-0.2-0.1-0.5,0,0.2-0.6
						c0-0.1,0-0.2,0-0.3c0,0,0,0,0.1,0c0,0,0,0-0.1,0c0,0,0-0.1,0,0c-0.2,0.1-0.4,0.1-0.5,0.1c0-0.6,1-1.7,1.2-2.2
						c0.5-0.3,0,0.3,0.4,0.3l0.3-0.8c0.4,0.3,1.5-0.5,0.8,0.6l0.8-0.8c0.7-0.3,1.4-0.9,1.7-1.4c0.5-0.3,0.6-1.3,0.5-0.7l1.1-1.5
						l0.1,0.1c1.3-1.2,2.1-3.1,4.1-4c0.3-0.5,0.7-1,1.5-1.7l0.4,0.1c0.4-0.6,1.9-1.4,1.8-1.9c1.3,0.1,2.8-2.5,3.9-3.3l-0.3-0.4
						c0.7-0.6,1.2-1.4,1.9-2.3l-0.4-0.3c0.4-1,2-1.6,3.1-2.7c0,0.2-0.3,0.4-0.5,0.6c2-0.6,2.3-3.3,4-4c0.2-0.4,0.4-0.6,0.7-0.7
						c0,0,0,0.1-0.1,0.1c0,0,0.1-0.1,0.1-0.1c0.2-0.1,0.4-0.2,0.6-0.3c-0.2,0-0.4,0.1-0.5,0.2c0.2-0.2,0.5-0.6,0.8-1.1l0.5,0.2
						c0,0,0-0.1,0.1-0.1c0.5-0.2,0.1-0.4-0.3-0.5c0.1-0.2,0.2-0.5,0.2-0.7c0.8,0.3,0.7-1.1,1.7-0.9c-0.1-0.5,1.5-2,1.1-2.7
						c0.1,0.1,0.2,0,0,0.2c0.5-0.3,0.9-0.6,1.1-1.2l0.6,0.3l0.3-1.4c0.8-0.2,1.1-0.3,1,0.5c0.7-1.7,0.8-1.2,1.3-2.7l0.2,0.3
						c0.4-0.4,0.6-1.4,1-1.3c1.4-0.3,4.2-4.1,6.8-5.7c-1.2-0.4,1.4-0.6,0.8-1.3c0.3,0.1,0.7-0.1,0.6,0.4c0.9-1.3,1.9-1.3,2.1-2.6
						c0.3,0.1,0.1,0.5,0.3,0.5c0-0.1,0.2-0.5,0.4-0.5c0.2,0,0,0.3-0.1,0.6c1.1-1.1,0.6-1.9,0.1-2.5c0.8-0.3,1.1-0.6,1.1-1.4
						c0.4,0,0.9-0.1,0.3,0.6c0.4-0.4,2.6-2.1,2.2-2.6c0.2,0,0.6-0.5,0.6-0.7c0.9-0.8,1-0.9,1.8-1.8l-0.3,0.2
						c-0.2-0.9,0.6-0.8,1.2-1.6l0,0.1c2-1.2,0.5-0.9,2.5-2l-0.4-0.3c-0.6-0.9,1.8-1,2.4-2.2l-0.5,0.1c0.2-0.7,2.4-0.4,3-0.8
						c0.2,0-0.1,0.3-0.2,0.5c1.7-0.9-0.3-0.6,0.6-1.7c0.4,0.1,0.4,0.8,1.1,0.2c0.5-0.1,1.1-2.7,2.5-3.1c-0.4,0-0.8,0-0.5-0.6
						c0.6-0.8,2.6-1.2,2.6-2.4c0.1,0,0.2,0,0.3,0c0.4-0.7,1.5-2,1.5-2.6c1.7,0.7,2.7-3.9,3.8-2.8l1.6-1.7l0.1,0.2
						c1.1-1,1.2-1.6,1.3-2.2c0.3-0.2,0.2,0.1,0.3,0.2c1.7-1.3,1.8-1.5,2.6-3.3l0.5,0.2c0.1-0.5,2.7-1.7,3.8-3.6c0,0.1,0.1,0.2,0,0.3
						c1.3-2.1,5-3.1,4.3-4.9l0.8-1.4c-1.5,1.3-0.3-0.8-1.1-0.4c0.5-0.6,1.8-1.1,1.2-0.3l-0.2,0c0.4,0.9,2-1.5,2.4-1.1
						c2.8-2.9,5.9-5.2,8.5-7.9l-0.8-0.2l0.9-0.9c0.4-0.1,0.7,0.1,0.1,0.7c0.6-0.1,0.8-1.3,0.8-1.5c1.5-1.1,0.1,1.1,0.5,0.7l0.5-0.6
						l-0.2,0.1c0.2-0.6,0-0.9,0.8-1.7c0.6-0.4,0.6,0.1,0.8-0.1c0,0,0.1,0,0.3-0.3l1.2-1.1l-0.9,0.1c0.3-0.7,1.1-1.1,0.1-1
						c1.5-0.1,4.6-4.1,5.3-4.3c0.4-1,1.1-1.7,2-2.6c-0.3,0.1-0.9-0.2-0.1-0.9c0.7,1.2,1.8-1,3.1-0.9c-1,0.1,2-2.3,0.5-2.1
						c0.7-0.6,0.4,0.3,1.1,0.1c1.1-1.9,3.5-3.1,5.3-5.1c-0.1-0.2-0.6,0-0.4-0.6l1.6-0.4c0.3-0.4-0.4-1.1,0.7-1.3
						c-0.2,0-0.5,0-0.3-0.3c4.2-3.1,6.9-8,11.8-10.6c-0.7,0.3-0.4-0.1-0.1-0.5c-0.3,0.2-0.3-0.3-0.5-0.4l2-1.1
						c-0.2-0.7,1.6-1.7,1.3-2.3l-0.4,0.6c0.1-1.2-2.1-0.3-2.7-1c-0.1,1.3-2.8,1.1-3.1,3.1c-0.4,0.1,0-0.4-0.3-0.5
						c0,0.6-0.3,1-1.1,1.6l0-0.1c-1.8,2-2.9,2.5-5.3,4.5l0.5,0.2c-0.5,0.4-0.7,0.4-1,0.5c0,1,1.3-1.3,1.4-0.2
						c-1.3-0.1-3.3,3.3-4.4,2.9c-0.7,0.7,0.6,0.2-0.1,0.9l-0.4,0l0.1,0.4c-0.5,0.4-1,0.4-1.2,0.2c0.1-0.1,0.3-0.4,0.4-0.5
						c-0.8,0.4-1.6,1.8-1.9,1.9l0.8-0.6c-1.7,2.1-4.4,4.2-5.8,6.5l0.3,0c-1.1,1.7-1.3,1-2.7,2.7l0-0.1c-0.2,0.5-0.5,1-0.9,1.4
						c0.2-0.6-1.1,0.4-0.8-0.3c-1.2,1.9-0.5,1-0.9,2.6l-0.5,0c-0.1,0.6,0,0.7-0.7,1.6c0.4-0.9-0.9,0.1-0.5-0.9c-2.2,1.1-1.9,3-3.4,3
						c0,1.5,1.8-1,1.6-0.4c0.6-0.1-0.1,1.2-0.7,1.6c-0.5,0.5-1.8,0-3.1,1.3c0.1-0.1,0.1-0.2,0.2-0.3c-0.7,0.3-0.7,1.2-1.6,1.5
						c0.1,0.8-0.8,0.8-0.3,1.4l1.1-1.3c-0.5,0.8-0.5,2.1-2,3c0-0.2,0.2-0.7,0.3-1c-0.5,0.2-0.5,0.7-1,0.9c-0.5-0.7,1.3-1.6,1.6-2.8
						c-0.6,0.1-1,1.8-1.2,0.8c0.2,1.3-1.4,1.2-1.7,2.7l-0.3-0.4c-0.1,0.2-0.2,0.6-0.5,0.9l0-0.9c-0.3,1.1-1.7,1.1-2.2,2
						c1.4-1.5,0.7,0.1,1.6-0.3c-1.3,2.2-1.9,0.2-3.7,2.3c0.2-0.3,1.2-0.8,1-0.2c-0.5,0.3-1.1,0.7-1.5,0.8c-1.3,1.4,0.6,0.1,0.2,0.9
						c-0.9,0-0.5,0.8-0.9,1.5l-0.3-0.3c-1.7,1.3,0.3,1.1-1.3,2.2l0.1-1.1l-0.6,0.8l-0.2-0.5c-0.5,1.1-0.8,1.2-1.7,1.9
						c0.4,0.1,0.5,0.7-0.1,1.4c-0.7,0.3-0.1-0.6-1,0.4c0-0.4,0-0.9,0.7-1c-0.1-0.2,0-0.4-0.1-0.6c-0.7,0.3-1.3,1.2-1.6,1.5
						c0.1-0.1,0.3-0.3,0.5-0.3l-0.9,1.9c-0.3,0.1-0.3-0.2-0.2-0.5c-0.2,0.3-0.3,0.7-0.7,1.1c-0.2-0.4-0.5-0.6,0-1.4l-1,1.6
						c-0.2,0-1,0.3-0.9,0.1c-0.9,0.6-1.2,2.3-2.4,3.1c0,0.1,0,0.3-0.2,0.5c-1,0.8-2.1,1.3-2.8,2.8l-1.1,0.1c-0.7,1,1.5-0.2,0.2,1.4
						c-0.8,1.2-0.8,0-1.3,0.2c-0.2,0.7-0.6,2.1-1.9,2.6C100.7,63.6,101,63.4,101.2,63.1z M91.1,73.8c0.1-0.3,0.3-0.9,0.7-0.8
						C91.9,73.5,91.5,73.5,91.1,73.8z M76.1,90.5c0-0.3,0.3-0.4,0.7-0.6C76.7,90.1,76.5,90.3,76.1,90.5z M34.6,137.1
						C34.6,137.1,34.6,137,34.6,137.1C35.2,136.7,35,136.8,34.6,137.1z M33.6,137.9c0,0.1,0,0.2,0.1,0.2c0-0.2,0.2-0.4,0.4-0.6
						C33.9,137.4,33.8,137.5,33.6,137.9z M133.3,37l-0.3,0.1C133.4,36.6,133.3,36.8,133.3,37z"/>
					<path fill="#FFFFFF" d="M77.5,88.2c0.1,0,0.2,0,0.3,0.1C77.7,88.2,77.7,88.1,77.5,88.2z"/>
					<path fill="#FFFFFF" d="M107.5,56.4C107.5,56.4,107.5,56.4,107.5,56.4c0-0.1,0-0.1,0-0.1L107.5,56.4z"/>
					<path fill="#FFFFFF" d="M45.1,120.5c0.2-0.1,0.4-0.2,0.5-0.2C45.5,120.2,45.4,120.2,45.1,120.5z"/>
					<path fill="#FFFFFF" d="M29.2,143.4l0.5-0.7c-0.3,0.3-0.4,0.3-0.6,0.4C29.2,143.2,29.4,143.2,29.2,143.4z"/>
					<path fill="#FFFFFF" d="M21.9,146.5c0,0.1-0.2,0.2-0.2,0.3l0.2,0.1C22.2,146.6,22.4,146.2,21.9,146.5z"/>
					<path fill="#FFFFFF" d="M27.5,142.8c-0.3-0.2-0.6,0.2-1,0.7c0,0,0-0.1,0.1-0.1C26.9,144,27.2,143.4,27.5,142.8z"/>
					<path fill="#FFFFFF" d="M26.5,143.6c-0.1,0.1-0.2,0.3-0.4,0.4C26.2,144.3,26.3,143.9,26.5,143.6z"/>
					<path fill="#FFFFFF" d="M32.6,139.2c-0.3,0.1,0.2,0.5,0,0.5C32.7,140.3,33.5,138,32.6,139.2z"/>
					<polygon fill="#FFFFFF" points="26.2,142.2 26.7,142.4 26.7,141.9 					"/>
					<path fill="#FFFFFF" d="M29.8,139.2l-0.8,0.6c0.1,0,0,0.2-0.1,0.3C29.4,139.6,29.9,139.3,29.8,139.2z"/>
					<path fill="#FFFFFF" d="M29,140c-0.2,0.2-0.4,0.4-0.5,0.6C28.6,140.5,28.8,140.3,29,140z"/>
					<polygon fill="#FFFFFF" points="27,141.2 27.3,141.1 27.8,140.6 					"/>
					<path fill="#FFFFFF" d="M37,132l0.6-0.8c0-0.2-0.3-0.1-0.5,0.3C37,131.7,36.8,132,37,132z"/>
					<path fill="#FFFFFF" d="M33.9,133.3c0.3-0.1,0.4-0.1,0.6-0.1l-0.4-0.5L33.9,133.3z"/>
					<path fill="#FFFFFF" d="M35.9,131c0-0.2,0.7-1.4-0.2-0.5C35.7,130.8,35.1,131.6,35.9,131z"/>
					<polygon fill="#FFFFFF" points="47.4,120.5 47.2,120.7 48,121.4 					"/>
					<path fill="#FFFFFF" d="M55.3,109.1c-1,0.7,0.2,0.6-0.8,1.2c0,0.4,0.8-0.5,0.8-0.1C55.7,109.5,56,109.3,55.3,109.1z"/>
					<path fill="#FFFFFF" d="M55.3,110.2c-0.1,0.1-0.1,0.2-0.2,0.4C55.3,110.3,55.3,110.2,55.3,110.2z"/>
					<polygon fill="#FFFFFF" points="167.5,3.3 168.2,2.9 167.6,3 					"/>
					<path fill="#FFFFFF" d="M168.1,1.7l0.6,0.3l-0.1-0.7C168.5,1.4,168.3,1.7,168.1,1.7z"/>
					<path fill="#FFFFFF" d="M88.6,74.4l0.1,0.2c0.2,0,0.3-0.1,0.6-0.3L88.6,74.4z"/>
					<polygon fill="#FFFFFF" points="96.5,67.2 96.3,67.3 97,67.4 					"/>
					<path fill="#FFFFFF" d="M102.2,60.3c-0.3,0.2-0.5,0.6-0.8,0.9C102,60.5,102.8,60.7,102.2,60.3z"/>
				</g>
			</g>
		</g>
	</g>
</g>
<g opacity="0.5">
	<g>
		<g>
			<g>
				<g>
					<path fill="#FFFFFF" d="M-1.5,2C-1.8,1.7-2,2.1-2.1,2.1C-1.6,2.5-1.5,1.9-1.5,2z"/>
					<polygon fill="#FFFFFF" points="3.2,5.4 3,5.5 3.9,5.8 					"/>
					<path fill="#FFFFFF" d="M7,9.3c0.1-0.9-1.5-1.3-2-2.2l0-0.2L4.4,7C5.2,7.7,6.6,8.6,7,9.3z"/>
					<path fill="#FFFFFF" d="M8,12.4c0.1-0.3,0.6,0.3-0.4-0.5c0,0.1,0,0.1,0,0.1C7.7,12.1,7.8,12.2,8,12.4z"/>
					<path fill="#FFFFFF" d="M7.6,12C7.2,11.6,7.7,12.4,7.6,12L7.6,12z"/>
					<path fill="#FFFFFF" d="M9.6,13.8l-0.7-0.4c0,0.2,0.4,0.7,0.2,0.6C9.7,14.5,9.7,14.3,9.6,13.8z"/>
					<path fill="#FFFFFF" d="M10.4,13.9l-0.3-0.2C10.1,13.8,10.1,13.9,10.4,13.9z"/>
					<path fill="#FFFFFF" d="M9.3,13.3l0.7,0.4c0-0.2,0.2-0.3-0.3-0.2C10,13.4,9.7,13.4,9.3,13.3z"/>
					<path fill="#FFFFFF" d="M9.1,12.9c-0.2-0.4-0.5-0.9,0.2-0.5C8.2,11.4,8,11.9,9.1,12.9z"/>
					<path fill="#FFFFFF" d="M7.7,9L7.5,8.4L7,8.2C7.2,8.3,7.6,9.1,7.7,9z"/>
					<path fill="#FFFFFF" d="M12.6,17.4c0.1-0.1,0.1-0.5,0.2-0.6l-0.5-0.3C12.4,16.7,12.7,17.2,12.6,17.4z"/>
					<path fill="#FFFFFF" d="M12.8,16.7l0.8,0.4C13.1,16.6,12.9,16.6,12.8,16.7z"/>
					<polygon fill="#FFFFFF" points="11.1,13.4 9.7,12.9 11.3,13.6 					"/>
					<polygon fill="#FFFFFF" points="14.8,19.6 14.2,19.5 15.2,19.7 					"/>
					<path fill="#FFFFFF" d="M16.3,21.1c-0.5,0,0,0.7-0.4,0.6c0.4,0.4,1,0.5,1.4,0.7C16.9,22.1,16.6,21.7,16.3,21.1z"/>
					<path fill="#FFFFFF" d="M18.1,22.6c-0.2-0.1-0.5-0.2-0.8-0.3C17.6,22.4,17.8,22.5,18.1,22.6z"/>
					<path fill="#FFFFFF" d="M14.5,18.2c0,0.1-0.1,0.4,0.2,0.8l0.1-0.5C14.7,18.3,14.6,18.3,14.5,18.2z"/>
					<path fill="#FFFFFF" d="M14.7,18.4L14.7,18.4c0.2,0.3,0.4,0.5,0.5,0.5C15.2,18.9,15,18.7,14.7,18.4z"/>
					<path fill="#FFFFFF" d="M14.5,18.1C14.5,18.1,14.5,18.2,14.5,18.1C14.5,18.1,14.5,18.1,14.5,18.1z"/>
					<path fill="#FFFFFF" d="M12.3,15.3c0.5,0.2,1.4,0.7,1-0.2C12.9,15,13.1,15.5,12.3,15.3z"/>
					<path fill="#FFFFFF" d="M14.5,17.4L14,16.8c-0.1,0.1-0.1,0.3-0.3,0.2L14.5,17.4z"/>
					<polygon fill="#FFFFFF" points="14.9,17.7 14.5,17.4 14.8,17.7 					"/>
					<path fill="#FFFFFF" d="M17.3,21.2c0.4,0.1,0.7,0.4,1.1,0.7c-0.3-0.4-0.6-0.8-1-1.2C17.3,20.9,16.9,20.9,17.3,21.2z"/>
					<path fill="#FFFFFF" d="M16.1,19.8C16.1,19.8,16.2,19.9,16.1,19.8C16.2,19.8,16.1,19.8,16.1,19.8z"/>
					<path fill="#FFFFFF" d="M21.7,25.3c0,0,0-0.1,0-0.1C21.6,25.2,21.6,25.2,21.7,25.3L21.7,25.3z"/>
					<path fill="#FFFFFF" d="M17.4,20.7c-0.2-0.3-0.4-0.4-0.7-0.5c0.2,0.2,0.5,0.4,0.7,0.6C17.5,20.8,17.5,20.8,17.4,20.7z"/>
					<path fill="#FFFFFF" d="M19.2,23.4c-0.1-0.2-0.2-0.4-0.3-0.6C18.9,23,19,23.4,19.2,23.4z"/>
					<path fill="#FFFFFF" d="M16.2,20C16.2,20,16.1,20,16.2,20C16.2,20.2,16.2,20.1,16.2,20z"/>
					<path fill="#FFFFFF" d="M16.2,20c0.2,0.1,0.4,0.1,0.5,0.2c-0.2-0.1-0.4-0.3-0.5-0.3C16.2,19.9,16.2,20,16.2,20z"/>
					<path fill="#FFFFFF" d="M24.6,24.3c-0.3,0.2-1.3-0.2-1.6-1.1c-0.8-0.4-1.3,0.9-1.3,2c0.1-0.1,0.3-0.2,1,0.2
						c-0.1-0.4-1-1.7-0.2-1.5c1,0.7,0.6,0.8,0.8,1.3c0-0.7,1.5,0.5,1.9-0.2l-0.9-0.5C24.3,24.5,24.7,24.6,24.6,24.3z"/>
					<path fill="#FFFFFF" d="M20.5,24l-0.3-0.2c0.2,0.3,0.3,0.7,0.5,1.3c0.6,0.3,0.7,0.3,0.9,0.2l-1.2-1.3L20.5,24z"/>
					<path fill="#FFFFFF" d="M19.1,22.6c0.5-0.1,1.2,0.4,1.2-0.3c-0.8-0.7-0.8-0.3-1.4-0.6C20.2,22.8,18.4,21.5,19.1,22.6
						c-0.3-0.2-0.5-0.4-0.7-0.6c0.2,0.3,0.3,0.5,0.5,0.8c0,0,0,0,0,0l0,0c0,0,0,0,0,0c0-0.1,0-0.1,0,0c0,0,0,0,0,0
						C19,22.6,19,22.6,19.1,22.6c0.3,0.4,0,0.1-0.2,0.1c0,0,0,0-0.1,0c0,0,0,0,0,0l1.4,1C20,23.4,19.7,23.1,19.1,22.6z"/>
					<path fill="#FFFFFF" d="M14.6,15c0,0.1,0,0.1,0,0.1C14.7,15.2,14.8,15.2,14.6,15z"/>
					<path fill="#FFFFFF" d="M14.9,15.7c-0.1,0-0.3,0-0.6-0.3c-0.2-0.3,0.1-0.1,0.2-0.3c-0.3-0.1-0.8-0.4-0.4,0.3l0.1,0
						c0.4,0.6,0.6,1.6,0.5,1.5C14.9,16.6,15,16.3,14.9,15.7z"/>
					<path fill="#FFFFFF" d="M17.1,19.1l1.1,0.9L18,19.2l-0.1,0.2C17.4,18.7,17.3,19.1,17.1,19.1z"/>
					<polygon fill="#FFFFFF" points="21.6,25.5 21.2,25.7 22.2,25.9 					"/>
					<polygon fill="#FFFFFF" points="23,26.8 22.6,27 23.1,27.2 					"/>
					<path fill="#FFFFFF" d="M99.6,97l0.4,0.2C99.8,97.1,99.7,97.1,99.6,97z"/>
					<path fill="#FFFFFF" d="M97.5,94.9L97.3,95C97.5,95,97.6,95,97.5,94.9z"/>
					<path fill="#FFFFFF" d="M54.8,58.8c0.2,0.7,0.2,1.6,0.5,1.2l0.2-0.4C55.1,59.4,54.9,59.1,54.8,58.8z"/>
					<path fill="#FFFFFF" d="M78.5,79c0-0.1,0-0.1,0-0.2c-0.2,0-0.4,0-0.6,0C78,78.8,78.2,78.9,78.5,79z"/>
					<path fill="#FFFFFF" d="M80,78l0.4,0.8C80.3,78.6,80.2,78.4,80,78z"/>
					<path fill="#FFFFFF" d="M111.5,108.4l0.7,0C111.6,107.9,111.7,108.3,111.5,108.4z"/>
					<path fill="#FFFFFF" d="M36.3,40.1c0.2,0.5,0.5,0.8,0.7,1.1C36.8,40.6,36.7,39.9,36.3,40.1z"/>
					<path fill="#FFFFFF" d="M95.5,99.4c0.2,0.1,0.4,0.1,0.4,0.1C95.7,99.4,95.5,99.3,95.5,99.4z"/>
					<path fill="#FFFFFF" d="M38.1,42.3c0-0.1-0.1-0.2-0.1-0.3c-0.3-0.2-0.6-0.5-0.9-0.8C37.3,41.6,37.6,42.1,38.1,42.3z"/>
					<path fill="#FFFFFF" d="M153.3,151c0,0,0,0.1,0.1,0.1C153.4,151.1,153.4,151.1,153.3,151z"/>
					<path fill="#FFFFFF" d="M162.4,166.4c-0.1-0.1-0.3-0.3-0.5-0.5C162,166,162.1,166.2,162.4,166.4z"/>
					<path fill="#FFFFFF" d="M28,32.2C27.7,31.9,28,32.2,28,32.2L28,32.2z"/>
					<path fill="#FFFFFF" d="M27.9,29.6c0.1,0,0.2,0,0.3,0C28.1,29.7,28,29.7,27.9,29.6z"/>
					<path fill="#FFFFFF" d="M42.8,43.1C42.8,43.1,42.8,43.1,42.8,43.1C42.8,43,42.8,43,42.8,43.1z"/>
					<path fill="#FFFFFF" d="M27.8,31.6c0.1,0.1,0.2,0.3,0.3,0.4C28,32,27.9,31.9,27.8,31.6z"/>
					<path fill="#FFFFFF" d="M27.7,31.8c-0.1-0.1-0.1-0.2-0.2-0.3C27.4,31.6,27.4,31.6,27.7,31.8z"/>
					<path fill="#FFFFFF" d="M28.4,32.6c-0.2-0.2-0.3-0.3-0.4-0.5c0,0.1,0,0.1,0,0.1C28.1,32.3,28.2,32.4,28.4,32.6z"/>
					<path fill="#FFFFFF" d="M129.9,129.1C129.9,129.2,130,129.2,129.9,129.1C130.4,129.4,130.2,129.3,129.9,129.1z"/>
					<path fill="#FFFFFF" d="M65.2,62.9C65.2,62.9,65.1,62.9,65.2,62.9C65.1,62.9,65.2,62.9,65.2,62.9L65.2,62.9z"/>
					<path fill="#FFFFFF" d="M66.4,63.7c-0.8,0-1-0.3-1.2-0.7l-0.6,1.2L66.4,63.7z"/>
					<path fill="#FFFFFF" d="M104.8,102.1l-0.4-1c1.3,0.4,1.7,1.2,1.5,0.1c-1.1,0.9-2.8-2.6-3.9-1.8l-0.3-0.7
						c0.1,0.1,0.2,0.1,0.3,0.2c-0.4-1.4-1.4,0-2.4-1.3c-0.3-0.5-0.5-0.9-0.1-0.7l-1.1-0.7c-0.2-0.3,0-0.4,0.2-0.1L97.3,95l0,0
						c-0.3,0-1-0.3-1.3-0.4c-0.2-0.5,0.3,0.1,0.3-0.1l-1-0.5c-0.1-0.6,0.8-0.2,1.3,0.4c0.3-1.7-0.9-0.4-1.8-2.5l0.8,0.6
						c0.1-1-0.7-1.4-1.1-2.5c0,0.4,0.7,2.5-0.3,1.9c-0.2-0.3-0.4-0.6-1.1-0.9c0.3-0.3-0.2-0.7-0.7-1.2l0.5-0.4
						c-0.7-0.5-0.9-0.2-1.4-0.3c-0.6-0.7-0.4-1.2-0.2-1.6c-1-1.1,0.2,1.3-1.2,0.1c-0.7-1-1.5-1.5-2.8-2.2c-0.4-0.8,0.4-0.2,0.3-0.5
						l-0.9-0.2c-0.1-0.1,0-0.2,0.1-0.2c-0.6-0.3-0.5,0.4-1.3-0.2c-0.7,0.3-0.7-2.2-2.2-2.5c-0.1-0.3,0.4-0.2,0.5-0.4
						c-1.6-0.8-1.3-0.8-2.8-1.3l-0.5-1.1c0.3,1-0.9,0.6-1.9,0.2c0.1,0.4,0.1,0.7,0.2,0.9L77.3,79c-0.1-0.2,0.2-0.3,0.6-0.3
						c-0.1,0-0.2-0.1-0.3-0.1c-0.2-0.6,0.2-0.6,0.8-0.6c0,0.2,0.1,0.5,0.1,0.7c0.5,0,1.1,0,1.3-0.4c-0.1,0-0.3-0.1-0.5-0.2
						c0.1,0,0.3,0,0.3-0.1c0-0.1-0.2-0.1-0.5-0.2l0.3-0.8L79,77.3l-1.1-1.8c-1.5-0.5-3.2-0.7-5-2.1c0.8,0,0.7-0.5,1.2-0.9
						c0,0.9,1.5,1.1,2.2,2c-0.4-0.5-0.1-0.6,0.1-0.6l-1.9-1.1c0.4-0.3-0.1-0.6-0.3-1.1c-0.4,1-1.6-0.7-2.4-1.1
						c0.2-0.3,0.6-0.4,1.3,0.4c-0.3-1.4-1.9-0.3-2.3-1.5c0.2,0.2,0.3,0.3,0.4,0.3c-0.6-0.2-1.5-1.4-1.1-1.4l0.2,0.2
						c-1.1-1.3-3.7-3.7-4.5-3.3c0.1-0.1,0.9-0.6,1.1-0.6l-4.2-0.2c0.7-0.3,1.2-2.3,2.5-1.6c-0.2-0.4-0.5-0.8-1.3-1.2
						c0.1,0.3-0.3,1.2-0.6,1c-0.2-1.3-0.2-0.8-0.6-2.2c0.2,0.4-1,0.9-1.4,0.4c0.2,0,0.8-0.8,1-0.7l-2-0.4c0.4,0.2,0.7-0.6,0.7-1.1
						c0,0.3-1-1-1.4-1.3l0.3,0.7c-1.2-1.4-2.4-0.2-3.7-1.6c0.3,0,1.4-0.6,0.8-1.4c-0.7,0.1-3.3,0.6-4.8-0.3l0-0.5l-1.2-0.6
						c1.2-0.1,4,0.2,5.4,0.6c-0.3-0.7,0.1-0.4-0.6-1.1c0-0.5,0.7,0.1,1,0.3l-1.6-1.9c-0.4,0.6-1.8-0.9-2.1-0.4l2.4,1.4
						c-0.4,0.5-2.4,0.3-3.6-1.1c-0.1-0.5,1.1-0.6,1.2-0.8c-0.3,0-1.5-0.9-1.5-1.1l0.8,0.3c-0.5-0.9-1.7-0.5-2.1-1.8
						c-0.3-0.3-0.2-1.5-0.6-1.2c-0.1,1-1.7,2.8-2.4,2.9c-0.1-0.1-1-2-1-2.6c0-0.9,1.7-0.3,1.7-1.1c-0.1,0.1-0.6,0-0.7,0
						c-0.2-0.4,0.5-0.3-0.2-0.9c-0.6,0.4-1.3-1.4-0.7,0.1c-0.8-0.5-0.6-0.8-1.3-1.5c-0.1,0.5-1.7,0.4-2.5-0.1
						c0.2-0.1,0.2-0.4,0.2-0.5c-1.2-1.3-1.7-2.3-2.9-3.5c0-0.2-0.4-1,0-0.9c-0.3-0.1-0.6-0.1-1-0.4c-0.3-1.1,0.9,0.8,0.8-0.3
						c-0.3,0.2-1.3-0.6-2.1-0.9c-0.3,0.6,1.1,1.3,1.8,1.7C39,39.3,37.4,39,35.9,38c-1.1-0.9,0-0.8-0.3-0.9c-1.8-2-2.6-0.6-3.8-2.6
						c-0.2-1,0.7-0.8,0.9-1.2c1,0.7,1,1.5,1.6,2l-0.5-0.9c0.4,0.1,1,0.6,1.2,1c-0.2-0.9-3.1-3.3-4.2-5c-0.4-0.1-1-0.4-0.9-0.1
						l0.5,0.4c0.1,0.7-1.3-0.4-0.9,0.3c-0.8-0.4-1.9-0.8-2.6-1.8l0.3-0.6c-0.1,0.1,0.3,0.8,0.7,0.9c-0.6-0.2-0.7-1.9-1.7-1.8
						l0.3,0.9c-0.8-0.4-2.1-0.7-2.7-1.6c-0.1,0.8,0.2,0.1,0.3,1.2c0.2-1.1,1.9,2,1.8,0.6c0,1.1,0.7,1.2,1,2.5c0.1-0.2,0-0.5,0.6,0.2
						c0.1,0,0.2,0,0.3,0c0,0,0,0,0,0.1c0,0,0,0,0-0.1c0,0,0.1,0,0,0c-0.1-0.2-0.1-0.4-0.1-0.5c0.6,0,1.7,1,2.2,1.2
						c0.3,0.5-0.3,0-0.3,0.4l0.8,0.3c-0.3,0.4,0.5,1.5-0.6,0.8l0.8,0.8c0.3,0.7,0.9,1.4,1.4,1.7c0.3,0.5,1.3,0.6,0.7,0.5l1.5,1.1
						l-0.1,0.1c1.2,1.3,3.1,2.1,4,4.1c0.5,0.3,1,0.7,1.7,1.5l-0.1,0.4c0.6,0.4,1.4,1.9,1.9,1.9c-0.2,1.3,2.5,2.8,3.3,3.9l0.4-0.3
						c0.6,0.7,1.4,1.2,2.3,1.9l0.3-0.4c1,0.4,1.6,2,2.7,3.1c-0.2,0-0.4-0.3-0.6-0.5c0.6,2,3.3,2.3,4,4c0.4,0.2,0.6,0.4,0.7,0.7
						c0,0-0.1,0-0.1-0.1c0,0,0.1,0.1,0.1,0.1c0.1,0.2,0.2,0.4,0.2,0.6c0-0.2-0.1-0.4-0.2-0.5c0.2,0.2,0.6,0.5,1.1,0.8l-0.2,0.5
						c0,0,0.1,0,0.1,0.1c0.2,0.5,0.4,0.1,0.5-0.3c0.2,0.1,0.5,0.2,0.7,0.3c-0.3,0.8,1.1,0.7,0.9,1.7c0.5-0.1,1.9,1.5,2.7,1.1
						c-0.1,0.1,0,0.2-0.2,0c0.3,0.5,0.6,0.9,1.1,1.1L61,64.1l1.4,0.3c0.2,0.8,0.3,1.1-0.5,1c1.7,0.7,1.2,0.8,2.7,1.3l-0.3,0.2
						c0.4,0.4,1.3,0.6,1.3,1c0.3,1.4,4,4.2,5.7,6.8c0.4-1.2,0.6,1.4,1.3,0.8c-0.1,0.3,0.1,0.7-0.4,0.5c1.3,0.9,1.3,2,2.6,2.2
						c-0.1,0.3-0.5,0.1-0.5,0.3c0.1,0,0.5,0.2,0.5,0.4c0,0.2-0.3,0-0.6-0.1c1.1,1.1,1.9,0.6,2.5,0.1c0.3,0.8,0.6,1.1,1.4,1.1
						c0,0.4,0.1,0.9-0.6,0.3c0.4,0.4,2.1,2.7,2.6,2.2c0,0.2,0.5,0.6,0.7,0.6c0.8,0.9,0.9,1,1.8,1.8l-0.2-0.3
						c0.9-0.2,0.8,0.6,1.6,1.2l-0.1,0c1.2,2,0.9,0.5,2,2.5l0.3-0.4c0.9-0.6,0.9,1.8,2.1,2.5l-0.1-0.5c0.7,0.2,0.4,2.4,0.8,3
						c0,0.2-0.3-0.1-0.5-0.2c0.9,1.7,0.6-0.3,1.7,0.6c-0.1,0.4-0.8,0.4-0.2,1.1c0.1,0.5,2.7,1.1,3.1,2.5c0-0.4,0-0.8,0.6-0.4
						c0.8,0.6,1.2,2.6,2.4,2.6c0,0.1,0,0.2,0,0.3c0.7,0.4,2,1.5,2.6,1.5c-0.7,1.7,3.8,2.7,2.7,3.8l1.7,1.6l-0.2,0.1
						c1,1.1,1.6,1.2,2.2,1.3c0.2,0.3-0.1,0.2-0.2,0.3c1.3,1.7,1.5,1.8,3.3,2.6l-0.2,0.5c0.5,0.1,1.6,2.7,3.5,3.8
						c-0.1,0-0.2,0.1-0.3,0c2.1,1.3,3,5,4.9,4.3l1.4,0.8c-1.3-1.5,0.8-0.3,0.4-1.1c0.6,0.5,1.1,1.8,0.3,1.2l0-0.2
						c-0.9,0.4,1.5,2,1,2.4c2.8,2.8,5.2,5.9,7.8,8.6l0.2-0.8l0.9,1c0.1,0.4-0.1,0.7-0.7,0c0,0.6,1.3,0.9,1.5,0.8
						c1.1,1.5-1.1,0.1-0.7,0.5l0.6,0.5l-0.1-0.2c0.6,0.2,0.9,0,1.7,0.9c0.4,0.6-0.1,0.6,0.1,0.8c0,0,0,0.1,0.3,0.3l1.1,1.2l-0.1-0.9
						c0.7,0.3,1.1,1.1,1,0.1c0.1,1.5,4,4.6,4.3,5.3c1,0.4,1.7,1.1,2.6,2.1c-0.1-0.3,0.2-0.9,0.9-0.1c-1.2,0.7,1,1.8,0.9,3.1
						c-0.1-1,2.3,2.1,2,0.6c0.6,0.7-0.3,0.4-0.1,1.1c1.9,1.1,3.1,3.6,5,5.3c0.2-0.1,0-0.6,0.6-0.4l0.4,1.6c0.4,0.3,1.1-0.4,1.3,0.7
						c0-0.2,0-0.5,0.3-0.3c3,4.3,7.9,7,10.5,11.8c-0.3-0.7,0.1-0.4,0.5-0.1c-0.2-0.3,0.3-0.3,0.4-0.5l1.1,2c0.8-0.2,1.7,1.6,2.3,1.4
						l-0.6-0.4c1.2,0.1,0.3-2.1,1-2.7c-1.3-0.1-1-2.8-3.1-3.2c-0.1-0.4,0.4,0,0.5-0.3c-0.6,0-1-0.3-1.6-1.1l0.1,0
						c-2-1.8-2.5-3-4.5-5.3l-0.2,0.5c-0.4-0.5-0.4-0.7-0.5-1c-1,0,1.3,1.3,0.2,1.4c0.1-1.3-3.2-3.3-2.9-4.5
						c-0.7-0.7-0.2,0.6-0.9-0.1l0-0.4l-0.4,0.1c-0.4-0.5-0.4-1-0.2-1.2c0.1,0.1,0.4,0.3,0.5,0.4c-0.4-0.9-1.8-1.6-1.9-1.9l0.5,0.8
						c-2.1-1.7-4.2-4.4-6.5-5.9l0,0.3c-1.7-1.1-1-1.3-2.7-2.8l0.1,0c-0.5-0.2-1-0.5-1.4-0.9c0.6,0.2-0.4-1.1,0.3-0.8
						c-1.9-1.2-1-0.5-2.6-1l0-0.5c-0.6-0.1-0.7,0-1.6-0.7c0.9,0.4-0.1-0.9,0.9-0.5c-1.1-2.2-3-1.9-2.9-3.5c-1.5,0,1,1.8,0.4,1.6
						c0.1,0.6-1.2-0.1-1.6-0.7c-0.5-0.5,0-1.8-1.3-3.1c0.1,0.1,0.2,0.1,0.3,0.2c-0.3-0.7-1.2-0.7-1.5-1.6c-0.8,0.1-0.8-0.8-1.4-0.4
						l1.3,1.1c-0.8-0.5-2.1-0.5-2.9-2c0.2,0,0.7,0.2,1,0.3c-0.2-0.5-0.7-0.5-0.9-1c0.7-0.5,1.6,1.4,2.8,1.7c-0.1-0.6-1.8-1-0.8-1.2
						c-1.3,0.2-1.2-1.4-2.7-1.7l0.4-0.3c-0.2-0.1-0.6-0.2-0.9-0.5l0.9,0c-1.1-0.4-1.1-1.7-2-2.2c1.5,1.5-0.1,0.7,0.3,1.6
						c-2.2-1.4-0.1-1.9-2.3-3.8c0.3,0.2,0.8,1.2,0.2,1c-0.3-0.5-0.7-1.1-0.7-1.5c-1.4-1.3-0.1,0.5-0.9,0.2c0-0.9-0.8-0.5-1.5-0.9
						l0.3-0.3c-1.3-1.7-1.1,0.3-2.2-1.3l1,0.1l-0.8-0.6l0.5-0.2c-1.1-0.5-1.2-0.8-1.9-1.7c-0.1,0.4-0.7,0.5-1.4-0.1
						c-0.3-0.7,0.6-0.1-0.4-1c0.4,0,0.9,0,1,0.7c0.2-0.1,0.4,0,0.6-0.1c-0.3-0.7-1.2-1.3-1.5-1.6c0.1,0.1,0.3,0.3,0.3,0.5l-1.8-0.9
						c-0.1-0.3,0.2-0.3,0.5-0.2c-0.3-0.2-0.7-0.3-1.1-0.7c0.4-0.2,0.6-0.5,1.4,0l-1.6-1c0-0.2-0.3-1-0.1-0.9
						c-0.6-0.9-2.3-1.3-3.1-2.4c-0.1,0-0.3,0-0.5-0.2c-0.8-1-1.3-2.1-2.8-2.8l-0.1-1.1c-1-0.7,0.2,1.5-1.4,0.2
						c-1.1-0.8,0.1-0.8-0.2-1.3c-0.7-0.2-2.1-0.6-2.6-1.9C104.3,101.5,104.4,101.8,104.8,102.1z M94.2,91.9c0.3,0.1,0.9,0.3,0.8,0.7
						C94.4,92.7,94.4,92.3,94.2,91.9z M77.6,76.8c0.3,0,0.4,0.3,0.6,0.7C77.9,77.4,77.7,77.1,77.6,76.8z M31.3,35
						C31.3,35,31.3,35,31.3,35C31.7,35.5,31.6,35.3,31.3,35z M30.5,33.9c-0.1,0-0.2,0-0.2,0.1c0.2,0,0.4,0.2,0.6,0.4
						C31,34.3,30.9,34.1,30.5,33.9z M130.6,134.4l-0.1-0.3C131,134.4,130.8,134.4,130.6,134.4z"/>
					<path fill="#FFFFFF" d="M79.9,78.1c0,0.1,0,0.2-0.1,0.3C79.9,78.4,80,78.4,79.9,78.1z"/>
					<path fill="#FFFFFF" d="M111.4,108.4C111.4,108.4,111.4,108.4,111.4,108.4c0.1,0,0.1,0,0.1,0L111.4,108.4z"/>
					<path fill="#FFFFFF" d="M47.9,45.5c0.1,0.2,0.2,0.4,0.2,0.5C48.1,46,48.1,45.8,47.9,45.5z"/>
					<path fill="#FFFFFF" d="M25,29.5l0.7,0.5c-0.3-0.3-0.3-0.5-0.4-0.7C25.2,29.4,25.2,29.7,25,29.5z"/>
					<path fill="#FFFFFF" d="M22,22.2c-0.1,0-0.2-0.2-0.3-0.2l-0.1,0.2C21.9,22.5,22.3,22.6,22,22.2z"/>
					<path fill="#FFFFFF" d="M25.6,27.8c0.2-0.3-0.2-0.6-0.7-1c0,0,0.1,0,0.1,0.1C24.5,27.2,25,27.5,25.6,27.8z"/>
					<path fill="#FFFFFF" d="M24.8,26.7c-0.1-0.1-0.3-0.2-0.4-0.4C24.2,26.5,24.5,26.5,24.8,26.7z"/>
					<path fill="#FFFFFF" d="M29.2,32.9c-0.1-0.3-0.5,0.2-0.5,0C28.1,33,30.4,33.8,29.2,32.9z"/>
					<polygon fill="#FFFFFF" points="26.2,26.5 26,27 26.5,27 					"/>
					<path fill="#FFFFFF" d="M29.3,30.1l-0.6-0.8c0,0.1-0.2,0-0.3-0.1C28.8,29.7,29.2,30.2,29.3,30.1z"/>
					<path fill="#FFFFFF" d="M28.4,29.3c-0.2-0.2-0.4-0.4-0.6-0.5C27.9,28.9,28.2,29.1,28.4,29.3z"/>
					<polygon fill="#FFFFFF" points="27.2,27.3 27.4,27.6 27.8,28.1 					"/>
					<path fill="#FFFFFF" d="M36.4,37.4l0.8,0.6c0.2,0,0.1-0.3-0.2-0.5C36.7,37.4,36.4,37.2,36.4,37.4z"/>
					<path fill="#FFFFFF" d="M35.1,34.2c0.1,0.3,0.1,0.4,0.1,0.6l0.5-0.4L35.1,34.2z"/>
					<path fill="#FFFFFF" d="M37.4,36.2c0.2,0,1.4,0.7,0.5-0.2C37.6,36.1,36.8,35.5,37.4,36.2z"/>
					<polygon fill="#FFFFFF" points="47.8,47.8 47.6,47.7 46.9,48.4 					"/>
					<path fill="#FFFFFF" d="M59.2,55.9c-0.7-1-0.7,0.2-1.2-0.8c-0.4,0,0.5,0.8,0.1,0.8C58.8,56.2,58.9,56.6,59.2,55.9z"/>
					<path fill="#FFFFFF" d="M58.1,55.8c-0.1-0.1-0.2-0.1-0.4-0.2C57.9,55.8,58,55.8,58.1,55.8z"/>
					<polygon fill="#FFFFFF" points="164.1,168.9 164.5,169.6 164.4,169 					"/>
					<path fill="#FFFFFF" d="M165.7,169.4l-0.3,0.6l0.8-0.1C165.9,169.8,165.7,169.6,165.7,169.4z"/>
					<path fill="#FFFFFF" d="M93.6,89.4l-0.2,0.1c0,0.2,0.1,0.3,0.3,0.6L93.6,89.4z"/>
					<polygon fill="#FFFFFF" points="100.7,97.3 100.6,97.2 100.4,97.8 					"/>
					<path fill="#FFFFFF" d="M107.6,103.1c-0.2-0.3-0.6-0.5-0.9-0.8C107.3,102.9,107.1,103.7,107.6,103.1z"/>
				</g>
			</g>
		</g>
	</g>
</g>
<g opacity="0.5">
	<g>
		<g>
			<g>
				<g>
					<path fill="#FFFFFF" d="M167.1,81.9c0.2,0,0.2-0.4,0.2-0.5C166.9,81.5,167.1,82,167.1,81.9z"/>
					<polygon fill="#FFFFFF" points="163.1,82.8 163.1,82.7 162.5,83.1 					"/>
					<path fill="#FFFFFF" d="M159.2,82.8c0.4,0.7,1.4-0.1,2.1,0.1l0.1,0.2l0.3-0.6C160.9,82.7,159.8,83,159.2,82.8z"/>
					<path fill="#FFFFFF" d="M157.2,81.3c0.1,0.3-0.4,0.2,0.5,0.1c0,0-0.1,0-0.1-0.1C157.5,81.3,157.4,81.3,157.2,81.3z"/>
					<path fill="#FFFFFF" d="M157.6,81.3C158,81.3,157.3,81.1,157.6,81.3L157.6,81.3z"/>
					<path fill="#FFFFFF" d="M155.7,81.5l0.5-0.2c-0.1-0.2-0.6-0.2-0.4-0.3C155.3,81,155.4,81.2,155.7,81.5z"/>
					<path fill="#FFFFFF" d="M155.2,82l0.3-0.1C155.5,81.8,155.4,81.8,155.2,82z"/>
					<path fill="#FFFFFF" d="M156.1,81.7l-0.6,0.2c0.1,0.1,0.1,0.3,0.3-0.1C155.7,82,155.9,81.8,156.1,81.7z"/>
					<path fill="#FFFFFF" d="M156.4,81.8c0.3,0.2,0.7,0.3,0.1,0.5C157.6,82.2,157.4,81.7,156.4,81.8z"/>
					<path fill="#FFFFFF" d="M159.1,83.6l0.4,0.2l0.3-0.2C159.6,83.7,159,83.4,159.1,83.6z"/>
					<path fill="#FFFFFF" d="M152.5,81.1c0,0.2,0.2,0.4,0.2,0.6l0.4-0.2C152.9,81.4,152.5,81.3,152.5,81.1z"/>
					<path fill="#FFFFFF" d="M152.7,81.7l-0.6,0.3C152.6,82,152.7,81.9,152.7,81.7z"/>
					<polygon fill="#FFFFFF" points="155.2,82.8 156.1,82.2 155,82.8 					"/>
					<polygon fill="#FFFFFF" points="150.2,81.1 150.5,80.7 150,81.3 					"/>
					<path fill="#FFFFFF" d="M148.7,81.1c0.2-0.3-0.3-0.5-0.1-0.7c-0.4,0.1-0.7,0.3-1.1,0.5C147.9,80.9,148.3,80.9,148.7,81.1z"/>
					<path fill="#FFFFFF" d="M147.1,81.3c0.2-0.1,0.3-0.2,0.5-0.3C147.4,81.1,147.3,81.2,147.1,81.3z"/>
					<path fill="#FFFFFF" d="M151.1,81.9c0-0.1-0.1-0.3-0.5-0.4l0.2,0.4C150.9,81.9,151,81.9,151.1,81.9z"/>
					<path fill="#FFFFFF" d="M150.9,81.9L150.9,81.9c-0.3,0-0.4,0-0.5,0C150.4,81.9,150.6,81.9,150.9,81.9z"/>
					<path fill="#FFFFFF" d="M151.1,81.9C151.1,81.9,151.1,81.9,151.1,81.9C151.1,81.9,151.1,81.9,151.1,81.9z"/>
					<path fill="#FFFFFF" d="M153.6,82.4c-0.3,0.2-1.1,0.5-0.4,0.9C153.5,83,153.1,82.8,153.6,82.4z"/>
					<path fill="#FFFFFF" d="M151.4,82.4l0.6,0.1c0-0.1-0.1-0.3,0-0.4L151.4,82.4z"/>
					<polygon fill="#FFFFFF" points="151.1,82.6 151.4,82.4 151.2,82.4 					"/>
					<path fill="#FFFFFF" d="M148.1,81.7c-0.3,0.2-0.6,0.2-0.9,0.2c0.4,0.1,0.7,0.1,1.1,0.1C148.4,82,148.5,81.7,148.1,81.7z"/>
					<path fill="#FFFFFF" d="M149.5,81.8C149.5,81.9,149.4,81.9,149.5,81.8C149.4,81.9,149.5,81.9,149.5,81.8z"/>
					<path fill="#FFFFFF" d="M144,82C144,82,144,82,144,82C144,82,144.1,82,144,82L144,82z"/>
					<path fill="#FFFFFF" d="M148.4,82.2c0.3,0.1,0.4,0,0.6-0.2C148.8,82.1,148.6,82.1,148.4,82.2C148.3,82.1,148.3,82.2,148.4,82.2
						z"/>
					<path fill="#FFFFFF" d="M146.2,81.5c0.1,0.1,0.3,0.2,0.5,0.2C146.5,81.6,146.2,81.4,146.2,81.5z"/>
					<path fill="#FFFFFF" d="M149.3,81.8C149.3,81.7,149.3,81.7,149.3,81.8C149.3,81.6,149.3,81.7,149.3,81.8z"/>
					<path fill="#FFFFFF" d="M149.3,81.8c-0.1,0.1-0.2,0.2-0.4,0.3c0.2,0,0.3-0.1,0.4-0.1C149.4,81.8,149.3,81.8,149.3,81.8z"/>
					<path fill="#FFFFFF" d="M143,84.7c0-0.4,0.7-0.8,1.4-0.3c0.6-0.3,0.2-1.6-0.3-2.3c0,0.2,0,0.3-0.6,0.6c0.2,0.2,1.4,0.5,0.8,0.9
						c-0.8,0.2-0.7-0.1-1.1-0.3c0.3,0.5-1,0.7-0.9,1.4l0.7-0.3C143.1,84.4,142.8,84.6,143,84.7z"/>
					<path fill="#FFFFFF" d="M145.2,82.1l0.3,0c-0.3-0.1-0.5-0.2-0.9-0.5c-0.4,0.2-0.5,0.3-0.5,0.5L145.2,82.1L145.2,82.1z"/>
					<path fill="#FFFFFF" d="M146.6,82c-0.2,0.4-0.8,0.6-0.4,1.1c0.7,0,0.5-0.4,1-0.5C145.9,82.7,147.5,82.3,146.6,82
						c0.2,0,0.5,0,0.7-0.1c-0.2-0.1-0.4-0.1-0.6-0.2c0,0,0,0,0,0l0,0c0,0,0,0,0,0c0.1,0.1,0.1,0.1,0,0.1c0,0,0,0,0,0
						C146.6,81.9,146.6,82,146.6,82c-0.3-0.1-0.1-0.1,0.1-0.2c0,0,0,0,0-0.1c0,0,0,0,0,0l-1.2,0.2C145.7,82.1,146,82.1,146.6,82z"/>
					<path fill="#FFFFFF" d="M152.6,84.2c0,0,0-0.1,0-0.1C152.5,84.1,152.5,84.2,152.6,84.2z"/>
					<path fill="#FFFFFF" d="M152.1,83.9c0.1-0.1,0.2-0.2,0.4-0.2c0.2,0.1,0,0.2,0,0.3c0.2-0.1,0.6-0.3,0.1-0.5l-0.1,0.1
						c-0.5-0.1-1.1-0.7-1-0.7C151.7,83.3,151.8,83.5,152.1,83.9z"/>
					<path fill="#FFFFFF" d="M149.3,83.1l-1,0.2l0.5,0.4l0-0.2C149.4,83.5,149.3,83.3,149.3,83.1z"/>
					<polygon fill="#FFFFFF" points="143.9,81.7 144,81.3 143.4,81.9 					"/>
					<polygon fill="#FFFFFF" points="142.6,81.8 142.6,81.4 142.3,81.6 					"/>
					<path fill="#FFFFFF" d="M69.4,86.7l-0.3,0.1C69.3,86.8,69.4,86.7,69.4,86.7z"/>
					<path fill="#FFFFFF" d="M71.6,86.7l0.1-0.2C71.5,86.6,71.5,86.7,71.6,86.7z"/>
					<path fill="#FFFFFF" d="M110.7,81.8c-0.4-0.4-0.9-0.9-0.9-0.5l0.1,0.4C110.3,81.7,110.6,81.7,110.7,81.8z"/>
					<path fill="#FFFFFF" d="M88.9,84.4c0,0,0.1,0.1,0.1,0.1c0.1-0.1,0.2-0.3,0.3-0.4C89.2,84.2,89.1,84.3,88.9,84.4z"/>
					<path fill="#FFFFFF" d="M88.6,86.2l-0.6-0.3C88.2,86,88.4,86.1,88.6,86.2z"/>
					<path fill="#FFFFFF" d="M57.8,87.2l-0.3,0.4C58,87.6,57.8,87.4,57.8,87.2z"/>
					<path fill="#FFFFFF" d="M129.3,82c-0.4-0.2-0.7-0.2-0.9-0.3C128.8,81.9,129.2,82.3,129.3,82z"/>
					<path fill="#FFFFFF" d="M70.3,82.1c-0.2,0.1-0.3,0.2-0.3,0.3C70.2,82.3,70.3,82.2,70.3,82.1z"/>
					<path fill="#FFFFFF" d="M127.3,81.7c0.1,0,0.1,0.1,0.2,0.1c0.3-0.1,0.5-0.1,0.9-0.1C128.1,81.5,127.7,81.4,127.3,81.7z"/>
					<path fill="#FFFFFF" d="M15.8,86.8C15.8,86.8,15.7,86.8,15.8,86.8C15.7,86.8,15.7,86.8,15.8,86.8z"/>
					<path fill="#FFFFFF" d="M3.6,82.4c0.1,0,0.3,0,0.5,0C4,82.4,3.8,82.4,3.6,82.4z"/>
					<path fill="#FFFFFF" d="M137.4,81.6C137.6,81.6,137.4,81.6,137.4,81.6L137.4,81.6z"/>
					<path fill="#FFFFFF" d="M138.7,83.3c-0.1,0-0.1,0.1-0.1,0.2C138.6,83.4,138.7,83.4,138.7,83.3z"/>
					<path fill="#FFFFFF" d="M124.6,84.4C124.6,84.4,124.6,84.4,124.6,84.4C124.6,84.5,124.6,84.5,124.6,84.4z"/>
					<path fill="#FFFFFF" d="M137.8,81.8c-0.1-0.1-0.2-0.1-0.4-0.1C137.5,81.7,137.6,81.8,137.8,81.8z"/>
					<path fill="#FFFFFF" d="M137.7,81.6c0.1,0,0.2,0,0.2,0C138,81.6,138,81.5,137.7,81.6z"/>
					<path fill="#FFFFFF" d="M137,81.6c0.2,0,0.3,0,0.4,0c-0.1,0-0.1-0.1-0.1-0.1C137.3,81.6,137.2,81.6,137,81.6z"/>
					<path fill="#FFFFFF" d="M38.3,85.6C38.3,85.6,38.3,85.6,38.3,85.6C38,85.8,38.1,85.8,38.3,85.6z"/>
					<path fill="#FFFFFF" d="M103.6,86.3C103.6,86.3,103.6,86.3,103.6,86.3C103.6,86.3,103.6,86.3,103.6,86.3L103.6,86.3z"/>
					<path fill="#FFFFFF" d="M102.6,86.7c0.4-0.5,0.7-0.5,1-0.4l-0.3-1.3L102.6,86.7z"/>
					<path fill="#FFFFFF" d="M64.3,86.8l0.7,0.4c-0.8,0.6-1.4,0.4-0.8,1c0.1-1.4,2.7-0.1,2.8-1.5l0.5,0.3c-0.1,0-0.2,0.1-0.3,0.1
						c0.9,0.7,0.7-1,1.8-0.8c0.4,0.1,0.7,0.3,0.4,0.5l0.9-0.3c0.3,0,0.2,0.3-0.1,0.2l1.4-0.1l0,0c0.2-0.2,0.6-0.5,0.8-0.7
						c0.3,0.2-0.2,0.1-0.1,0.3l0.8-0.3c0.3,0.4-0.3,0.7-0.8,0.6c0.7,1.4,0.6-0.3,2.1,0.5l-0.7,0.2c0.5,0.8,1,0.5,1.8,1
						c-0.2-0.3-1.6-1.2-0.8-1.5c0.2,0.1,0.5,0.2,1-0.1c0,0.5,0.4,0.4,1,0.3l0,0.6c0.6-0.2,0.5-0.5,0.9-0.8c0.6,0.1,0.8,0.6,0.9,1
						c1,0.1-0.7-0.8,0.5-0.9c0.9,0.2,1.5,0,2.5-0.4c0.6,0.2-0.1,0.4,0.1,0.6l0.5-0.5c0.1,0,0.1,0.2,0.1,0.2c0.5-0.2,0-0.6,0.7-0.8
						c0.2-0.7,1.5,1,2.3,0.2c0.2,0.2-0.1,0.4,0,0.6c1.2-0.5,1-0.4,2-1.1l0.8,0.4c-0.6-0.5,0.2-1,0.9-1.5c-0.2-0.2-0.4-0.4-0.5-0.5
						l1.1-0.3c0.1,0.1,0,0.3-0.2,0.6c0.1-0.1,0.1-0.1,0.2-0.2c0.4,0.2,0.2,0.6-0.1,1c-0.1-0.1-0.3-0.3-0.4-0.4
						c-0.3,0.4-0.5,0.8-0.5,1.2c0.1-0.1,0.2-0.1,0.4-0.2c-0.1,0.1-0.1,0.2-0.1,0.3c0,0.1,0.2-0.1,0.3-0.2l0.3,0.7l0.1-0.3l1.4,0.4
						c1-0.7,1.9-1.8,3.6-2.1c-0.4,0.5-0.1,0.9-0.1,1.5c-0.4-0.7-1.3,0.3-2.1,0.1c0.4,0.1,0.3,0.4,0.2,0.5l1.5-0.6
						c0,0.5,0.3,0.4,0.7,0.6c-0.3-1,1.1-0.7,1.7-1c0,0.3-0.1,0.7-0.9,0.6c0.8,0.8,1.1-1.2,1.9-0.5c-0.2,0-0.3,0-0.4,0.1
						c0.4-0.3,1.5-0.1,1.2,0.2l-0.2,0c1.2,0.1,3.7,0,3.9-0.8c0,0.1-0.2,1-0.2,1.2l2.2-2.9c-0.2,0.7,0.5,2.5-0.5,2.9
						c0.3,0.1,0.7,0.2,1.3,0c-0.2-0.1-0.5-1.1-0.2-1.1c0.7,0.8,0.5,0.4,1.4,1.1c-0.3-0.2,0-1.3,0.5-1.3c-0.1,0.2,0,1.1-0.1,1.2
						l1.2-1.1c-0.3,0.2-0.1,1,0.2,1.3c-0.1-0.2,1,0,1.3-0.1l-0.5-0.3c1.3,0.2,1.3-1.6,2.6-1.5c-0.2,0.2-0.4,1.4,0.3,1.6
						c0.3-0.6,1.4-2.8,2.5-3.2l0.2,0.3l0.9-0.4c-0.6,0.9-2.1,2.7-3,3.4c0.5,0.3,0.1,0.4,0.9,0.4c0.3,0.3-0.4,0.5-0.6,0.5l1.7,0.2
						c-0.1-0.7,1.3-0.7,1.3-1.2l-1.9,0.7c-0.1-0.7,1.1-1.9,2.3-1.8c0.3,0.3-0.2,1.2-0.2,1.4c0.2-0.2,1.2-0.4,1.3-0.3l-0.5,0.4
						c0.7,0.3,1.1-0.9,1.9-0.2c0.3,0,0.8,0.9,0.9,0.5c-0.5-0.8-0.5-3.1-0.2-3.7c0.1,0.1,1.5,0.7,1.8,1.1c0.5,0.6-0.7,1.4-0.3,2
						c0-0.2,0.3-0.4,0.4-0.5c0.3,0.2-0.1,0.6,0.5,0.5c0.1-0.7,1.3,0.1,0.3-0.6c0.6-0.2,0.7,0.1,1.4,0.1c-0.2-0.4,0.7-1.5,1.3-1.7
						c0,0.2,0.1,0.4,0.2,0.5c1.3,0.1,2,0.4,3.2,0.4c0.1,0.2,0.7,0.4,0.4,0.7c0.2-0.1,0.3-0.4,0.7-0.4c0.7,0.6-0.8,0.1-0.3,0.8
						c0-0.4,1-0.5,1.5-0.8c-0.2-0.6-1.2-0.1-1.7,0.1c0-0.8,0.9-1.7,2.2-2.1c1-0.2,0.4,0.5,0.6,0.4c1.9,0.1,1.6-1.5,3.2-0.9
						c0.6,0.5,0,1.1,0.2,1.5c-0.8,0.2-1.2-0.3-1.8-0.3l0.7,0.3c-0.3,0.2-0.8,0.3-1.1,0.2c0.5,0.5,3.2,0.1,4.6,0.5
						c0.3-0.2,0.7-0.4,0.5-0.6l-0.5,0.1c-0.4-0.4,0.9-0.6,0.3-0.8c0.6-0.3,1.3-0.8,2.2-0.5l0.2,0.6c0-0.2-0.6-0.4-0.8-0.2
						c0.4-0.3,1.3,0.8,1.7,0l-0.6-0.4c0.6-0.3,1.4-1,2.1-0.8c-0.3-0.6-0.2,0.1-0.7-0.6c0.5,0.9-2,0-1.2,0.9c-0.6-0.8-1-0.3-1.7-1
						c0,0.2,0.3,0.4-0.4,0.3c0,0.1-0.1,0.1-0.1,0.2c0,0,0,0,0,0c0,0,0,0,0,0c0,0,0,0,0,0c0.2,0.1,0.3,0.2,0.3,0.3
						c-0.3,0.5-1.3,0.4-1.7,0.7c-0.4-0.1,0.2-0.2,0-0.4l-0.5,0.4c-0.1-0.4-1-0.7-0.1-1l-0.8,0c-0.5-0.3-1.1-0.4-1.5-0.2
						c-0.4-0.1-1,0.5-0.6,0.1l-1.3,0.3l0-0.1c-1.3-0.1-2.6,0.7-4-0.1c-0.4,0.1-0.9,0.3-1.6,0.1l-0.1-0.4c-0.5,0.1-1.6-0.4-1.9,0
						c-0.6-1-2.6-0.2-3.6-0.4l0,0.5c-0.7,0-1.3,0.1-2.1,0.3l0.1,0.4c-0.7,0.4-1.8-0.3-2.9-0.3c0.1-0.2,0.4-0.1,0.6,0
						c-1.3-1-2.8,0.7-4,0c-0.3,0.2-0.5,0.1-0.7,0c0,0,0.1,0,0.1,0c0,0-0.1,0-0.1,0c-0.1-0.1-0.3-0.2-0.4-0.2
						c0.1,0.1,0.2,0.2,0.4,0.2c-0.2,0-0.6,0.1-0.9,0.2l-0.1-0.5c0,0-0.1,0-0.1,0c-0.3-0.2-0.3,0.2-0.1,0.6c-0.2,0.1-0.3,0.2-0.5,0.3
						c-0.3-0.8-0.9,0.3-1.3-0.6c-0.2,0.4-1.7,0.3-1.9,1.2c0-0.1-0.1-0.2,0.1-0.2c-0.4-0.1-0.8-0.2-1.1,0l-0.2-0.6l-0.8,0.8
						c-0.5-0.4-0.7-0.6-0.2-1.1c-1.2,0.7-1,0.3-2,1l0.1-0.4c-0.4,0-1,0.5-1.2,0.2c-0.8-0.8-4.1-0.1-6.2-0.8c0.4,1.2-1-0.5-1.1,0.4
						c-0.1-0.3-0.4-0.4-0.1-0.7c-1.1,0.3-1.6-0.4-2.4,0.3c-0.1-0.3,0.2-0.4,0.1-0.6c-0.1,0.1-0.3,0.2-0.5,0.1
						c-0.1-0.2,0.2-0.2,0.3-0.4c-1.1,0-1.2,0.9-1.3,1.7c-0.6-0.4-0.8-0.3-1.2,0.2c-0.2-0.3-0.5-0.5,0.2-0.6c-0.4,0-2.4-0.4-2.4,0.3
						c-0.1-0.2-0.5,0-0.6,0c-0.9,0-0.9-0.1-1.8,0l0.2,0.1c-0.3,0.8-0.7,0.2-1.4,0.3l0-0.1c-1.6-0.6-0.7,0.3-2.2-0.4l0.1,0.5
						c-0.1,1-1.4-0.6-2.3-0.2l0.3,0.3c-0.5,0.4-1.4-1.4-1.9-1.5c-0.1-0.1,0.2-0.1,0.3-0.2c-1.3-0.6-0.2,0.6-1.1,0.8
						c-0.2-0.3,0.2-0.9-0.4-0.9c-0.3-0.3-1.9,1.1-2.8,0.5c0.2,0.3,0.4,0.5-0.1,0.7c-0.7,0.1-1.9-1-2.5-0.2C70,82.5,70,82.4,70,82.4
						c-0.5,0.2-1.7,0.4-2,0.8c-0.5-1.7-3.3,0.8-3.3-0.7l-1.6,0.1l0-0.2c-1-0.1-1.4,0.3-1.8,0.6c-0.2-0.1-0.1-0.2,0-0.3
						c-1.5-0.3-1.7-0.2-2.9,0.5l-0.1-0.5c-0.3,0.3-2.2-0.8-3.7-0.2c0-0.1,0-0.2,0.2-0.2c-1.7,0.6-4-1.4-4.6,0.4l-1.1,0.4
						c1.4,0.1-0.2,0.8,0.4,1.1c-0.6,0.1-1.4-0.5-0.8-0.6l0.1,0.1c0.3-0.9-1.8-0.3-1.7-1c-2.8,0-5.5-0.5-8.2-0.5l0.3,0.7l-0.9,0
						c-0.2-0.2-0.3-0.6,0.3-0.5c-0.3-0.4-1.1,0.3-1.1,0.5C36.2,82.6,38,82,37.6,82L37.1,82l0.1,0.1c-0.4,0.3-0.5,0.6-1.3,0.6
						c-0.5-0.1-0.3-0.5-0.5-0.5c0-0.1-0.1-0.1-0.3,0L34,82.1l0.5,0.6c-0.5,0.3-1.1,0-0.6,0.6c-0.8-1-4.3-0.4-4.8-0.7
						c-0.7,0.4-1.4,0.4-2.3,0.4c0.2,0.1,0.3,0.8-0.4,0.7c0.3-1.3-1.4-0.6-2-1.5c0.5,0.6-2.1,0.2-1.3,1.1c-0.6-0.1,0-0.5-0.5-0.8
						c-1.5,0.5-3.3-0.3-5.2-0.2c0,0.2,0.3,0.4-0.1,0.7l-1-0.9c-0.4,0.1-0.3,1-1,0.4c0.1,0.1,0.2,0.4,0,0.4C11.8,82.1,8,83.6,4.3,82
						c0.5,0.3,0.2,0.4-0.2,0.4c0.2,0.1,0,0.4,0,0.7l-1.5-0.7c-0.3,0.7-1.7,0-1.8,0.7L1.2,83c-0.7,0.7,0.9,1.7,0.8,2.6
						c0.7-0.8,1.9,1.3,3.1,0c0.3,0.2-0.2,0.3-0.1,0.5c0.3-0.4,0.7-0.5,1.3-0.3L6.3,86c1.9-0.1,2.7,0.3,4.9,0.6l-0.2-0.5
						c0.5,0.1,0.6,0.2,0.8,0.3c0.5-0.7-1.3,0-0.8-0.8c0.6,1,3.2,0,3.7,1.1c0.7,0-0.2-0.5,0.5-0.5l0.2,0.3l0.2-0.4
						c0.5,0.1,0.7,0.4,0.7,0.7c-0.1,0-0.3,0.1-0.4,0.1c0.6,0.3,1.7-0.1,1.9,0L17,86.6c1.9-0.3,4.3,0.1,6.2-0.5L23,85.9
						c1.4-0.4,1.1,0.2,2.7,0.1L25.7,86c0.3-0.2,0.7-0.3,1.2-0.3c-0.4,0.3,0.7,0.5,0.2,0.8c1.5-0.4,0.8-0.3,1.8-1.2l0.2,0.4
						c0.3-0.3,0.4-0.5,1.2-0.6c-0.6,0.3,0.5,0.6-0.2,1c1.6,0.8,2.4-0.8,3.2,0.4c0.8-1-1.4-0.6-1-0.8c-0.4-0.3,0.6-0.8,1.1-0.7
						c0.5,0,0.9,1.3,2.2,1.3c-0.1,0-0.1,0.1-0.3,0.1c0.5,0.3,1-0.4,1.6,0.1c0.3-0.6,0.8,0,0.9-0.8l-1.2,0.2c0.7-0.2,1.3-1.1,2.5-0.7
						c-0.1,0.2-0.4,0.4-0.7,0.5c0.3,0.2,0.6-0.2,1,0.1c-0.1,0.8-1.5,0.2-2.2,0.8c0.4,0.3,1.4-0.6,1,0.3c0.5-1.1,1.3,0.1,2.2-0.7
						l-0.1,0.5c0.1-0.1,0.4-0.3,0.7-0.3l-0.5,0.6c0.7-0.5,1.4,0.5,2.1,0.2c-1.4,0-0.3-0.6-0.9-0.9c1.8-0.6,1,1.2,3,1
						c-0.3,0.1-1-0.3-0.6-0.5c0.4,0.1,0.9,0.3,1.1,0.5c1.3-0.1-0.2-0.5,0.4-0.8c0.5,0.6,0.7-0.2,1.2-0.4l0,0.5
						c1.5,0.3,0.4-1,1.8-0.6L48,86.5l0.7-0.2l-0.1,0.5c0.8-0.4,1-0.3,1.8-0.1c-0.2-0.3,0.1-0.9,0.8-0.9c0.5,0.3-0.3,0.5,0.7,0.4
						c-0.2,0.3-0.4,0.7-0.9,0.2c0,0.2-0.2,0.3-0.3,0.5c0.5,0.3,1.2,0.1,1.6,0.1c-0.1,0-0.3,0-0.4-0.1l1.4-0.7c0.2,0.2,0,0.3-0.1,0.5
						c0.3-0.1,0.5-0.3,0.9-0.3c-0.1,0.4-0.1,0.8-0.7,1l1.3-0.4c0.1,0.2,0.7,0.5,0.5,0.6c0.7,0.2,1.8-0.8,2.7-0.5
						c0.1-0.1,0.2-0.1,0.4-0.2c0.9,0.1,1.7,0.6,2.8,0l0.6,0.7c0.8-0.2-0.8-0.9,0.6-1.2c1-0.2,0.4,0.6,0.7,0.8
						c0.5-0.4,1.3-1.1,2.3-0.5C64.9,86.9,64.6,86.8,64.3,86.8z M74.7,86.5c-0.2,0.1-0.6,0.4-0.7,0.1C74.2,86.1,74.4,86.4,74.7,86.5z
						 M90.5,85.4c-0.1,0.2-0.4,0.1-0.6-0.1C90,85.2,90.2,85.2,90.5,85.4z M134.4,82C134.3,82,134.3,82,134.4,82
						C133.9,81.8,134,81.9,134.4,82z M135.3,82.2c0.1-0.1,0.1-0.1,0-0.2c-0.1,0.1-0.3,0.1-0.5,0.1C134.9,82.2,135,82.3,135.3,82.2z
						 M35.4,82.4l0.2,0.1C35.2,82.7,35.3,82.5,35.4,82.4z"/>
					<path fill="#FFFFFF" d="M88.7,86c-0.1-0.1-0.1-0.2-0.1-0.3C88.5,85.8,88.5,85.9,88.7,86z"/>
					<path fill="#FFFFFF" d="M57.9,87.1C57.9,87.1,57.9,87.1,57.9,87.1C57.9,87.1,57.8,87.1,57.9,87.1L57.9,87.1z"/>
					<path fill="#FFFFFF" d="M120.9,86.3c-0.2-0.1-0.3-0.2-0.4-0.2C120.5,86.2,120.6,86.3,120.9,86.3z"/>
					<path fill="#FFFFFF" d="M140.2,81.4l-0.6,0.1c0.3,0,0.4,0.1,0.5,0.2C140.1,81.6,140,81.4,140.2,81.4z"/>
					<path fill="#FFFFFF" d="M145.4,84.4c0.1-0.1,0.2,0,0.3-0.1l0-0.2C145.3,84.1,145,84.3,145.4,84.4z"/>
					<path fill="#FFFFFF" d="M140.8,83c0,0.4,0.4,0.3,0.8,0.2c0,0,0,0-0.1,0C141.7,82.6,141.2,82.8,140.8,83z"/>
					<path fill="#FFFFFF" d="M141.7,83.2c0.1,0,0.3,0,0.4,0C142.1,82.9,141.9,83.1,141.7,83.2z"/>
					<path fill="#FFFFFF" d="M136.5,81.9c0.2,0.1,0.1-0.5,0.2-0.4C136.9,81.1,135.4,82.2,136.5,81.9z"/>
					<polygon fill="#FFFFFF" points="141.1,84.3 141,83.8 140.7,84.2 					"/>
					<path fill="#FFFFFF" d="M137.8,84l0.7,0.1c0-0.1,0.1-0.1,0.2-0.2C138.2,83.9,137.8,83.8,137.8,84z"/>
					<path fill="#FFFFFF" d="M138.7,83.9c0.2,0,0.4,0,0.5-0.1C139.1,83.9,138.8,83.9,138.7,83.9z"/>
					<polygon fill="#FFFFFF" points="140.2,84.5 140,84.4 139.5,84.3 					"/>
					<path fill="#FFFFFF" d="M130.6,83.9l-0.7,0.1c-0.1,0.2,0.1,0.3,0.4,0.2C130.5,84.1,130.7,84,130.6,83.9z"/>
					<path fill="#FFFFFF" d="M132.8,85.2c-0.2-0.1-0.2-0.2-0.3-0.4l0,0.6L132.8,85.2z"/>
					<path fill="#FFFFFF" d="M130.7,85.4c-0.1,0.2-1.1,0.5-0.1,0.5C130.7,85.7,131.4,85.5,130.7,85.4z"/>
					<polygon fill="#FFFFFF" points="119.7,84.6 119.9,84.6 119.9,83.6 					"/>
					<path fill="#FFFFFF" d="M110.1,87c0.9,0.2,0.2-0.6,1-0.3c0.2-0.2-0.6-0.2-0.4-0.5C110.1,86.5,109.8,86.4,110.1,87z"/>
					<path fill="#FFFFFF" d="M110.6,86.3c0.1,0,0.2-0.1,0.3-0.2C110.8,86.2,110.7,86.2,110.6,86.3z"/>
					<polygon fill="#FFFFFF" points="1.5,81.9 1,81.7 1.3,82 					"/>
					<path fill="#FFFFFF" d="M0.5,82.6L0.3,82L0,82.6C0.1,82.5,0.4,82.5,0.5,82.6z"/>
					<path fill="#FFFFFF" d="M76.3,87.8l0-0.2c-0.1-0.2-0.2-0.2-0.5-0.2L76.3,87.8z"/>
					<polygon fill="#FFFFFF" points="68.7,87.3 68.9,87.4 68.6,86.8 					"/>
					<path fill="#FFFFFF" d="M62.4,88.1c0.3,0,0.6-0.1,0.8-0.1C62.7,88.1,62.3,87.4,62.4,88.1z"/>
				</g>
			</g>
		</g>
	</g>
</g>
</svg>
