<?xml version="1.0" encoding="utf-8"?>
<!-- Generator: Adobe Illustrator 18.1.1, SVG Export Plug-In . SVG Version: 6.00 Build 0)  -->
<!DOCTYPE svg PUBLIC "-//W3C//DTD SVG 1.1//EN" "http://www.w3.org/Graphics/SVG/1.1/DTD/svg11.dtd" [
	<!ENTITY ns_extend "http://ns.adobe.com/Extensibility/1.0/">
	<!ENTITY ns_ai "http://ns.adobe.com/AdobeIllustrator/10.0/">
	<!ENTITY ns_graphs "http://ns.adobe.com/Graphs/1.0/">
	<!ENTITY ns_vars "http://ns.adobe.com/Variables/1.0/">
	<!ENTITY ns_imrep "http://ns.adobe.com/ImageReplacement/1.0/">
	<!ENTITY ns_sfw "http://ns.adobe.com/SaveForWeb/1.0/">
	<!ENTITY ns_custom "http://ns.adobe.com/GenericCustomNamespace/1.0/">
	<!ENTITY ns_adobe_xpath "http://ns.adobe.com/XPath/1.0/">
]>
<svg version="1.1" id="Ebene_1" xmlns:x="&ns_extend;" xmlns:i="&ns_ai;" xmlns:graph="&ns_graphs;"
	 xmlns="http://www.w3.org/2000/svg" xmlns:xlink="http://www.w3.org/1999/xlink" x="0px" y="0px"
	 viewBox="0 0 255.8 255.8" enable-background="new 0 0 255.8 255.8" xml:space="preserve">
<metadata>
	<sfw  xmlns="&ns_sfw;">
		<slices></slices>
		<sliceSourceBounds  height="256.8" width="256.8" bottomLeftOrigin="true" y="-341.9" x="50.5"></sliceSourceBounds>
	</sfw>
</metadata>
<g opacity="0.5">
	<rect x="0" y="0" opacity="0.5" fill="none" stroke="#FFFFFF" stroke-miterlimit="10" width="28.4" height="28.4"/>
	<rect x="28.4" y="0" opacity="0.5" fill="none" stroke="#FFFFFF" stroke-miterlimit="10" width="28.4" height="28.4"/>
	<rect x="56.8" y="0" opacity="0.5" fill="none" stroke="#FFFFFF" stroke-miterlimit="10" width="28.4" height="28.4"/>
	<rect x="85.3" y="0" opacity="0.5" fill="none" stroke="#FFFFFF" stroke-miterlimit="10" width="28.4" height="28.4"/>
	<rect x="113.7" y="0" opacity="0.5" fill="none" stroke="#FFFFFF" stroke-miterlimit="10" width="28.4" height="28.4"/>
	<rect x="142.1" y="0" opacity="0.5" fill="none" stroke="#FFFFFF" stroke-miterlimit="10" width="28.4" height="28.4"/>
	<rect x="170.5" y="0" opacity="0.5" fill="none" stroke="#FFFFFF" stroke-miterlimit="10" width="28.4" height="28.4"/>
	<rect x="198.9" y="0" opacity="0.5" fill="none" stroke="#FFFFFF" stroke-miterlimit="10" width="28.4" height="28.4"/>
	<rect x="227.4" y="0" opacity="0.5" fill="none" stroke="#FFFFFF" stroke-miterlimit="10" width="28.4" height="28.4"/>
	<rect x="0" y="28.4" opacity="0.5" fill="none" stroke="#FFFFFF" stroke-miterlimit="10" width="28.4" height="28.4"/>
	<rect x="28.4" y="28.4" opacity="0.5" fill="none" stroke="#FFFFFF" stroke-miterlimit="10" width="28.4" height="28.4"/>
	<rect x="56.8" y="28.4" opacity="0.5" fill="none" stroke="#FFFFFF" stroke-miterlimit="10" width="28.4" height="28.4"/>
	<rect x="85.3" y="28.4" opacity="0.5" fill="none" stroke="#FFFFFF" stroke-miterlimit="10" width="28.4" height="28.4"/>
	<rect x="113.7" y="28.4" opacity="0.5" fill="none" stroke="#FFFFFF" stroke-miterlimit="10" width="28.4" height="28.4"/>
	<rect x="142.1" y="28.4" opacity="0.5" fill="none" stroke="#FFFFFF" stroke-miterlimit="10" width="28.4" height="28.4"/>
	<rect x="170.5" y="28.4" opacity="0.5" fill="none" stroke="#FFFFFF" stroke-miterlimit="10" width="28.4" height="28.4"/>
	<rect x="198.9" y="28.4" opacity="0.5" fill="none" stroke="#FFFFFF" stroke-miterlimit="10" width="28.4" height="28.4"/>
	<rect x="227.4" y="28.4" opacity="0.5" fill="none" stroke="#FFFFFF" stroke-miterlimit="10" width="28.4" height="28.4"/>
	<rect x="0" y="56.8" opacity="0.5" fill="none" stroke="#FFFFFF" stroke-miterlimit="10" width="28.4" height="28.4"/>
	<rect x="28.4" y="56.8" opacity="0.5" fill="none" stroke="#FFFFFF" stroke-miterlimit="10" width="28.4" height="28.4"/>
	<rect x="56.8" y="56.8" opacity="0.5" fill="none" stroke="#FFFFFF" stroke-miterlimit="10" width="28.4" height="28.4"/>
	<rect x="85.3" y="56.8" opacity="0.5" fill="none" stroke="#FFFFFF" stroke-miterlimit="10" width="28.4" height="28.4"/>
	<rect x="113.7" y="56.8" opacity="0.5" fill="none" stroke="#FFFFFF" stroke-miterlimit="10" width="28.4" height="28.4"/>
	<rect x="142.1" y="56.8" opacity="0.5" fill="none" stroke="#FFFFFF" stroke-miterlimit="10" width="28.4" height="28.4"/>
	<rect x="170.5" y="56.8" opacity="0.5" fill="none" stroke="#FFFFFF" stroke-miterlimit="10" width="28.4" height="28.4"/>
	<rect x="198.9" y="56.8" opacity="0.5" fill="none" stroke="#FFFFFF" stroke-miterlimit="10" width="28.4" height="28.4"/>
	<rect x="227.4" y="56.8" opacity="0.5" fill="none" stroke="#FFFFFF" stroke-miterlimit="10" width="28.4" height="28.4"/>
	<rect x="0" y="85.3" opacity="0.5" fill="none" stroke="#FFFFFF" stroke-miterlimit="10" width="28.4" height="28.4"/>
	<rect x="28.4" y="85.3" opacity="0.5" fill="none" stroke="#FFFFFF" stroke-miterlimit="10" width="28.4" height="28.4"/>
	<rect x="56.8" y="85.3" opacity="0.5" fill="none" stroke="#FFFFFF" stroke-miterlimit="10" width="28.4" height="28.4"/>
	<rect x="85.3" y="85.3" opacity="0.5" fill="none" stroke="#FFFFFF" stroke-miterlimit="10" width="28.4" height="28.4"/>
	<rect x="113.7" y="85.3" opacity="0.5" fill="none" stroke="#FFFFFF" stroke-miterlimit="10" width="28.4" height="28.4"/>
	<rect x="142.1" y="85.3" opacity="0.5" fill="none" stroke="#FFFFFF" stroke-miterlimit="10" width="28.4" height="28.4"/>
	<rect x="170.5" y="85.3" opacity="0.5" fill="none" stroke="#FFFFFF" stroke-miterlimit="10" width="28.4" height="28.4"/>
	<rect x="198.9" y="85.3" opacity="0.5" fill="none" stroke="#FFFFFF" stroke-miterlimit="10" width="28.4" height="28.4"/>
	<rect x="227.4" y="85.3" opacity="0.5" fill="none" stroke="#FFFFFF" stroke-miterlimit="10" width="28.4" height="28.4"/>
	<rect x="0" y="113.7" opacity="0.5" fill="none" stroke="#FFFFFF" stroke-miterlimit="10" width="28.4" height="28.4"/>
	<rect x="28.4" y="113.7" opacity="0.5" fill="none" stroke="#FFFFFF" stroke-miterlimit="10" width="28.4" height="28.4"/>
	<rect x="56.8" y="113.7" opacity="0.5" fill="none" stroke="#FFFFFF" stroke-miterlimit="10" width="28.4" height="28.4"/>
	<rect x="85.3" y="113.7" opacity="0.5" fill="none" stroke="#FFFFFF" stroke-miterlimit="10" width="28.4" height="28.4"/>
	<rect x="113.7" y="113.7" opacity="0.5" fill="none" stroke="#FFFFFF" stroke-miterlimit="10" width="28.4" height="28.4"/>
	<rect x="142.1" y="113.7" opacity="0.5" fill="none" stroke="#FFFFFF" stroke-miterlimit="10" width="28.4" height="28.4"/>
	<rect x="170.5" y="113.7" opacity="0.5" fill="none" stroke="#FFFFFF" stroke-miterlimit="10" width="28.4" height="28.4"/>
	<rect x="198.9" y="113.7" opacity="0.5" fill="none" stroke="#FFFFFF" stroke-miterlimit="10" width="28.4" height="28.4"/>
	<rect x="227.4" y="113.7" opacity="0.5" fill="none" stroke="#FFFFFF" stroke-miterlimit="10" width="28.4" height="28.4"/>
	<rect x="0" y="142.1" opacity="0.5" fill="none" stroke="#FFFFFF" stroke-miterlimit="10" width="28.4" height="28.4"/>
	<rect x="28.4" y="142.1" opacity="0.5" fill="none" stroke="#FFFFFF" stroke-miterlimit="10" width="28.4" height="28.4"/>
	<rect x="56.8" y="142.1" opacity="0.5" fill="none" stroke="#FFFFFF" stroke-miterlimit="10" width="28.4" height="28.4"/>
	<rect x="85.3" y="142.1" opacity="0.5" fill="none" stroke="#FFFFFF" stroke-miterlimit="10" width="28.4" height="28.4"/>
	<rect x="113.7" y="142.1" opacity="0.5" fill="none" stroke="#FFFFFF" stroke-miterlimit="10" width="28.4" height="28.4"/>
	<rect x="142.1" y="142.1" opacity="0.5" fill="none" stroke="#FFFFFF" stroke-miterlimit="10" width="28.4" height="28.4"/>
	<rect x="170.5" y="142.1" opacity="0.5" fill="none" stroke="#FFFFFF" stroke-miterlimit="10" width="28.4" height="28.4"/>
	<rect x="198.9" y="142.1" opacity="0.5" fill="none" stroke="#FFFFFF" stroke-miterlimit="10" width="28.4" height="28.4"/>
	<rect x="227.4" y="142.1" opacity="0.5" fill="none" stroke="#FFFFFF" stroke-miterlimit="10" width="28.4" height="28.4"/>
	<rect x="0" y="170.5" opacity="0.5" fill="none" stroke="#FFFFFF" stroke-miterlimit="10" width="28.4" height="28.4"/>
	<rect x="28.4" y="170.5" opacity="0.5" fill="none" stroke="#FFFFFF" stroke-miterlimit="10" width="28.4" height="28.4"/>
	<rect x="56.8" y="170.5" opacity="0.5" fill="none" stroke="#FFFFFF" stroke-miterlimit="10" width="28.4" height="28.4"/>
	<rect x="85.3" y="170.5" opacity="0.5" fill="none" stroke="#FFFFFF" stroke-miterlimit="10" width="28.4" height="28.4"/>
	<rect x="113.7" y="170.5" opacity="0.5" fill="none" stroke="#FFFFFF" stroke-miterlimit="10" width="28.4" height="28.4"/>
	<rect x="142.1" y="170.5" opacity="0.5" fill="none" stroke="#FFFFFF" stroke-miterlimit="10" width="28.4" height="28.4"/>
	<rect x="170.5" y="170.5" opacity="0.5" fill="none" stroke="#FFFFFF" stroke-miterlimit="10" width="28.4" height="28.4"/>
	<rect x="198.9" y="170.5" opacity="0.5" fill="none" stroke="#FFFFFF" stroke-miterlimit="10" width="28.4" height="28.4"/>
	<rect x="227.4" y="170.5" opacity="0.5" fill="none" stroke="#FFFFFF" stroke-miterlimit="10" width="28.4" height="28.4"/>
	<rect x="0" y="198.9" opacity="0.5" fill="none" stroke="#FFFFFF" stroke-miterlimit="10" width="28.4" height="28.4"/>
	<rect x="28.4" y="198.9" opacity="0.5" fill="none" stroke="#FFFFFF" stroke-miterlimit="10" width="28.4" height="28.4"/>
	<rect x="56.8" y="198.9" opacity="0.5" fill="none" stroke="#FFFFFF" stroke-miterlimit="10" width="28.4" height="28.4"/>
	<rect x="85.3" y="198.9" opacity="0.5" fill="none" stroke="#FFFFFF" stroke-miterlimit="10" width="28.4" height="28.4"/>
	<rect x="113.7" y="198.9" opacity="0.5" fill="none" stroke="#FFFFFF" stroke-miterlimit="10" width="28.4" height="28.4"/>
	<rect x="142.1" y="198.9" opacity="0.5" fill="none" stroke="#FFFFFF" stroke-miterlimit="10" width="28.4" height="28.4"/>
	<rect x="170.5" y="198.9" opacity="0.5" fill="none" stroke="#FFFFFF" stroke-miterlimit="10" width="28.4" height="28.4"/>
	<rect x="198.9" y="198.9" opacity="0.5" fill="none" stroke="#FFFFFF" stroke-miterlimit="10" width="28.4" height="28.4"/>
	<rect x="227.4" y="198.9" opacity="0.5" fill="none" stroke="#FFFFFF" stroke-miterlimit="10" width="28.4" height="28.4"/>
	<rect x="0" y="227.4" opacity="0.5" fill="none" stroke="#FFFFFF" stroke-miterlimit="10" width="28.4" height="28.4"/>
	<rect x="28.4" y="227.4" opacity="0.5" fill="none" stroke="#FFFFFF" stroke-miterlimit="10" width="28.4" height="28.4"/>
	<rect x="56.8" y="227.4" opacity="0.5" fill="none" stroke="#FFFFFF" stroke-miterlimit="10" width="28.4" height="28.4"/>
	<rect x="85.3" y="227.4" opacity="0.5" fill="none" stroke="#FFFFFF" stroke-miterlimit="10" width="28.4" height="28.4"/>
	<rect x="113.7" y="227.4" opacity="0.5" fill="none" stroke="#FFFFFF" stroke-miterlimit="10" width="28.4" height="28.4"/>
	<rect x="142.1" y="227.4" opacity="0.5" fill="none" stroke="#FFFFFF" stroke-miterlimit="10" width="28.4" height="28.4"/>
	<rect x="170.5" y="227.4" opacity="0.5" fill="none" stroke="#FFFFFF" stroke-miterlimit="10" width="28.4" height="28.4"/>
	<rect x="198.9" y="227.4" opacity="0.5" fill="none" stroke="#FFFFFF" stroke-miterlimit="10" width="28.4" height="28.4"/>
	<rect x="227.4" y="227.4" opacity="0.5" fill="none" stroke="#FFFFFF" stroke-miterlimit="10" width="28.4" height="28.4"/>
</g>
</svg>
