<?xml version="1.0" encoding="utf-8"?>
<!-- Generator: Adobe Illustrator 18.1.1, SVG Export Plug-In . SVG Version: 6.00 Build 0)  -->
<!DOCTYPE svg PUBLIC "-//W3C//DTD SVG 1.1//EN" "http://www.w3.org/Graphics/SVG/1.1/DTD/svg11.dtd">
<svg version="1.1" id="Ebene_1" xmlns="http://www.w3.org/2000/svg" xmlns:xlink="http://www.w3.org/1999/xlink" x="0px" y="0px"
	 width="294.2px" height="229.1px" viewBox="28.9 304.5 294.2 229.1" enable-background="new 28.9 304.5 294.2 229.1"
	 xml:space="preserve">
<path fill="#FFFFFF" d="M193.9,325.5c0.1,31.2,0.1,62.4,0.1,93.6c0,29.7,0,59.4,0,89.1c0,3.4,0,6.8-0.2,10.1
	c-0.4,5.8-1.6,11.2-7.6,14.1c-6.3,3.1-10.9-0.5-15.2-4.2c-19.7-16.9-39.5-33.6-58.8-50.9c-5.5-4.9-11-7-18.2-6.9
	c-15.8,0.4-31.6,0.2-47.4,0c-12.7-0.1-17.4-4.4-17.5-16.7c-0.3-23.3-0.3-46.6,0-69.9c0.2-13.1,4.6-17.4,17.9-17.7
	c16.2-0.3,32.3-0.3,48.5,0c7.2,0.1,12.8-2,18.3-6.9c17.3-15.6,35.1-30.7,52.8-45.8c5.6-4.7,10.8-11.7,19.6-7.7
	C194.6,309.7,193.8,318,193.9,325.5z"/>
</svg>
