<?xml version="1.0" encoding="utf-8"?>
<!-- Generator: Adobe Illustrator 18.1.1, SVG Export Plug-In . SVG Version: 6.00 Build 0)  -->
<!DOCTYPE svg PUBLIC "-//W3C//DTD SVG 1.1//EN" "http://www.w3.org/Graphics/SVG/1.1/DTD/svg11.dtd" [
	<!ENTITY ns_extend "http://ns.adobe.com/Extensibility/1.0/">
	<!ENTITY ns_ai "http://ns.adobe.com/AdobeIllustrator/10.0/">
	<!ENTITY ns_graphs "http://ns.adobe.com/Graphs/1.0/">
	<!ENTITY ns_vars "http://ns.adobe.com/Variables/1.0/">
	<!ENTITY ns_imrep "http://ns.adobe.com/ImageReplacement/1.0/">
	<!ENTITY ns_sfw "http://ns.adobe.com/SaveForWeb/1.0/">
	<!ENTITY ns_custom "http://ns.adobe.com/GenericCustomNamespace/1.0/">
	<!ENTITY ns_adobe_xpath "http://ns.adobe.com/XPath/1.0/">
]>
<svg version="1.1" id="Ebene_1" xmlns:x="&ns_extend;" xmlns:i="&ns_ai;" xmlns:graph="&ns_graphs;"
	 xmlns="http://www.w3.org/2000/svg" xmlns:xlink="http://www.w3.org/1999/xlink" x="0px" y="0px" width="294.2px" height="229.1px"
	 viewBox="130.9 167.6 294.2 229.1" enable-background="new 130.9 167.6 294.2 229.1" xml:space="preserve">
<metadata>
	<sfw  xmlns="&ns_sfw;">
		<slices></slices>
		<sliceSourceBounds  height="229.1" width="294.2" x="130.9" y="445.2" bottomLeftOrigin="true"></sliceSourceBounds>
	</sfw>
</metadata>
<path fill="#FFFFFF" d="M295.9,188.6c0.1,31.2,0.1,62.4,0.1,93.6c0,29.7,0,59.4,0,89.1c0,3.4,0,6.8-0.2,10.1
	c-0.4,5.8-1.6,11.2-7.6,14.1c-6.3,3.1-10.9-0.5-15.2-4.2c-19.7-16.9-39.5-33.6-58.8-50.9c-5.5-4.9-11-7-18.2-6.9
	c-15.8,0.4-31.6,0.2-47.4,0c-12.7-0.1-17.4-4.4-17.5-16.7c-0.3-23.3-0.3-46.6,0-69.9c0.2-13.1,4.6-17.4,17.9-17.7
	c16.2-0.3,32.3-0.3,48.5,0c7.2,0.1,12.8-2,18.3-6.9c17.3-15.6,35.1-30.7,52.8-45.8c5.6-4.7,10.8-11.7,19.6-7.7
	C296.6,172.8,295.8,181.1,295.9,188.6z M398.2,189.7c-3.6-5.7-7.5-11.3-11.8-16.4c-4-4.8-9.3-6.6-15-2.6c-5.8,4.1-6.8,9.6-3.2,15.8
	c1.1,1.9,2.5,3.8,3.7,5.6c40.2,58.9,40,123.7-0.7,181.9c-4.7,6.8-8.1,13.6,0.1,19.6c8.2,6,13.9,0.8,18.7-5.8
	c22.7-31,34.2-65.7,35.1-100.3C425.3,251.3,415.9,218.3,398.2,189.7z M361.3,203.5c-4.2-6.1-9.5-10.5-17-5.5s-6.6,11.5-2.1,18.6
	c27.9,43.7,28.4,87.5,0.3,131.4c-4.5,7-5.6,13.6,1.9,18.7c8.1,5.4,13.2,0,17.6-6.3c16.3-23.2,23.5-49.3,24.5-77.4
	C385.8,254,377.8,227.4,361.3,203.5z M344.7,275.3c-0.1-12.2-4.8-27.1-12.8-41.1c-3.8-6.7-9.2-10.7-16.7-6.8
	c-7.4,3.9-7.6,10.5-3.8,17.4c13.4,24.7,13.5,49.6,0.4,74.4c-3.9,7.4-4,14.2,4.2,18.2c7.8,3.8,12.9-0.8,16.5-7.3
	C341.2,314.3,345.8,297.5,344.7,275.3z"/>
</svg>
