<?xml version="1.0" encoding="utf-8"?>
<!-- Generator: Adobe Illustrator 18.1.1, SVG Export Plug-In . SVG Version: 6.00 Build 0)  -->
<!DOCTYPE svg PUBLIC "-//W3C//DTD SVG 1.1//EN" "http://www.w3.org/Graphics/SVG/1.1/DTD/svg11.dtd">
<svg version="1.1" id="Ebene_1" xmlns="http://www.w3.org/2000/svg" xmlns:xlink="http://www.w3.org/1999/xlink" x="0px" y="0px"
	 width="231.4px" height="64.5px" viewBox="0 0 231.4 64.5" enable-background="new 0 0 231.4 64.5" xml:space="preserve">
<g>
	<path fill="#5F3F00" d="M87.6,54.3l-9.3-2.9l-4.8-6l-2.7-7.1l6.9-15.8l1-0.4l0.9,1.2l-0.4,0.7l-5.5,13.3l3.4,8l2.3-6.9l0.5-8.2
		l1.5-3.7l3.3-3l1.6-1.4l0.8-0.7l0.2-0.2l0.5-0.3l0.8,0.3l4.9,1.5l1.9-0.5l0.8-0.4l0.7-0.2l0.6,0.7l-1.2,2.7l-0.9,0.8L95,26.6
		l-1.2,1.3l-0.7,1.7l-0.2,0.6v0.1l3.1,0.2l0.6,0l0.1-0.1l0.5-1.4l0.8-0.4l1,0.9l-2.6,4.1l-2,1.2l-4.4,0l0,14.6l7.3-4.2l1.4-0.6
		l0.4,0l0.8,1.2L87.6,54.3z M90.7,26.7l-2.2-0.9l-2.2-0.7l-0.8,0.2l-1.2,2.1l-0.2,1.1L83,36.3l-2.7,8.1l-1.5,2.5l2.1,1.3l4.4-10
		l0.9-2.8l1.1-2.7l2.6-3.6L90.7,26.7L90.7,26.7z M89,34.7l-0.4,0L87.2,39l-4.4,10.1l4.4,0.6h0.3l1.6-0.1L89,34.7z"/>
	<path fill="#5F3F00" d="M115.4,49.1l-4.9,3.2l-0.8,0.5l-0.6,0.2l-1.6-0.6l-3.5-1.3l-0.9-0.1l-0.8-0.9l0.5-1l0.6-3l0.3-12.6l0.5-1.1
		l3.5-1.9l0.6-0.4l0.8-0.3l0.9,0.4l4.9,4.5l0.9,1.7l-0.8,1.7l-1.4,1.7l-0.5,0.6l-0.7,0.8l-1,0.8l-0.1,0l-0.3,0l-3.2,1.6l0,2.3l0,0.9
		l0.6,1.4l2.3,0.9l0.5-0.1l2.6-1.7l1-0.4l1,1.1L115.4,49.1z M111.6,38l-0.1-0.3l-1.2-1.2l-1.4-1.4l-0.4-0.2l-0.6,1.3l0,5.4l2.5-1.8
		l1-0.8l0.1-0.1l0.2-0.5L111.6,38z"/>
	<path fill="#5F3F00" d="M138.5,49.6l-2.7,1.9l-1,0.3l-2.8-1.4l0-14.9l-0.9-0.8l-0.7,0.2l-3.2,1.5l-0.5,0.8l0,9.6l0.5,1.6l0.6,1.1
		l-0.4,0.9l-2,1.3l-0.7,0.3l-0.8-0.3l-1.8-1.3l-0.5-0.9l0.4-0.9l0.3-0.3l0.5-1.6l0-8l-0.7-3.1l-0.5-0.4l-0.6,0.2l-0.7,0.3l-0.6-0.3
		l-0.3-0.6l0.5-0.8l3.1-2.7L124,31l1.5,1.2l1.3,1.8l4.4-2.7l1-0.4l0.8,0.3l0.8,0.5l1.4,0.7l1.6,1.1l-0.2,0.8l-0.3,0.8l-0.4,1.7
		l0,9.1l0.8,2.3l1.1-0.4l0.2-0.1l1,1.1L138.5,49.6z"/>
	<path fill="#5F3F00" d="M158.7,34.2l0,12.8l-1,1.6l-3.5,2.1l-2.4,1.7l-0.2,0.2l-0.8,0.4l-1.1-0.7l-5-2.3l-0.6-0.1l-0.5-0.1
		l-0.7-0.8l0.6-1.1l0.4-1.4l0-10.8l0-0.6l3.2-2.2l3.7-0.6l0.8-0.2l-6.4-7l-0.4-0.3l-0.3-0.3l-0.3-1v-0.4l0-0.1l0-0.1l0.2-0.9
		l2.3-2.4l-0.1,1.7l8.9,8.5l3.2,3.8L158.7,34.2z M154.1,39.2l-0.2-4.7l-0.2-0.3l-2.2,0.3l-1.1,0.6l-1.4,0.4l-0.6,0.9l-1.2,9.4l1.2,2
		l4.4,0.8h0.4l0.9-0.9L154.1,39.2z"/>
	<path fill="#5F3F00" d="M174.1,35.4l-0.8,1.1l-0.8,1.2l-0.8,0.5l-0.9-0.9l-0.4-0.6l-0.3-0.4L170,36l-0.4-0.3l-0.4,0.4l0,11.5
		l1.3,1.3l0.4-0.2l1.4-1.4l0.7-0.3l0.9,1l-0.4,0.8l-3.4,3.1l-0.2,0.1l-0.6,0.3l-0.5-0.2l-0.3-0.2l-3.3-1.9l-0.5-0.3l-0.4-0.7
		l0.6-0.8l0.1-0.1l0.7-2.1l0-9.7l-0.4-1.6l-0.3-0.2h-0.3H164l-0.9-0.9l0,0.3l0-0.3l0.4-0.7l0.8-0.7l1-0.8l0.9-0.4l0.8,0.4l0.1,0.1
		l1.6,1.9l0.1,0.2l0.2,0.1l0.3-0.3l0.8-1.2l1.4-1.3l0.7,0.4l0.7,0.9l1.1,1.5l0.5,1L174.1,35.4z"/>
	<path fill="#5F3F00" d="M196.5,50.2l-1.7,1.2l-2,1.3l-0.8,0.3l-0.9-0.4l-2.8-2.9l-4,3l-0.8,0.3l-0.9-0.3l-3.9-3l-0.5-1l0.4-0.9
		l0.3-0.3l0.6-1.7l0-3l-0.1-0.9l-0.2-1v-0.4l0.8-1.4l1.9-0.8l-0.1,0.1l3.6-1l3,0.1v-0.7l0.1-1.3l0.1-0.4l0-0.2l-0.7-0.4l-2.7-1
		l-2.6-0.7l-2,3.2l-1.1,1l-1-1l2-4.6l1.9-0.5l2-0.3l1.3-0.2l2.2,0.3l2.2,0.4l2.4-0.6l0.6-0.2h0.1l1,1.1l-0.5,1.1l-0.9,2.6l0,11.7
		l0.9,2.1l0.4,0l0.8-0.3l0.8-0.4l1.3,1.2L196.5,50.2z M188.2,39.4l-3,0l-1.7,2.6l0,5.4l0.5,0.8l0.8,0.6l0.2,0.1l0.3-0.1l2.4-1.3
		l0.6-0.9L188.2,39.4z"/>
	<path fill="#5F3F00" d="M217.7,57.3l-4.4,2.7l-2.1,0.6l-3-0.9l-3.6-0.8l-2,0.4l-1.6,0.5l-0.8,0.3l-0.6-0.2l-0.4-0.6l0.2-0.5
		l0.1-0.1l0-0.1l1.2-2.4l0.1-0.3l1.2-1l0.5,0.1l1.5,0.5l1.9,0.3l3.5,0l2.4,0.8l0.7,0.3l1-1l-0.2-0.7l-0.7-2.6l-0.4-0.4l-2.2-0.5
		l-1.4,0.3l-6.2,0.2l-2.5-4.9v-0.1v-0.4l0-11.9l2-2.3l4.8-2l0.2-0.1l1.2-0.4l0.9,0.4l5.7,1.8h0.4l1.5-0.2l0.6-0.1l0.9,1.3l-0.2,1.9
		l-0.8,1.4l-0.4-0.1l-0.1,0l-2.2-0.7l-0.4,1.3l0,12.6l0.4,1l3,4h0.1l0.7,1L217.7,57.3z M210.2,36.5l-0.8-1.8l-2.7-0.6l-0.5-0.1
		l-0.3-0.1l-1,1L204.4,47l0.2,0.4l0.5,0.7l0.8,1.1l4.3,0.7l1.3-0.6L210.2,36.5z"/>
	<path fill="#5F3F00" d="M231.1,48.4l-3.6,3.3l-0.7,0.3l-0.4-0.1l-0.2-0.1l-2.3-1.6l-0.5-1l0.4-0.8l0.3-0.3l0.5-1.6l0-11.7l-0.8-1.7
		l-0.4-0.2l-0.3,0l-1-0.7l0.3-0.8l2.2-0.8l1.6-4.2l0.1-0.3l0.5-0.5l0.6,0.2l0.4,1.4l-0.1,1.9l0.2,1.1l0.3,0.6l0.5,0.1l1.2,0l0.9,0.8
		v0.1v0.1l-1.1,1.1l-0.6,0.2l-0.7,0.5l-0.3,1.2l0.3,11.7l0,1.2l1.3-0.7l0.8-0.3h0.1l0.7,0.5l0,0.2l0,0.2L231.1,48.4z"/>
	<g>
		<path fill="#5F3F00" d="M59.4,29.4c-1.4,4.6-4.9,6.7-9.5,5.7c-0.5-0.1-0.9-0.5-1.3-0.8c-3.7-3.6-8.2-4.2-13.1-3.3
			c-4.6,0.9-8.7,2.9-12.7,5.1c-0.8,0.4-1.6,0.9-2.7,1.1c1.1-1.5,2.3-3.1,3.4-4.6c2-3,3.7-6.1,4.4-9.6c0.5-2.4,0.1-4.6-1-6.8
			c0-0.1-0.1-0.1-0.1-0.2c-0.7-1-1.4-2-2.4-3.5c4.3,1.3,8.1,2.5,12,3.8c6,1.9,11.9,3.9,17.9,5.8C59.5,23.8,59.7,24.1,59.4,29.4
			L59.4,29.4z"/>
		<path fill="#5F3F00" d="M44.2,37.2c2-0.5,4.1-0.9,6.1-1.4c0.8-0.2,1.8-0.6,2.5-0.4c5.3,1.3,8.5-1.9,11.9-5c1.5-1.4,3.2-2.6,5-3.8
			c-2.3,2.3-4.5,4.7-6.9,6.9c-2.1,1.9-2.6,4.1-1.8,6.8c2,7.2-0.1,11.8-6.5,15.4c-1.2,0.7-2,0.9-3.1-0.4c-2.8-3.2-6.6-4-10.7-3.7
			c-5.1,0.5-10,2.1-15,3.3c-0.9,0.2-2.1,1.1-3.2-0.7c6.1-1.3,12.1-2.6,18.1-3.7c5.3-1,10.6-2,16-1.3c0.4,0.1,1,0.2,1.1-0.3
			c0.2-0.6-0.3-0.9-0.8-1.1c-1.1-0.5-2.4-0.6-3.6-0.6c-6.9-0.1-13.6,1.5-20.3,2.9c-3.4,0.7-6.8,1.5-10.2,2.3
			c-1.3,0.3-2.4,0.2-3.4-1.1c-1.5-2-3.6-3.6-5.1-5.5c-2-2.5-1.4-3.4,1.5-4.3c3.4-1.1,6,0.7,8.5,2.2c1.6,1,0.3,3.2,0.3,4.7
			c0,0.9-1.6,0.4-2.5,0.2c-2.4-0.6-3.6-2.3-4.2-4.5c-0.4,2.2,0.6,3.8,2.6,4.7c4.7,2.1,13.9-1,15.3-4.8c0,0-0.2,0.1-0.2,0.1
			c0.6-0.4,1.5-0.6,1.8-1.3c1.1-3.1,3.7-4.5,6.5-5.7C44.1,37.2,44.2,37.2,44.2,37.2L44.2,37.2z M58.9,45.8c-3.2-2.3-25,1.1-29.8,4.6
			C39,48.3,48.7,46.3,58.9,45.8z M59.6,43.3c-8-2.3-15.3,1-22.7,3.3C44.4,45.2,51.9,43.3,59.6,43.3z M41.6,43.5
			c5.9-1.2,11.8-2.3,17.9-2.4C53.1,38.8,47.4,41.7,41.6,43.5z M43,41.4c5-1.1,10-2.4,15.2-2.4C52.7,36.8,47.9,39.6,43,41.4z
			 M44.2,39.2c4.2-1,8.5-2.3,13-2.1C52.5,35.3,48.4,37.4,44.2,39.2z"/>
		<path fill="#5F3F00" d="M59.4,29.5c1.9-6.3,2.3-12.6-0.2-18.8c-1.4-3.4-3.4-4.7-9.1-7C56,2.3,63.9,4.1,66.9,7.7
			c4.5,5.4,3.2,11.5,1.9,17.6c-3.4-1.7-4.7-1.3-6.9,1.8c-0.6,0.9-1,2.1-1.7,2.9C59.1,31,60,29.2,59.4,29.5
			C59.4,29.4,59.4,29.5,59.4,29.5z"/>
		<path fill="#5F3F00" d="M30.4,11.1c5.1-1.9,6.5-6.2,3.5-11.1c6.5,2.2,12.7,4.4,18.5,7.5c4.8,2.6,5.3,9.5,0.8,12.4
			c0.4-4.8-2.7-6.7-6.4-7.8c-4.6-1.5-9.4-1.5-14.1-0.7C32,11.5,31,12.4,30.4,11.1L30.4,11.1z"/>
		<path fill="#5F3F00" d="M11.4,42.5c9-11.3,9.9-15.6,4.9-23.3c3.4,1.1,6.5,2.1,9.6,3.1c1.2,0.4,1.1,1,0.8,2
			C25,30.8,18.2,39,11.4,42.5z"/>
		<path fill="#5F3F00" d="M32.9,59.5c2,0.7,4.1,0.5,6.5,1.8c-5.6,0.2-10.9,1.8-14.1-4.3c1-0.5,2.1-0.4,3-0.1
			c2.1,0.6,3.8,0.4,5.5-1.1c1-0.9,2.5-0.6,3.7-0.1c2.1,0.8,4.1,0.7,6.1-0.1c1.4-0.5,2.3-0.3,3.6,0.7c2,1.6,4.9,2.1,6,4.9
			C46.5,61.4,39.9,57.4,32.9,59.5z"/>
		<path fill="#5F3F00" d="M27,61c-2.9-0.7-5-1.2-7.1-1.7c2.5,2.5,5.8,2.8,8.8,3.9c-2.1,0.4-4.1-0.1-6-0.8c-3.6-1.3-7.1-1.2-10.7-0.3
			c-3,0.8-6,0.8-9,0.3c-1.1-0.2-1.9-0.7-3-1.6c5.7,1.4,10.9,0.5,16.4-1.1c-2.5-2.1-5.2-1.2-7.9-1.7c0.6-1,1.5-0.6,2.1-0.6
			c3.6,0.1,7.2,0.7,10.8-0.2C24.2,56.7,25.1,59,27,61z"/>
		<path fill="#5F3F00" d="M63,4c10.2,1,10.7,8,10,14.9c-0.1,0.5-0.1,1.2-0.7,1.2c-0.6-0.1-1.4-0.3-1.6-1.1c-0.1-0.3,0-0.7,0-1
			C71.2,11.6,69.1,6.7,63,4z"/>
		<path fill="#5F3F00" d="M44.2,37.2L44.2,37.2c-0.1,0-0.1,0-0.1,0c-2,0.4-3.8,1.1-5.8,2.1c0-2.3,0.8-4.3,1.2-6.4
			c0-0.2,0.1-0.4,0.2-0.5c1.3-1.1,2.6-0.3,3.9,0c1.6,0.4,3.3,0.8,4,2.5c0.2,0.5-0.2,0.9-0.8,1.2C46,36.4,45.1,36.8,44.2,37.2z"/>
		<path fill="#5F3F00" d="M24,36.7c3.9-2.4,8-3.9,12.4-4.7c1.1-0.2,1.2,0.3,1,1.2c-0.3,1.1-0.5,2.2-0.8,3.3
			c-0.2,0.7-0.5,1.1-1.3,0.8C31.6,35.7,27.8,36.3,24,36.7z"/>
		<path fill="#5F3F00" d="M30.7,12.9c3.9-1.8,7-0.2,10.1,1.2c0.6,0.3,1.3,0.7,0.9,1.6c-0.4,0.7-1.1,0.4-1.6,0.2
			C37,15,34.1,14,30.7,12.9z"/>
		<path fill="#5F3F00" d="M63.4,62c0.4-1.4,3.3-0.2,2.2-2.7c-0.1-0.1,0.9,0.1,1.3,0.3c3.7,1.6,7.2,3.7,11.3,4.2
			C73.1,64.6,68.7,60.6,63.4,62z"/>
		<path fill="#5F3F00" d="M69.6,55.4c5.3-1.8,9.2,1.9,13.6,3.3C78.4,58.8,74.6,54.8,69.6,55.4z"/>
		<path fill="#5F3F00" d="M19.1,63.3c-4.7-0.2-9.3,2.6-14,0.6c2.4,0,4.8-0.1,7.2-0.6C14.6,62.8,16.9,62.2,19.1,63.3z"/>
		<path fill="#5F3F00" d="M10.2,55.6c3.3-0.1,6.5,0,9.7-0.8c0.6-0.1,1.4-0.2,1.5,0.6c0.1,0.9-0.8,0.7-1.3,0.8c-2,0.2-4,0.3-5.9,0.6
			C12.7,57,11.5,56.2,10.2,55.6L10.2,55.6z"/>
		<path fill="#5F3F00" d="M10.2,55.6c-1.1-2.3-0.2-2.9,2.2-2.8c2.1,0.1,4.1-0.3,6.2-0.4c0.1,0,0.2,0.2,0.5,0.5
			c-2.2,1.1-4.5,1-6.7,1.1C11.2,54.1,10.4,54.3,10.2,55.6L10.2,55.6z"/>
		<path fill="#5F3F00" d="M30.4,11.1L30.4,11.1c-2.8,1.5-2.8,1.5-5.6-3.3c1.9,0.7,3.5,1.3,5,2C30.4,10,31,10.3,30.4,11.1z"/>
		<path fill="#5F3F00" d="M59.9,53.6c0.5,1.5,2.4,1.3,3.1,2.5c0.5,0.8,1.4,1.2,1.6,3.2c-2.5-2.2-4.5-4.3-7.7-3.9
			C58,54.8,59,54.2,59.9,53.6L59.9,53.6z"/>
		<path fill="#5F3F00" d="M35.8,44.2c0,0,0.2-0.1,0.2-0.1c-0.9,0.1-0.5-0.5-0.4-0.8c0.9-3.7,1.8-7.4,3-11
			C38,36.4,37.5,40.4,35.8,44.2z"/>
		<path fill="#5F3F00" d="M26.8,15.9c0,0.1,0.1,0.1,0.1,0.2c0.2,1.2-0.1,2-1.5,2.1c-1.1,0.1-2.2,0.3-3.4,0.2
			C23.8,17.9,23.8,14.2,26.8,15.9z"/>
		<path fill="#5F3F00" d="M29.3,37.4c-0.9,3.7-1.7,7.4-2.6,11.1c-0.2-0.1-0.5-0.1-0.7-0.2c0.9-3.7,1.8-7.4,2.8-11.1
			C28.9,37.3,29.1,37.4,29.3,37.4z"/>
		<path fill="#5F3F00" d="M60,53.6c3-2.1,5.1,0.6,7.4,1.7C65,54.4,62.6,53.1,60,53.6C59.9,53.6,60,53.6,60,53.6z"/>
	</g>
</g>
</svg>
