<?xml version="1.0" encoding="utf-8"?>
<!-- Generator: Adobe Illustrator 18.1.1, SVG Export Plug-In . SVG Version: 6.00 Build 0)  -->
<!DOCTYPE svg PUBLIC "-//W3C//DTD SVG 1.1//EN" "http://www.w3.org/Graphics/SVG/1.1/DTD/svg11.dtd" [
	<!ENTITY ns_extend "http://ns.adobe.com/Extensibility/1.0/">
	<!ENTITY ns_ai "http://ns.adobe.com/AdobeIllustrator/10.0/">
	<!ENTITY ns_graphs "http://ns.adobe.com/Graphs/1.0/">
	<!ENTITY ns_vars "http://ns.adobe.com/Variables/1.0/">
	<!ENTITY ns_imrep "http://ns.adobe.com/ImageReplacement/1.0/">
	<!ENTITY ns_sfw "http://ns.adobe.com/SaveForWeb/1.0/">
	<!ENTITY ns_custom "http://ns.adobe.com/GenericCustomNamespace/1.0/">
	<!ENTITY ns_adobe_xpath "http://ns.adobe.com/XPath/1.0/">
]>
<svg version="1.1" id="Ebene_1" xmlns:x="&ns_extend;" xmlns:i="&ns_ai;" xmlns:graph="&ns_graphs;"
	 xmlns="http://www.w3.org/2000/svg" xmlns:xlink="http://www.w3.org/1999/xlink" x="0px" y="0px" width="166.8px" height="228.9px"
	 viewBox="0 0 166.8 228.9" enable-background="new 0 0 166.8 228.9" xml:space="preserve">
<metadata>
	<sfw  xmlns="&ns_sfw;">
		<slices></slices>
		<sliceSourceBounds  width="165.1" height="228.9" bottomLeftOrigin="true" y="445.2" x="130.8"></sliceSourceBounds>
	</sfw>
</metadata>
<path fill="#FFFFFF" d="M165,20.8c0.1,31.2,0.1,62.4,0.1,93.6c0,29.7,0,59.4,0,89.1c0,3.4,0,6.8-0.2,10.1
	c-0.4,5.8-1.6,11.2-7.6,14.1c-6.3,3.1-10.9-0.5-15.2-4.2c-19.7-16.9-39.5-33.6-58.8-50.9c-5.5-4.9-11-7-18.2-6.9
	c-15.8,0.4-31.6,0.2-47.4,0C5,165.7,0.4,161.5,0.2,149.2c-0.3-23.3-0.3-46.6,0-69.9c0.2-13.1,4.6-17.4,17.9-17.7
	c16.2-0.3,32.3-0.3,48.5,0c7.2,0.1,12.8-2,18.3-6.9C102.3,39.1,120,24,137.7,8.9c5.6-4.7,10.8-11.7,19.6-7.7
	C165.8,5,165,13.4,165,20.8z"/>
</svg>
