<?xml version="1.0" standalone="no"?>
<!DOCTYPE svg PUBLIC "-//W3C//DTD SVG 1.1//EN" "http://www.w3.org/Graphics/SVG/1.1/DTD/svg11.dtd" >
<svg xmlns="http://www.w3.org/2000/svg">
<metadata>
Created by FontPrep 20130207 at Thu Feb  5 18:33:40 2015
 By Marco
Copyright (c)  M. Klein    8-apr-2004
</metadata>
<defs>
<font id="a2fa63adfb1fc43ffda751acfd836b86" horiz-adv-x='1024' >
  <font-face 
    font-family="MonAmourFraktur-Broken"
    font-weight="400"
    font-stretch="normal"
    units-per-em="2048"
    panose-1="2 0 0 3 2 0 0 2 0 3"
    ascent="1638"
    descent="-410"
    x-height="973"
    cap-height="1407"
    bbox="-287 -483 2673 1890"
    underline-thickness="102"
    underline-position="-153"
    unicode-range="U+0005-E000"
  />
<missing-glyph horiz-adv-x="1024" 
 />
    <glyph glyph-name=".notdef" horiz-adv-x="1024" 
 />
    <glyph glyph-name=".null" horiz-adv-x="0" 
 />
    <glyph glyph-name="nonmarkingreturn" horiz-adv-x="681" 
 />
    <glyph glyph-name="breve" horiz-adv-x="595" 
d="M535 1376l-9 -20l-10 -15l-217 -157l-223 157l-10 15l-9 20l33 29l33 -8l45 -31l131 -49l84 22l86 58l33 8z" />
    <glyph glyph-name="dotaccent" horiz-adv-x="399" 
d="M276 1153l-83 -88l-82 82l86 86z" />
    <glyph glyph-name="ring" horiz-adv-x="491" 
d="M309 1262l-57 59l-59 -59l59 -60zM461 1264l-219 -220l-219 220l219 219z" />
    <glyph glyph-name="hungarumlaut" unicode="&#xa;" horiz-adv-x="782" 
d="M416 1339l-49 -73l-226 -209l-41 -21l-37 39l9 29l137 231l100 72zM682 1339l-49 -73l-223 -209l-43 -21l-37 39l10 29l137 231l101 72z" />
    <glyph glyph-name="ogonek" horiz-adv-x="681" 
d="M565 -279l-47 -55l-137 -35l-234 199l86 186h89l-37 -112l172 -152l67 8z" />
    <glyph glyph-name="caron" horiz-adv-x="679" 
d="M582 1384l-9 -22l-192 -256l-43 -27l-41 19l-184 239l-21 39l33 31l33 -10l176 -129l176 131l41 16z" />
    <glyph glyph-name="dotlessi" unicode="&#xd;" horiz-adv-x="540" 
d="M465 119l-31 -39l-121 -62l-30 -10l-31 12l-80 60l-20 43l14 41l14 12l21 72v457l-25 73l-47 35l-16 41l20 43l84 64l31 12l33 -12l114 -91l15 -41l-27 -49l-23 -75v-433l7 -84l32 -38h4l29 12l29 -23l2 -8z" />
    <glyph glyph-name="fi" horiz-adv-x="1044" 
d="M328 799v-15l-39 -508v-4l24 -39l60 -57l8 -2l6 2l43 43l33 14l47 -47l-21 -39l-141 -135l-35 -12l-34 12l-162 129l-23 43l19 41l14 13l23 71l2 502l-39 41h-19l-65 68l65 67h21l55 39l-2 174v19l39 75l108 92l54 29l57 -14l96 -35l39 -45l-12 -31l-21 -24l-39 -23
l-16 2l-72 17h-8l-49 -64l-4 -137v-19l6 -41l37 -16l57 -2l170 -76l92 68l35 12l33 -12l123 -92l18 -41l-30 -51l-25 -76l2 -439l6 -86l35 -38h4l31 10l31 -21l2 -8l2 -12l-33 -39l-131 -64l-31 -10l-35 12l-86 62l-22 43l16 41l15 12l24 72l-2 465l-27 73l-49 35l-10 25
l-195 14zM979 1260l-12 -29l-150 -144l-29 -14l-40 43l4 19l73 147l58 37l22 -4l45 -15z" />
    <glyph glyph-name="fl" horiz-adv-x="1075" 
d="M342 1061v-19l6 -41l37 -16l57 -2l43 -39l-8 -31l-71 -51l-76 -63v-15l-39 -508v-4l22 -39l62 -57l8 -2l6 2l43 43l33 14l47 -47l-20 -39l-142 -135l-35 -12l-34 12l-164 129l-21 43l17 41l14 13l23 71l2 502l-39 41h-17l-67 68l67 67h19l55 39l-2 174v19l39 75l110 92
l54 29l354 -96l127 51l25 6l49 -53l-21 -41l-31 -80v-985l60 -61l16 10l68 67l35 13l43 -45l-21 -39l-166 -144l-8 -6l-31 -12l-24 8l-12 10l-158 88l-27 13l-18 31l26 38l5 2l34 99v782l-90 150l-96 22l-109 19h-8l-49 -64z" />
    <glyph glyph-name="space" unicode=" " horiz-adv-x="514" 
 />
    <glyph glyph-name="exclam" unicode="!" horiz-adv-x="479" 
d="M373 123l-19 -39l-59 -68l-33 -18l-33 18l-55 64l-20 45l20 45l55 63l31 19l35 -16l61 -72zM389 1219l-80 -637l-22 -127l-43 -39l-29 61l-2 625l57 104l90 62l29 -35v-14z" />
    <glyph glyph-name="quotedbl" unicode="&#x22;" horiz-adv-x="612" 
d="M297 1065l-18 -39l-50 -33l-4 -8l-16 -174l-49 -45l-47 43l-21 174l-4 10l-45 31l-23 41l25 41l84 55l31 10l33 -10l90 -59zM580 1065l-19 -39l-49 -33l-4 -8l-19 -174l-49 -45l-47 43l-18 174l-4 10l-45 31l-23 41l25 41l82 55l30 10l35 -10l90 -59z" />
    <glyph glyph-name="numbersign" unicode="#" horiz-adv-x="2224" 
d="M559 434v-160l14 -116l74 -27v1100l-100 -29zM1976 1108l-55 72l-109 28l-10 2l-55 -55l-8 -502l61 -67l109 -29h8l51 51zM1581 242l-96 -219l-86 -97l-191 70l-215 -62l-30 154l372 729l-540 457l-107 -31v-1126l78 -29l-346 -186h-51l-291 49l-146 -35l-47 57l258 164
l232 -4l51 125l-145 139l-37 39l-31 43l74 23l41 -2l37 22l-183 183l-141 53l152 86l169 -41v2l-96 102l-116 45l75 74l115 31l20 104l105 99l418 215l637 -541l-346 -752l20 -28l356 143zM2032 23h-361l-96 24l10 31l53 102l78 37h355l102 -22l-8 -35l-54 -101zM1561 502
h-19l-33 57l21 29l20 18l15 88v6l-4 428v17l59 125l149 96l52 25l32 -9l252 -108l72 -88v-592l-49 -64l-197 -180l-35 -12l-32 12l-279 150z" />
    <glyph glyph-name="dollar" unicode="$" horiz-adv-x="980" 
d="M831 209l-112 160l-78 53l-66 20l-22 -41l-12 -59l-2 -147l159 -25l56 -16l34 -7zM451 999l-2 27l-33 78l-185 -156l56 -149l162 -41zM465 -139v28l-57 115l-177 -20l-81 -15l-72 -8l-47 53l413 176l2 340l-4 7l-65 55l-299 174l-6 149l114 197l226 158l32 94v49l54 57
l55 -49l-4 -35l57 -102l225 -94l62 -68l-33 -55l-37 -45l-43 -23l-41 13l-131 63l-55 -16l-4 -19l4 -57l-8 -45l-2 -238l299 -182l114 -229l-32 -160l-160 -156l-78 15l-72 12l-53 -63l2 -87l-37 -67z" />
    <glyph glyph-name="percent" unicode="%" horiz-adv-x="1646" 
d="M489 932l-192 242l-8 8l-15 -27l-10 -45l-10 -72l127 -211l63 -16zM1370 270l-184 236l-29 -10l-12 -41l-10 -76l190 -229zM637 1042l-135 -307l-168 -86l-225 283l84 262l73 18l-6 9l21 43l51 36l82 25zM1229 1268l-10 -33l-719 -1219l-64 -34l-76 75l13 39l733 1202
l57 35zM1518 381l-136 -305l-165 -86l-228 280l84 265l92 -5l-24 31l151 105l125 -62z" />
    <glyph glyph-name="ampersand" unicode="&#x26;" horiz-adv-x="1308" 
d="M311 580q-92 -92 -92 -120t10 -40l156 -209q11 -18 19 -18t10 2l207 149l-193 338q-30 -24 -117 -102zM713 1091q0 67 -47 113t-112 45q-65 0 -114 -45l-16 -41q0 -6 10 -22l131 -269l21 15q127 84 127 204zM1313 492q0 -12 -24 -35t-66 -33t-68 -10t-58 17t-40 23
q-9 6 -15 8l-10 5t-20 2t-89 -47q-74 -47 -100 -66l70 -133q70 -141 168 -141q70 0 153 33q24 6 38 6q14 -1 28 -17q16 -16 16 -29q0 -37 -85 -81q-85 -43 -261 -43q-33 0 -91 33t-101 96l-88 133l45 45h-17q0 -23 -13 -29t-15 -8l-334 -250q-23 -18 -43 -18t-33 29
q-57 112 -199 375q-34 63 -34 89q0 63 56 119t124 95q138 81 176 110l-127 289q-8 20 -14 26q-4 7 -6 11t-8 11t-10 19q-3 12 -3 35t85 80t280 135q52 23 159 23q46 0 75 -37q54 -69 54 -134q0 -110 -17 -153q-17 -44 -67 -118q-50 -73 -139 -141q-23 -17 -35 -28l172 -348
q68 46 134 94t102 68t44 26q8 5 21 5t29 -8l23 -17q14 -8 43 -28t82 -39q53 -20 53 -49zM678 261q-4 3 -6 9q0 -4 -2 -6q3 -2 8 -3z" />
    <glyph glyph-name="quotesingle" unicode="'" horiz-adv-x="299" 
d="M274 1061l-16 -39l-45 -33l-4 -8l-16 -195l-46 -45l-43 43l-18 195l-4 10l-41 31l-21 41l23 41l76 55l28 10l33 -10l80 -59z" />
    <glyph glyph-name="parenleft" unicode="(" horiz-adv-x="442" 
d="M299 1374l-33 -55l-116 -320v-821l114 -317l33 -58l-31 -34l-51 24l-131 152l-84 319v649l84 320l131 151l49 25z" />
    <glyph glyph-name="parenright" unicode=")" horiz-adv-x="442" 
d="M440 264l-84 -319l-131 -152l-51 -24l-31 34l33 58l115 317v821l-117 320l-33 55l35 35l49 -25l131 -151l84 -320v-649z" />
    <glyph glyph-name="asterisk" unicode="*" horiz-adv-x="892" 
d="M111 1157v4l22 41l82 62l23 6h6l4 -2h8l35 -33l16 -53l4 -8l99 -48l-19 103l-4 12l-43 31l-22 41l26 43l78 53l31 12l32 -12l84 -57l19 -39l-19 -39l-49 -35l-18 -111l94 46l6 6l17 51l28 33l21 4l33 -15l79 -59l15 -20l4 -19l-33 -123l-37 -22l-10 -2l-31 10l-45 33
l-6 4h-4l-102 -19l73 -75l8 -7h62l35 -18l10 -29l-6 -22l-31 -86l-16 -27l-33 -14l-109 -2l-18 8l-4 4l-12 6l-5 17l-4 16l4 18l17 49l2 7v4l-51 94l-49 -92v-10l14 -52l4 -18l-10 -29l-37 -18h-6l-97 2h-6l-22 6l-25 29l-35 100l11 39l37 20h2l57 -2l10 4l72 78l-101 17
h-12l-43 -33l-31 -10l-49 37l-24 92l-2 4z" />
    <glyph glyph-name="plus" unicode="+" horiz-adv-x="665" 
d="M422 580v-95l-39 -77l-74 -43l-16 -7l-37 93v131h-125l-94 36l6 19l43 70l80 38h90v99l39 78l74 45l18 4l35 -39l2 -53v-134h121l53 -2l39 -34l-4 -19l-45 -72l-80 -38h-86z" />
    <glyph glyph-name="comma" unicode="," horiz-adv-x="294" 
d="M258 80l-12 -35l-119 -145l-37 -19l-47 49l10 27l41 53l2 8v5l-39 38l-18 37l18 39l52 56l30 12l33 -12l74 -78z" />
    <glyph glyph-name="hyphen" unicode="-" horiz-adv-x="540" 
d="M414 545h-318l-84 26l8 17l-18 33l76 26h373l90 -26l-9 -17l-8 -55z" />
    <glyph glyph-name="period" unicode="." horiz-adv-x="364" 
d="M295 106l-16 -36l-56 -56l-6 -4l-29 -8l-34 14l-50 52l-4 2l-16 36l20 41l52 50l32 14l35 -12l56 -56z" />
    <glyph glyph-name="slash" unicode="/" horiz-adv-x="641" 
d="M633 1395l-2 -13v-2l-318 -1380l-4 -10v-2l-65 -43l-72 71l2 23l336 1370l61 49z" />
    <glyph glyph-name="zero" unicode="0" horiz-adv-x="980" 
d="M360 356v736l-190 -299l-12 -125zM774 754l-342 452l-31 -49v-864l123 -187l232 474zM924 819l-25 -231l-336 -565l-114 -72l-461 633l22 200l428 549l101 47z" />
    <glyph glyph-name="one" unicode="1" horiz-adv-x="722" 
d="M479 1090v-818l43 -122l23 8l14 4l33 -45l-33 -39l-131 -66l-31 -12l-28 10l-90 68l-23 45l16 43l15 10l24 78v776l-35 135h-14l-37 -10l-35 -16l-49 51l13 37l65 51l80 53l33 12l30 -12l31 -20l41 -43z" />
    <glyph glyph-name="two" unicode="2" horiz-adv-x="989" 
d="M545 201v258l-133 -125l-123 -146l43 -14zM731 1012l-145 176v-492zM870 33v-25l-39 -39l-18 6l-20 13l-297 78l-254 -39l-88 -29l-27 -10l-18 -4l-33 32l209 330l260 299v535l-115 -88l-88 -80l-72 -41l-118 92l26 47l273 233l110 33l21 -6l329 -240l21 -102v-12
l-148 -305l-198 -211v-295l16 2l234 -23l82 -55l-21 -49z" />
    <glyph glyph-name="three" unicode="3" horiz-adv-x="980" 
d="M698 340l-206 330l-25 2v-477l29 -23l51 -25zM489 1188l-22 -19v-370l117 241zM825 367l-346 -367l-88 39l-303 256l-18 35l8 28l8 13l74 65l61 -28l205 -177v443l-162 6l-57 49l8 53l211 -2v363l-193 -131l-24 -8l-27 14l-65 80l-6 24l10 27l231 164l68 28l24 -6
l273 -100l53 -125v-10l-90 -223l-57 -60l-21 -39l29 -39l39 -34l45 -46l110 -231v-61z" />
    <glyph glyph-name="four" unicode="4" horiz-adv-x="980" 
d="M442 600v516l-305 -516h305zM541 737v353l-47 90l-11 -6v-562zM801 598h102l76 -12l10 -35l2 -8l-30 -60l-48 -55h-12l-14 8h-2l-47 -4l-29 -6l-66 -47v-182l29 -33l64 29l43 12l34 -23l7 -22l-15 -29l-196 -164l-37 -14l-23 6l-135 82l-27 47l21 43l14 14l27 84v121
l-72 68h-389l-90 88l10 41l-4 -4l434 735l115 129l180 -236v-516z" />
    <glyph glyph-name="five" unicode="5" horiz-adv-x="886" 
d="M678 498l-62 155l-30 21v-445l37 27zM545 1087h-236l-26 -18l-66 -340v-6l27 -27l301 150v241zM586 1087v-223l84 10l196 -294l-16 -156l-16 -41l-19 -33l-401 -348l-148 80l-123 84l-14 39l8 35l6 8l78 71l60 -28l90 -64l53 -41l65 -18l56 35v497l-21 15h-8l-51 -21
l-270 -157l-33 -2l-53 14l-33 65l127 500l12 53l27 62l106 41h381l59 -39l-20 -144h-182z" />
    <glyph glyph-name="six" unicode="6" horiz-adv-x="980" 
d="M340 362v177l-82 -54zM774 420l-35 141l-174 94l-157 -73l-27 -17v-264l137 -207l170 107zM340 641v385l-31 -20l-98 -273l18 -153zM918 1059l-9 -29l-73 -88l-31 -16l-21 8l-256 174l-36 20l-111 -75v-389l266 147l193 -147l73 -168l-163 -363l-134 -100l-108 -60
l-94 -22l-29 14l-16 12l-326 619l86 336l387 358l25 10l30 9l76 -35l256 -182z" />
    <glyph glyph-name="seven" unicode="7" horiz-adv-x="905" 
d="M666 1116l-35 25h-4l-127 -2l2 -246l153 192zM225 674v43l37 43l57 4l74 -6l70 86v295l-105 -2l-116 -56l-39 -49l-60 -51l-37 43l31 86l53 125l9 20l75 43l578 2l55 -45l-362 -522l92 -6l43 -45l-2 -43l-176 14l-35 -78l-92 -440l-49 -69l-64 -37l-22 -17l-27 -10
l-41 43v23l160 598l6 10h-16l-93 -2h-4z" />
    <glyph glyph-name="eight" unicode="8" horiz-adv-x="980" 
d="M340 254v395l-80 -78l-70 -211zM811 449l-78 147l-110 63l-97 17l-108 10h-8l-29 -14v-449l123 -88zM340 870v328l-8 -2l-127 -188zM729 1040l-151 146l-154 22l-43 -6v-348l172 -12h6zM948 494l-10 -113l-340 -367l-182 -63l-383 379l106 264l70 84l27 43h-9l-159 201
v102l198 258l80 55l133 45l289 -125l129 -141l-82 -188l-51 -66l-19 -33l9 -30l45 -27l43 -29z" />
    <glyph glyph-name="nine" unicode="9" horiz-adv-x="980" 
d="M793 580l-15 170l-110 -58v-346zM627 774v209l-193 217h-4l-168 -98l-45 -58l-22 -120l186 -269l43 17l178 88zM750 846l-82 92v-141zM946 723l-117 -447l-38 -75l-179 -156l-131 -68l-61 -26l-70 26l-278 146l-21 37l8 26l58 93l35 22l14 -4l8 -2l268 -145l101 -35
l84 155v400l-164 -88l-195 -62l-229 330l45 215l59 74l52 43l315 186l297 -289l94 -198z" />
    <glyph glyph-name="colon" unicode=":" horiz-adv-x="425" 
d="M317 133l-16 -43l-53 -61l-35 -19l-35 19l-49 59l-6 6l-14 39l20 47l51 58l33 18l35 -16l55 -64zM317 770l-16 -43l-53 -61l-35 -19l-35 19l-49 59l-6 6l-14 39l20 47l51 57l33 19l35 -16l55 -64z" />
    <glyph glyph-name="semicolon" unicode=";" horiz-adv-x="425" 
d="M338 96l-12 -37l-121 -157l-37 -21l-47 53l10 31l41 58l2 8v4l-39 43l-18 41l18 43l51 57l31 14l35 -14l74 -84zM315 770l-16 -43l-61 -70l-29 -10l-37 17l-49 59l-6 8l-15 39l21 45l51 59l35 19l29 -10l6 -4l57 -66z" />
    <glyph glyph-name="less" unicode="&#x3c;" horiz-adv-x="522" 
d="M428 328l-57 -60l-39 17l-203 215l-41 78l41 79l199 209l43 17l57 -58l-16 -53l-86 -143l-17 -54l23 -63l82 -135z" />
    <glyph glyph-name="equal" unicode="=" horiz-adv-x="645" 
d="M457 504h-318l-84 35l47 96l80 39h312l90 -35l-4 -16l-43 -80zM457 748h-318l-84 34l6 17l41 80l80 39h312l90 -35l-4 -17l-43 -80z" />
    <glyph glyph-name="greater" unicode="&#x3e;" horiz-adv-x="522" 
d="M444 578l-41 -78l-202 -215l-39 -17l-58 60l15 49l82 135l22 63l-16 54l-86 143l-17 53l60 58l41 -17l198 -209z" />
    <glyph glyph-name="question" unicode="?" horiz-adv-x="641" 
d="M432 125l-18 -41l-86 -64l-33 -12l-33 12l-82 62l-22 43l24 45l82 59l31 13l35 -13l86 -63zM334 485l6 -32l-51 -58l-58 86l160 465v4l-125 123l-116 -45l-50 51l15 37l104 123l8 8l58 27l147 -49l143 -264l-36 -111l-95 -158l-104 -184z" />
    <glyph glyph-name="at" unicode="@" horiz-adv-x="1548" 
d="M903 346v262l-33 -2h-47l-92 -94v-201l19 -26l26 -21l6 -4l97 55zM1393 614l-62 -727l-571 -86l-379 168l-277 434l500 609l170 -31l98 -35l91 -12l90 20l4 4l41 -2l24 -38l-18 -39l-37 -101v-442l27 -74l49 10l35 17l47 -53l-11 -35l-61 -45l-43 -25l-35 -27l-35 -6
l-28 13l-109 106l-151 -113l-29 -8l-31 6l-151 121l-21 43l15 35l12 12l24 62v114l-14 70v23l33 51l20 10l13 6l280 49v11l-14 51l-19 10l-22 57l-242 25l-385 -426l180 -395l408 -181l448 117l68 641z" />
    <glyph glyph-name="A" unicode="A" 
d="M487 514h-10l-86 -98l51 -84l258 -127l11 -4h4l129 80l16 14v248l-59 -47h-4zM965 385v750l-64 26v-831zM1415 248l-125 -137l-200 -111l-125 260l-281 -213l-33 -12l-22 4l-334 213l-49 -66l28 -106l-96 -96l-94 96l55 172l482 686l14 31l-39 39l-113 -58l-47 -22
l-74 73l273 154l207 -127l-121 -197l-141 -157l-29 -43l266 14l43 -20v553l-217 86l-215 -23l-49 -18l-37 -11l-31 29l33 51l328 101l250 -68l86 -45l49 -18l84 63l53 47l53 27l47 -58l-30 -55l-50 -39l-65 -110l2 -869l20 -69l78 47l51 37l50 18z" />
    <glyph glyph-name="B" unicode="B" horiz-adv-x="1511" 
d="M1163 920v6l-106 176l-123 104v-1132l24 -19l158 92l33 27v418l-21 49l-14 10l-22 19l-23 18l-18 37l6 23l96 137zM670 498v12l-4 299l10 221l88 236l223 37l137 38l66 -47l94 -174l64 -133l-66 -106l-80 -101l-8 -20l12 -29l137 -104l19 -35l-2 -17l-12 -57l2 -332
l-50 -82l-321 -163l-53 -29l-58 -21l-57 27l-68 47l-196 68l-252 -178l4 -37l4 -19l4 -22v-6l-94 -101l-74 119l293 340l6 51l-106 121l-64 -20l-41 -21l-37 -14l-40 59l153 158l72 86l-86 88l-109 -29h-4l-37 39v4l15 45l129 111l53 18l18 9l17 77l57 197l2 27v12l-41 -4
l-88 22l-22 17l-7 2l-55 -27l-63 -41l-41 53l145 179l98 -19l62 -16l82 18l75 21l84 -33l11 -31l-8 -31l-23 -34l-98 -256v-627l-17 -190l135 14l234 -72v1090l-29 -62l-12 -57l-61 -426l-125 -395l-45 51l8 51l18 57z" />
    <glyph glyph-name="C" unicode="C" 
d="M729 236v987l-18 -25l-17 -82l-57 -385l-141 -420zM770 223h-4l68 -22l421 196l72 29l39 -59l-524 -367l-412 129l-319 299l12 260l295 682l43 21l41 -50l-15 -30l-235 -740l176 -202l88 448v94l4 117l66 172l245 221l11 11l22 10l31 -12l211 -64l78 23l41 16l26 8
l27 -31l-49 -118l-72 -66l-80 -33l-76 19l-221 80l-10 -4v-1037z" />
    <glyph glyph-name="D" unicode="D" horiz-adv-x="1427" 
d="M688 244v927l-104 -165l-72 -97l-66 -102l-157 -365l-115 -311zM1159 231l-18 652l-58 196l-354 121v-958l309 -41l33 -17l66 -63l22 104v6zM1317 1059v-8l-17 -869l-94 -139l-127 -90l-35 -10l-43 18l-405 127l-492 -143l-41 -19l-40 54l133 548l-17 78l-65 15l-54 47
l91 77l137 35l10 31l8 51l133 236l129 57l72 55l-602 181l-8 47l73 108l62 -28l45 -35l55 -33l193 -39l426 -18l336 -66l8 -6l63 -72z" />
    <glyph glyph-name="E" unicode="E" 
d="M913 117v682l-20 2l-64 -197l-200 -465l200 -28h13zM991 1165l-2 2l-100 41l-103 31l-34 -10l-54 -96l-63 -408l-123 -373l-70 -114l99 -62l202 463l41 131l52 125l118 166zM954 799v-672l338 192l64 29l18 -2l39 -57l-563 -393l-430 133l-221 274l-123 326l317 727
l47 20l43 -53l-16 -33l-252 -612l158 -371l106 320l25 377l69 170l152 137l115 98l8 10l24 13l35 -15l226 -67l88 24l39 17l30 10l27 -33l-53 -125l-74 -69l-57 -60l-33 -78l-10 -26v-4l141 -9l29 2l4 7l22 63l39 16l45 -43l-119 -190l-92 -53h-205z" />
    <glyph glyph-name="F" unicode="F" horiz-adv-x="1056" 
d="M573 70v1134l-59 -16l-47 -570l-150 -700zM668 260l-2 971l-52 -17v-1097zM1278 1395l-242 -168l-110 14l-35 10l-17 4h-4l-16 -71l2 -74l18 -43h185l63 -63v-25l-41 -53l-34 14l-3 2l-49 -16l-47 -29l-37 -18l-28 -19l-23 -43l6 -551l-274 -340l-381 -170l-57 -12l-66 8
l-49 21l-96 22l-84 -33l-45 -26l-47 -15l-31 11l-17 41l-6 30l238 177l160 -31l100 -35l115 770l-2 139v8l-101 80l-108 -22l-95 -29l-40 35l28 53l234 135l53 21l20 24l9 76l170 80l184 49l90 49l29 21l90 51l31 -12l180 -49l90 24l29 17l28 14z" />
    <glyph glyph-name="G" unicode="G" horiz-adv-x="1509" 
d="M709 129v1112l-13 -6l-26 -45l-11 -55l-47 -443l-135 -467zM750 1251v-1126l38 -2l435 541l-101 192l-245 -41h-21l-39 41l27 45l217 64h4l174 -21l88 -55l80 -217l-475 -627l-258 -45l-207 49l-223 205l-146 354l52 219l92 177l192 192l45 -55l-133 -135l-14 -29l-8 -10
l-78 -314v-14l164 -356l79 444l-10 367v20l64 117l217 166l33 12h4l53 -12l80 -25l198 -117l144 88l45 -47l-64 -88l-88 -67l-30 -15l-43 9l-338 116h-4z" />
    <glyph glyph-name="H" unicode="H" horiz-adv-x="1429" 
d="M844 152v600l-92 -82l-172 -453h6l213 -43zM844 901v318l-68 -66v-2l8 -254l21 -20l14 6zM1323 401l-86 -278l-133 -205l-8 -22l55 -60l25 8l55 13l69 -60l-112 -90l-201 184l39 127l70 119l41 178l2 338l-187 195l-67 -60v-653l6 -2l39 29l35 35l47 22l61 -61l-18 -43
l-185 -176l-43 -17l-30 10l-121 91l-203 65l-254 -180l2 -25l2 -4l8 -55l-94 -98l-74 118l269 330l4 4l26 62l-106 116l-63 -20l-41 -23l-37 -12l-41 59l153 158l72 86l-86 88l-113 -28l-37 38l220 189l14 76l55 198l6 27v4l-2 6l-43 -4l-88 23l-22 16l-6 2l-56 -27l-63 -41
l-41 54l145 178l99 -19l61 -16l88 18l49 15l43 8l72 -66l-8 -30l-23 -35l-96 -256v-627l-33 -192l53 8l127 1065l377 141l70 -67l-172 -86l-4 -4v-328l92 69l55 25l291 -344v-281z" />
    <glyph glyph-name="I" unicode="I" horiz-adv-x="1046" 
d="M643 100v1137l-80 -285v-39l49 -430l-137 -350l156 -47zM684 1346v-1201l98 113l-10 78l-29 119l-41 336l263 614l43 -25l8 -20l-25 -41l-114 -318l8 -192l39 -447l-322 -382l-426 163l-57 -6l-6 -2h-9l-32 33l168 123l108 -37l62 -61l53 176l-125 352l-193 -78l-36 37v4
l219 160l71 57l72 297v8l-35 17h-20l-105 6l-26 -4l-90 -41l-39 47l225 162l168 -4l86 18h6l39 -41l-6 -20h10z" />
    <glyph glyph-name="J" unicode="J" horiz-adv-x="1028" 
d="M627 -10v956l-58 -182l-14 -313l8 -258l-153 -363l45 -4zM633 1358h16l99 -60l-39 -90l-41 -131v-1046l73 69l-18 539l135 543l80 166l76 49l33 -39l-19 -55l-121 -482l-71 -737l-316 -391l-293 24l-108 21l-66 -12l-61 -17l-41 37l237 168l142 -41l82 369l-222 155
l-106 52l125 69l86 -12l22 -8l17 -2l18 30l-18 47l-31 35l-182 68l-84 47l33 49l129 39l86 -27l63 -22l19 12l18 74l41 129l37 80l57 82l19 49l-35 16h-8l-90 -6l-142 33l-55 20l-49 11l-117 -97l16 -22l107 -103l-96 -88l-144 168l254 271l137 -21l144 -18z" />
    <glyph glyph-name="K" unicode="K" horiz-adv-x="1425" 
d="M606 262v451l-69 -64l-152 -389l147 16zM606 823v297l-4 -8l-57 -332v-14zM1470 168l-24 -37l-256 -147l-76 149l-43 100l-41 86l-153 216l-152 104l143 78l99 76l133 137l-10 16l-37 37l-52 45l-227 -168l-127 -112v-494l101 -21l55 -28l39 -10l39 26l32 35l50 23
l61 -62l-18 -43l-187 -176l-41 -14l-33 10l-120 90l-205 63l-232 -59l-49 -41l-45 -27l-33 29v8l185 152l22 16l74 217l-66 74l-147 -45l-20 61l135 113l51 10l47 11l39 55l-70 141l-217 -39l-14 64v10l266 70l189 311l-11 2l-26 -6l-37 -19l-101 -28l-61 10l-43 20l-109 27
l-45 -8l-41 -12l-32 32l133 107l59 -6l45 -13l115 -16l141 16l47 15l64 6l72 -33l-7 -29l-51 -124v-357l133 127l97 84l114 84l99 43l55 -33l112 -151l35 -82l-69 -76l-160 -110l-31 -23l-24 -43l67 -115l58 -84l43 -71l69 -189l35 -80l59 27l70 43l23 -4l8 -4z" />
    <glyph glyph-name="L" unicode="L" horiz-adv-x="1103" 
d="M463 264v975l-62 -229l23 -504l-139 -348l67 14l121 92h-10zM1182 199l-88 -117l-152 -100l-90 14l-119 31l-287 43l-237 -31l-64 -23l-39 -10l-28 29l59 67l19 19l94 330l-82 -7l-18 -2l-9 -2l-45 66l19 45l53 18l31 -4l10 -2l43 23l-76 116h-6l-98 52v4l65 61l99 27
l4 37l-2 71l32 129l21 43l8 25l-27 37l-16 4l-43 14l-55 29l-33 10l-70 -49l-8 -45l-41 -35h-4l-51 58l194 208l113 -18l76 -18l98 36l45 29l49 16l43 -38l-32 -68l-33 -33v-993l121 391l-23 381l297 363l201 -87l-39 -40l-123 28l-168 -196l29 -387l-267 -551l125 4
l238 -33l74 -23l20 -8h4l68 45l37 37l35 23z" />
    <glyph glyph-name="M" unicode="M" horiz-adv-x="1865" 
d="M1241 788h45l62 3l-58 -86l-49 -29v-438l21 10l30 12l47 -41v-4l-18 -33l-246 -168l-49 -16l-51 29l-68 67l-26 60l18 43l12 45v180l4 131l3 27l-39 61h-17l-104 8l-41 -2h-10l-54 37l64 78l110 29h25l57 49l4 368v6l-34 70h-9l-94 -33l-170 -96l-104 -276l-6 -502
l-23 -156l-20 -76l39 -6l81 15l45 -33l-149 -117l-178 12l-123 -28l-102 -31l-52 41l150 135l100 -6l39 197l8 268l-153 -10l-13 -7l-28 -8l-31 41l115 111l43 16l43 13l39 49l159 479l353 129l120 39l148 -178l18 6l236 121l104 30l197 -106l76 31l106 38l33 -55l-21 -28
l-98 -60l-84 -151v-881l19 -61l28 6l45 12l45 -47l-24 -33l-31 -18l-145 -70l-103 66l-18 170v884l-57 142l-35 14l-129 -51l-27 -13v-424zM1200 788v406l-104 -49l-2 -285l41 -72h65zM1200 223v430l-4 -2l-33 2l-49 -24l-4 -361l39 -75l61 30h-10z" />
    <glyph glyph-name="N" unicode="N" horiz-adv-x="1634" 
d="M565 434v-162l8 -108l52 -4l37 -4l-23 944l10 160l-67 -29l-11 -8l-20 -19zM352 1200v12l535 258l641 -542l-178 -537l-121 -141l-49 -70l14 -33l358 144l39 -51l-98 -222l-39 -49l-51 -39l-31 15l-35 22l-116 31l-170 -47l-15 -6l-16 -4l-49 143l22 39l43 49l129 160
l187 491l-545 453h-64l-12 -176l6 -1008l2 -18l-67 -64l-254 -108h-43l-297 49l-70 -14l-67 -17l-45 47l256 170l241 -4l41 131l-141 168l-21 -2l-10 -2l-33 39l64 35l31 -2l12 -2l45 22l-111 148l-196 94l61 108l96 -34l52 -15l86 -20l2 10l-88 92l-113 58l70 67l106 27z
" />
    <glyph glyph-name="O" unicode="O" horiz-adv-x="1624" 
d="M477 598l-39 479l-131 -94l-78 -195l2 -184l111 -330zM688 104v1108l-61 -28v-8l16 -453l-237 -518zM1386 748l-503 512l-11 2l-143 -37v-1135l33 -12l414 223zM1567 795l-303 -615l-576 -227l-438 186l-207 410l53 338l47 82l47 49l64 43l252 242l514 122z" />
    <glyph glyph-name="P" unicode="P" horiz-adv-x="1548" 
d="M627 217v832l-58 -39l-47 -826zM1214 858l-18 121l-35 106l-190 154l-6 -8l-222 -107l-75 -49v-846l16 7l168 30l242 -71l45 -35l24 -17l37 2l12 48zM668 100h-41v4l-111 -16l-12 -231v-4l125 -99l6 2l22 4l41 -45l-77 -53l-56 2l-78 2l-53 4l-47 64l-2 231v53l-45 50
l-135 -41l-103 -35l-30 -15l-27 -10l-43 41l291 234l74 30l6 47l6 89v4l-51 112l-209 140l-37 -2l-51 40l157 109l43 -18l43 -31l76 -39l10 4l25 14l-2 17l-18 344l-136 160l-108 -15l-19 -6l-20 -8l-33 35l238 139l280 -274l359 217l57 41l59 26l357 -280v-885l2 -64
l-41 -69l-121 -86l-57 -51l-49 -29l-46 22l-92 64l-327 72v-11z" />
    <glyph glyph-name="Q" unicode="Q" horiz-adv-x="1624" 
d="M442 504l-14 561l-135 -92l-2 -4l-4 -4l-66 -361l111 -330zM647 119v1046l-33 -12l-71 -629l-19 -73l-127 -244zM1376 774l-381 430l-90 25l-69 8l-148 -55v-1078l64 -22l321 111zM1575 66l-41 -52l-74 -63l-137 -96l-72 36l-86 70l-133 94l-39 -12l-67 -35l-248 -51
l-420 184l-225 410l53 338l47 82l47 47l68 45l248 194l34 19l27 12l453 137l544 -602l-348 -671l76 -58l150 -65l43 32l32 27l33 16l35 -30v-8z" />
    <glyph glyph-name="R" unicode="R" horiz-adv-x="1562" 
d="M668 182v322l-86 -55v-130l14 -96l14 -14zM668 621v483l-93 -49l7 -92v-398zM1108 928l-39 57l-96 113l-103 114l-2 -2l-159 -86v-477l204 135zM1581 76l-242 -146l-110 88l-162 469l-184 136l-86 -33l-88 -58v-370l94 -43l41 -13l114 78l37 21l52 -31l-5 -14l-262 -248
l-26 12l-23 19l-82 55l-282 78l-189 -49l-72 -33l-47 -19l-43 54l109 112l207 74l69 35l-30 274l-185 129l-43 -8l97 66l39 14l59 -45l33 -16l6 36l2 316l-244 231l-94 47l197 101l315 -244l186 131l205 115l103 -84l122 -152l91 -104l45 -70l-228 -196l-22 -39l145 -129
l57 -72l48 -80l73 -332l43 -59l47 16l58 25z" />
    <glyph glyph-name="S" unicode="S" horiz-adv-x="1609" 
d="M729 627v94l-51 10l-203 27l-158 90l-143 -113l318 -106zM770 442v-262l172 49l102 107l-223 106h-51zM770 627h96l355 -246l-80 -131l-254 -135l131 -90l407 335l-213 254l-145 48l-117 18l-180 33v-86zM729 924v274l-72 25l-219 -183zM1612 383l-557 -453l-154 7
l-41 14l-436 184l-193 62l-88 -72l156 -158l25 -30v-9l-72 -53l-250 250l270 199l211 -29l246 -100v247l-186 2l-480 218l35 137l189 135l-2 35l477 428l78 -31l241 -121l35 35l74 49l49 -33v-4l-90 -125l-100 -116l-209 108l-70 25v-277l115 -47l364 -84z" />
    <glyph glyph-name="T" unicode="T" horiz-adv-x="1325" 
d="M674 1130l-103 -30l-143 -88l-100 -86l-56 -70l7 -238v-6l155 -356l88 98l86 109l-2 12v6zM852 147v1035l-4 2l-25 4l-26 -39l2 -74v-532l-25 -58l-262 -280l289 -74zM1376 1335l-393 -180l-90 14v-1007l356 119l35 20l45 39l23 -76l-617 -311l-401 125l-240 526v17
l92 411l437 180l-174 41l-277 -77l-84 -56l-57 -28l-37 47l444 317l109 -16l151 -33l342 -49l150 20l94 15l62 6z" />
    <glyph glyph-name="U" unicode="U" horiz-adv-x="1544" 
d="M483 274v752l-2 -2l-180 -451zM1155 1145v8l-4 2l-10 8l-11 11l-16 14l-74 -33l-30 -27l-37 -18l-37 39l29 53l26 23l37 28l31 27l33 35l63 47l29 -14l30 -23l50 -29l65 41l92 49l33 -38l-31 -52l-49 -39l-37 -79v-897l37 -82l33 4l14 2l17 2l32 -35l-28 -41l-96 -88
l-48 -25l-124 146l-400 -184l-342 77l-295 418l168 504l115 131l45 66l-57 69l-150 -33l-102 -104l-19 -21l-24 -14l-35 47l92 209l141 55l56 -16l86 -31l163 -47l54 -45l-23 -37l-123 -135v-866l31 -51l12 106l2 86l6 84l-4 453l70 112l41 35l35 21l37 -39v-4l-95 -736
l-28 -153l184 -33l336 191z" />
    <glyph glyph-name="V" unicode="V" horiz-adv-x="1296" 
d="M545 201v862l-78 -68l16 -164l-4 -346l-141 -352zM1051 1008l-68 247l-297 -81l-100 -78v-889l20 4l43 -23l45 -16l51 -8l205 319l99 391zM1276 1018l-191 -588l-264 -410l-49 -38l-43 -19l-39 8l-41 19l-205 59l-75 -8l-99 -16l-106 -80l-29 32l31 80l61 99l86 250
l-26 71l-137 80l-136 -12l-20 45l184 104l107 -8l45 51l-6 189l-97 194l-159 146l-78 -54l-41 -38l-41 -25h-8l-35 43l92 172l53 57l101 31l338 -362l75 71l545 275l8 6l23 6z" />
    <glyph glyph-name="W" unicode="W" horiz-adv-x="1669" 
d="M545 197v1020l-111 -70l58 -416l-109 -491l25 2zM817 821l-82 482l-80 -23l-22 -10l-47 -29v-1057l12 -6l90 41zM782 160l9 -17l198 45l205 -10l229 656v149l-86 299l-340 -108l47 -267l-79 -385l-86 -178l-68 -119zM813 1481l25 -11v-2l131 -204l426 192l28 17l31 16
l188 -498l-307 -848l-252 -176l-75 45l-93 51l-163 -28l-152 -45h-10l-27 14l-33 72l-122 71l-43 -20l-56 -35l-110 -108l-33 36l24 62l48 100l65 244l12 166l-186 2l-80 -4l-22 -6l-17 34l242 103l63 74l-106 428l-141 108l-107 -55l-35 -41l-39 -29l-26 45l67 158l174 92
l297 -264l207 123l45 33l105 53l32 20l23 13l2 -2v4z" />
    <glyph glyph-name="X" unicode="X" horiz-adv-x="1118" 
d="M770 680h-2l-59 -25l-23 -22l-2 -4l86 -193v244zM770 813v199l-98 -162l-4 -19l26 -18h76zM811 813h129l61 -39l-22 -65l-168 -19v-346l76 -168l69 -39l123 43l29 -28l-203 -152l-180 133l-174 387l-203 -487l-53 -31l-41 10l-164 92l-22 41l10 33l35 62l37 26l24 -6
l107 -43l14 -4l188 385l2 6l-32 27h-156l-74 88l109 92h139l21 12l-9 23l-213 344l-63 27l-53 -19l-35 -24l-37 -13l-59 60l22 45l129 100l80 23l123 -58l233 -391l215 410l47 26l41 -6l150 -53l29 -37l-13 -41l-20 -43l-47 -35l-17 2l-80 25l-20 2l-21 -4l-63 -107v-266z
" />
    <glyph glyph-name="Y" unicode="Y" horiz-adv-x="1447" 
d="M606 1157h41v-883l215 -69l342 512l-397 577l-39 35l160 78l465 -666l-531 -635l-241 25l-111 -20l-250 -117l-53 -178l90 -121l594 225l283 -266l-99 -105l-76 41l-77 140h-4l-82 12l-99 -25l-465 -174l-249 305l182 252l162 152l-162 205l-64 45l-18 14l-31 59l60 48h8
l108 -39l82 -64l35 -10l27 59v19l-185 225l-104 92l-55 88l73 45l64 -24l53 -45l145 -101l11 160l-224 264l-108 66l186 72l277 -283v-840l61 -20v870z" />
    <glyph glyph-name="Z" unicode="Z" horiz-adv-x="999" 
d="M684 637h-45l-27 -21l-120 -210l-31 -44l-78 -98l-27 -67l11 -7l231 29zM688 778h25l45 211l-37 -61l-55 -121v-27l2 -4zM262 791h139l86 34l129 240l62 90l45 76l8 4l-4 20l10 23l-2 2l-39 -12l-63 -29l-219 -45l-215 27l-52 -39l-26 -31l-31 -23l-39 33l31 60l115 143
l59 37l47 -8l59 -19l132 -26l256 30l92 21l61 10l88 -47v-4l-57 -103l-47 -59l-47 -68l-19 -32l-65 -318l121 -2l43 -31l-2 -12l-13 -26l-63 -72l-117 2l-86 -420l147 -16l43 -15l37 -4l70 70l29 27l24 6l19 4h4l32 -41l-104 -152l-47 -61l-51 -37l-19 4l-94 39l-252 43
l-205 -49l-108 -35l-60 -16l-57 45l80 121l57 67l37 51l107 181l71 176l-47 26h-4l-125 -4h-10l-27 37l-20 41l-12 41l18 18z" />
    <glyph glyph-name="bracketleft" unicode="[" horiz-adv-x="454" 
d="M395 -193q33 0 33 -38v-5q0 -23 -37 -36t-82 -13l-73 2h-29q-78 0 -101.5 13.5t-23.5 52.5l-43 1507v4q0 35 24.5 48.5t102.5 13.5h27l73 2q45 0 82 -13.5t37 -35.5q0 -43 -33 -43q-8 0 -26 6h-2q-34 0 -75.5 -36t-41.5 -65v-2l53 -1269q0 -30 36.5 -64.5t70.5 -34.5h2
q18 6 26 6z" />
    <glyph glyph-name="backslash" unicode="\" horiz-adv-x="641" 
d="M566 -55q-55 0 -77 53l-317 1382v15q0 36 20.5 49.5t38.5 13.5l21 -2q31 -12 41 -47l336 -1368l2 -21q0 -41 -25.5 -58t-39.5 -17z" />
    <glyph glyph-name="bracketright" unicode="]" horiz-adv-x="454" 
d="M240 1356q78 0 101.5 -13.5t25.5 -52.5l47 -1507v-4q0 -35 -24.5 -48.5t-102.5 -13.5h-27l-74 -2q-45 0 -82.5 13.5t-37.5 35.5v5q0 39 32 38q11 0 29 -6h2q31 0 69 32.5t38 64.5l-39 1269q0 29 -41.5 67t-73.5 38h-4q-18 -6 -27 -6q-33 0 -33 43q0 23 37 36t82 13l74 -2
h29z" />
    <glyph glyph-name="asciicircum" unicode="^" horiz-adv-x="862" 
d="M657 1110q0 -31 -30 -31q-13 0 -41 17l-176 131l-177 -129q-12 -10 -32 -11q-33 0 -33 31q0 14 18 39l187 240q18 18 41 18t43 -26l192 -256q8 -7 8 -23z" />
    <glyph glyph-name="underscore" unicode="_" horiz-adv-x="968" 
d="M969 -459h-969v62h969v-62z" />
    <glyph glyph-name="grave" unicode="`" horiz-adv-x="641" 
d="M496 1075l-35 -39l-39 21l-213 209l-45 73l98 68l96 -72l129 -231z" />
    <glyph glyph-name="a" unicode="a" horiz-adv-x="847" 
d="M485 260v324l-139 2l-80 -119v-248l25 -39l37 -26l8 -4l121 67zM879 127l-13 -39l-78 -55l-94 -60l-37 -12l-41 16l-131 136l-186 -140l-37 -12l-41 14l-178 140l-25 47l19 43l14 12l27 80v139l-4 41l-8 45v21l34 63l86 35l-4 -6l164 47l139 -4v31l7 61l6 31l-33 16
l-123 47l-121 31l-94 -150l-49 -47l-47 47l90 213l86 23l151 23l201 -31l113 28l26 9h4l48 -49l-25 -50l-41 -120v-539l41 -98l18 -2l39 12l35 18z" />
    <glyph glyph-name="b" unicode="b" horiz-adv-x="862" 
d="M594 211v573l-47 50h-4l-31 -11l-180 -80l-25 -38v-465l53 -45l185 -35l14 -2zM287 1247v-26l43 -295l49 -41l35 12l198 92l56 15l32 -13l7 -2l104 -254v-493l-8 -62l-53 -45l-109 -55l-162 -109l-39 -14l-39 14l-360 205l39 53l24 17l13 14l12 100v738l-29 100l-73 80
l-23 45l55 55l21 -2l80 -16l143 55l27 6l55 -55l-25 -45z" />
    <glyph glyph-name="c" unicode="c" horiz-adv-x="641" 
d="M350 733v-459l29 -73l90 -39l20 4l101 70l39 16l30 -23l9 -24l-25 -37l-219 -154l-25 -8l-198 80l-35 6l-31 37l21 43l24 127v483l58 68l143 102l6 9l37 28l29 -10l114 -72l11 -6l28 -43l-10 -29l-37 -67l-33 -25l-43 17l-61 39l-21 8l-16 -4z" />
    <glyph glyph-name="d" unicode="d" horiz-adv-x="847" 
d="M580 205v391l-11 217l-10 12l-102 -14l-49 -27l-66 -18l-29 -43l-53 -434l55 -90l201 -37h21zM793 840l-5 -15v-592l-47 -75l-159 -97l-111 -77l-8 -11l-39 -20l-51 31l-232 106l-26 4l-23 4l-31 35l29 51l21 66v500l-2 26l149 101l172 26l39 8l-297 322l-31 27l-14 47
v16l-2 4l2 6l8 43l105 111l-7 -80l410 -393z" />
    <glyph glyph-name="e" unicode="e" horiz-adv-x="663" 
d="M453 633l-4 16l-7 13l-53 57l-65 63l-17 9l-26 -60v-248l114 82l45 39l4 4zM281 387v-149l28 -66l107 -43l24 4l119 78l45 16l47 -51l-28 -39l-261 -168l-28 -10l-236 88l-41 6l-37 41l25 47l29 140l12 581l25 49l159 88l29 19l37 14l43 -18l227 -207l41 -80l-35 -78
l-118 -143l-48 -39l-6 -2l-12 -2z" />
    <glyph glyph-name="f" unicode="f" horiz-adv-x="546" 
d="M328 1061v-19l6 -41l37 -16l114 -2l41 -39l-6 -31l-35 -53l-168 -20v-15l-38 -549v-4l24 -39l57 -57l7 -2l6 2l43 43l30 14l46 -47l-19 -39l-135 -135l-35 -12l-35 12l-153 129l-23 43l17 41l14 13l22 71l2 502l-36 41h-19l-63 68l63 67h19l53 39l-2 174v19l39 75l104 92
l51 29l56 -14l92 -35l37 -45l-13 -31l-18 -24l-37 -23l-18 2l-68 17h-8l-47 -64z" />
    <glyph glyph-name="g" unicode="g" horiz-adv-x="935" 
d="M618 129l-61 592l-35 82l-125 28l-22 7l-15 4l-47 -47l-22 -559l8 -19l61 -82l199 -33zM96 225v572l90 106l224 92l8 6l57 21l41 -16l264 -84h19l67 8l29 4l43 -60l-8 -88l-35 -63l-123 37l-20 -62v-581l18 -47l137 -183h4l33 -45l-39 -80l-200 -124l-99 -27l-137 41
l-164 39l-94 -17l-72 -24l-39 -12l-28 8l-17 28l8 23l5 4l59 115l6 14l57 45l25 -6l68 -25l88 -12l161 2l113 -37l31 -12l45 45l-10 31l-31 121l-18 18l-101 25l-63 -15l-287 -10z" />
    <glyph glyph-name="h" unicode="h" horiz-adv-x="862" 
d="M575 242v538l-40 41l-31 -10l-142 -80l-22 -37v-450l25 -74l28 -51l-18 -41l-88 -64l-33 -12l-35 12l-84 62l-22 43l16 41l14 12l23 72v825l-25 96l-63 74l-23 43l49 53h13l78 -18l124 51l23 6l49 -51l-20 -41l-31 -82v-354l195 117l69 24l58 -24l86 -250v-473l-148 -357
l-229 -112l-47 -7l-64 37l41 45l227 166z" />
    <glyph glyph-name="i" unicode="i" horiz-adv-x="540" 
d="M467 121l-33 -39l-121 -64l-28 -10l-33 12l-80 62l-20 43l16 41l12 12l23 72l-2 463l-25 73l-45 35l-18 43l20 43l84 66l33 12l31 -12l114 -92l17 -41l-29 -52l-23 -75l2 -437l7 -86l32 -38h2l31 10l27 -21l2 -8zM475 1257l-12 -30l-139 -144l-25 -12l-39 41l4 21l68 147
l53 35l21 -2l43 -15z" />
    <glyph glyph-name="j" unicode="j" horiz-adv-x="526" 
d="M416 836l12 -52l-63 -239l8 -80v-315l-84 -320l-137 -152l-52 -22l-32 33l34 57l119 334l-10 96l-10 367l10 186l18 33l-8 20l-86 37l-18 41l20 43l84 68l33 10l31 -12l114 -92zM430 1257l-12 -30l-139 -144l-25 -14l-39 43l4 18l68 148l53 37l20 -2l43 -15z" />
    <glyph glyph-name="k" unicode="k" horiz-adv-x="1003" 
d="M694 641l-2 18l-123 193l-16 8l-70 -26l-123 -62v-291l68 4l74 9l26 28l138 82zM360 1247v-368l41 20l39 27l156 80l61 16l86 -57l148 -254l12 -35l-49 -68l-109 -82l91 -344l34 -41l50 11l22 10l27 10h4l33 -43l-33 -45l-139 -98l-56 -23l-35 12l-32 56l-97 295l-41 45
l-63 28l-150 -12v-131l33 -78l70 -37l26 -49l-22 -45l-109 -72l-36 -12l-31 8l-160 95l-27 49l21 43l14 12l27 76v862l-29 100l-71 80l-25 45l55 56h15l86 -19l139 55l26 7l56 -56l-23 -45z" />
    <glyph glyph-name="l" unicode="l" horiz-adv-x="540" 
d="M340 1202v-985l57 -61l17 10l63 67l33 13l41 -45l-21 -39l-157 -144l-8 -6l-29 -12l-23 8l-12 10l-149 88l-27 13l-19 31l25 38l4 2l35 99v782l-25 94l-63 74l-21 43l50 53h10l76 -18l120 51l23 6l49 -51l-20 -41z" />
    <glyph glyph-name="m" unicode="m" 
d="M1386 131l-18 -33l-127 -86l-47 -14l-129 86l-2 688l-43 39l-33 -10l-149 -66l-25 -35l10 -454l31 -78l14 -10l17 -41l-23 -43l-88 -60l-33 -12l-88 98l-43 658l-43 41l-32 -11l-127 -63l-23 -37v-442l25 -72l30 -51l-20 -41l-90 -64l-35 -10l-35 12l-86 60l-24 43l18 41
l14 10l23 72v444l-51 51h-52l-49 50l13 32l124 121l52 27l43 -21l32 -37l78 -75l41 18l203 105l41 12l35 -17l112 -108l183 110l47 15l33 -8l28 -23l160 -106l-39 -117l4 -451l35 -106l51 18l12 2z" />
    <glyph glyph-name="n" unicode="n" horiz-adv-x="968" 
d="M928 145l-19 -32l-125 -88l-45 -13l-127 66v688l-43 39l-32 -10l-148 -70l-22 -37v-442l24 -74l29 -51l-19 -41l-90 -62l-32 -12l-35 12l-84 60l-25 43l19 41l14 12l22 72v366l-32 142l-25 16l-27 -10l-32 -15l-29 15l-14 28l22 39l142 123l43 21l67 -58l60 -84l204 123
l47 21l39 -15l39 -24l64 -33l71 -49l-8 -35l-14 -37l-21 -78v-419l35 -107l51 17l11 4z" />
    <glyph glyph-name="o" unicode="o" horiz-adv-x="831" 
d="M526 741l-53 64l-139 35l-51 -47l-9 -529l58 -59l123 -31l16 -2l47 45zM90 309v10l-4 435v12l74 139l145 90l21 15l36 10l37 -10l254 -105l21 -2l31 -10l34 -88v-586l-57 -76l-201 -176l-41 -14l-41 16l-284 148l-31 2h-4l-45 55l35 39l6 12z" />
    <glyph glyph-name="p" unicode="p" horiz-adv-x="886" 
d="M662 238v565l-50 43l-186 -82l-27 -37v-444l56 -56l161 -96h11zM854 752v-17l-31 -502l-45 -73l-112 -99l-45 -47l-80 -53l-33 16l-29 27l-69 92l-13 -200l2 -33l2 -23l15 -24l119 -70l38 -51l-6 -23l-30 -22l-109 41l-119 14l-157 -31l-29 -10l-23 -6l-26 18l-4 11
l-9 20l25 41l88 76l23 59v244l-21 23h-100l-70 108l70 27h82l30 71v387l-30 58l-27 22l-27 15l-28 -13l-35 -10l-51 45l16 45l98 90l66 25l47 -12l121 -113l33 -21l43 21l170 102l73 27l107 -61z" />
    <glyph glyph-name="q" unicode="q" horiz-adv-x="862" 
d="M526 608q0 48 -9 64t-39 40t-71 46q-41 23 -61 38t-38 15t-32 -13t-14 -34v-479q0 -59 24 -95t83 -49q109 24 157 60v407zM780 -343q-6 1 -51 19t-124 17q-79 0 -140 -25q-11 -4 -19 -7t-28 -13t-41 -10q-20 0 -29 19q-8 19 -8 35t31 36t61 36t63 34q32 18 31 79v215
q-22 -10 -48 -17t-40 -13t-20 -8q-6 -1 -58 -38t-71 -43q-55 -11 -74 5q-17 16 -35 42t-47 58t-49 83q-20 52 -21 105v441q1 76 51 117q14 11 27 24l172 151q25 25 49 25h5q20 0 43 -23q117 -117 249 -161q13 -4 25 -5t22 -3t22 -3q11 0 37 -2t45 -14t19 -26t-26 -42
q-43 -34 -61 -68q-19 -34 -19 -50v-746q0 -39 20 -69l88 -76q27 -24 27 -39l-10 -25q-11 -26 -27 -26t-25 5q-10 5 -16 6z" />
    <glyph glyph-name="r" unicode="r" horiz-adv-x="626" 
d="M102 819h-34l-43 41l16 33l84 65l41 17l37 -21l80 -94l6 -8l10 -6l12 12l39 57l64 60l30 -17l82 -110l23 -47l-14 -31l-37 -49l-37 -55l-35 -23l-43 43l-16 29l-15 20l-10 10l-20 15l-21 -17v-528l59 -59l17 10l63 65l33 15l41 -45l-20 -39l-158 -142l-8 -6l-29 -12
l-23 8l-12 10l-151 86l-25 13l-20 31l26 36l4 4l33 99v448l-16 72z" />
    <glyph glyph-name="s" unicode="s" horiz-adv-x="808" 
d="M580 324l-7 61l-55 45l-41 27l-18 14l-4 2l-222 -303l72 27l174 -43l43 -21l6 -2l27 19l18 57zM563 821l-264 45h6l-6 2l-29 -18l-18 -57l-6 -121l6 -58l55 -45l43 -28l21 -11h4l35 70l36 90zM778 227l-53 -90l-201 -149l-61 -35l-25 6l-14 10l-195 33l-172 -4l-49 33
l23 41l53 37l98 145l86 113l-174 106l-45 90v209l51 90l201 150l61 35l27 -7l14 -10l236 -74l92 5l41 -33l-90 -92l-39 -54l-39 -39l-65 -102l34 -16l158 -99l47 -90v-209z" />
    <glyph glyph-name="t" unicode="t" horiz-adv-x="540" 
d="M475 942v-8l-49 -51l-27 -9l-30 -24l-15 -53l13 -541l2 -57l61 30l35 13h4l31 -25l2 -8l2 -10l-12 -27l-168 -154l-33 -12l-21 4l-114 78l-23 45l17 39l12 12l22 72l2 541l-36 80l-21 8l-12 2l-45 31l12 36l100 37l72 193l6 12l25 23l28 -9l21 -63l-4 -86l10 -49l12 -27
l23 -6l55 2z" />
    <glyph glyph-name="u" unicode="u" horiz-adv-x="980" 
d="M823 164l37 10l23 -6l8 -10l14 -31l-22 -35l-117 -78l-14 -8l-19 -6l-35 16l-28 29l-82 100l-217 -133l-35 -12l-72 23l-61 28l-41 49l4 17l4 8l20 90v479l-40 115l-17 -8l-18 -4l-29 20l-6 19l22 32l144 95l12 6l21 4l32 -12l90 -62l19 -41l-29 -51l-26 -74v-524l43 -39
l30 10l148 78l24 35v444l-24 68l-13 12l-18 41l23 43l86 60l34 12l33 -12l90 -62l19 -41l-31 -51l-25 -74v-530z" />
    <glyph glyph-name="v" unicode="v" horiz-adv-x="876" 
d="M604 205l-10 477l-70 158l-55 -72l-139 -162l-2 -317l57 -90l160 -39h16zM141 242v8l-6 481l-18 49l-70 84l-82 148l66 174l110 92l62 16l41 -41l-29 -30l-16 -6l-82 -117l41 -82l133 -158l39 -112l164 192l2 4l67 60l39 14l43 -19l78 -90l68 -194l18 -484l-43 -71
l-160 -99l-108 -77l-17 -17l-30 -12l-52 29l-227 106l-80 43l10 29l35 47z" />
    <glyph glyph-name="w" unicode="w" horiz-adv-x="1302" 
d="M604 262v445l-18 90l-72 28l-115 -71l-12 -13v-471l53 -92l70 -49l41 -37l6 17l16 36l21 86zM1038 158h19l43 43l-10 477l-78 168l-8 8l-162 -41l-13 -14l-34 -97v-417l55 -90zM195 303v428l-17 49l-67 84l-82 148l63 172l21 33l22 24l68 39l55 14h6l25 -10l4 -6l8 -23
l-27 -30l-18 -8l-78 -117l39 -82l72 -82l43 -53l28 -41l115 67l160 88l37 13l37 -15l120 -88l172 39l58 53l39 15l43 -19l76 -90l65 -194l18 -482v-4l-45 -69l-153 -99l-107 -77l-8 -9l-8 -8l-31 -12l-49 29l-221 188l-14 -31l-21 -63l-78 -97l-2 -2l-12 -6l-59 -16
l-283 156l-39 4l-29 16l-8 23l17 26l6 6z" />
    <glyph glyph-name="x" unicode="x" horiz-adv-x="888" 
d="M834 193l-7 -25l-79 -131l-58 -33l-201 197l-59 108l-6 19l-8 18v12l-25 -49l-117 -276l-51 -31l-24 4l-133 60l-25 34l10 39l33 62l39 24l22 -6l70 -29l16 -4l5 4l124 267l-135 245l-65 86h-10l-29 -24l-33 -23l-53 45l6 23l80 131l6 8l113 25l139 -197l76 -147v-8
l26 38l117 283l51 31l25 -4l133 -60l27 -35l-13 -38l-33 -62l-38 -24l-23 6l-70 28l-16 4l-6 -4l-123 -264l133 -246l64 -86l32 21l19 14l6 6l16 9z" />
    <glyph glyph-name="y" unicode="y" horiz-adv-x="862" 
d="M795 682l-47 -336l-113 -125l-273 -119l-63 -227l33 -117l88 60l94 43l61 -66v-4l-198 -133l-168 25l-84 137l47 164l31 59l12 72l8 145v432l-51 90l-2 -4l-6 -4l-29 -12l-31 10l-28 43l10 25l143 125l35 12l62 -35l51 -70l20 -120v-484l41 -41l39 9l94 94l25 41l27 51
l26 176l-28 152l-21 26l-6 8l-29 15l-10 -4l-27 -9l-26 13l-19 32l11 23l137 115l31 8l57 -39l45 -94z" />
    <glyph glyph-name="z" unicode="z" horiz-adv-x="641" 
d="M551 315l-53 -157l-84 -99l-166 -163l-17 -37l50 -54l45 5l77 -62l-102 -80l-121 35l-53 164l70 131l51 61l41 54l67 114l21 76l-135 146l-64 -19l-2 -2l-22 -6l-48 51l9 33l135 158l24 18l27 49l-25 49l-53 35l-18 6l-96 -39l-35 41l35 56l127 84l28 12l41 -12l76 -50
l63 -32l56 -54l-19 -36l-127 -166l-6 -21l33 -37z" />
    <glyph glyph-name="braceleft" unicode="{" horiz-adv-x="366" 
d="M356 1376l-37 -55l-120 -320l-21 -243l-100 -135l96 -144l25 -295l120 -319l35 -55l-32 -37l-54 24l-139 152l-88 319l-2 135l-125 162h-12l-49 56l53 55l133 170l2 72l88 319l139 152l54 24z" />
    <glyph glyph-name="bar" unicode="|" horiz-adv-x="641" 
d="M272 1393q0 45 39 61h8q39 0 50 -45q2 -6 2 -18l16 -1323q0 -54 -43 -72q-6 -2 -20 -2q-24 0 -37 26.5t-13 49.5l-2 1319v4z" />
    <glyph glyph-name="braceright" unicode="}" horiz-adv-x="442" 
d="M588 616l-51 -55h-11l-125 -162l-2 -135l-88 -319l-139 -152l-53 -24l-33 36l35 56l121 319l24 295l96 143l-100 136l-20 243l-121 320l-37 55l35 37l53 -25l139 -151l88 -320l2 -71l134 -170z" />
    <glyph glyph-name="asciitilde" unicode="~" horiz-adv-x="980" 
d="M713.5 1253.5q21.5 -21.5 21.5 -40.5t-18 -37l-135 -121q-14 -15 -36 -15t-36 11l-135 79l-8 5q-4 0 -11 -5l-63 -47q-14 -10 -33 -10t-33 13.5t-14 34.5t20 36l136 121q15 14 31 14t24 -3t9 -4t5 -3l135 -84l9 -4h4q0 2 4 4l65 51q37 26 58.5 4.5z" />
    <glyph glyph-name="exclamdown" unicode="&#xa1;" horiz-adv-x="479" 
d="M389 41q0 -13 -9 -25t-24 -12t-84 53q-59 59 -59 113l2 612q0 54 37 56q31 0 42 -58q3 -16 7 -32t5 -32t3 -32l80 -637v-6zM352 1184q17 -20 17 -45t-15 -41l-57 -66q-13 -16 -33 -16t-32 15t-27 31q-13 16 -29 32t-18 23t-2 28t14 35l2 4l53 63q17 17 37 17t35 -17z" />
    <glyph glyph-name="cent" unicode="&#xa2;" horiz-adv-x="722" 
d="M397 1184v-37l-14 -72l209 -110l12 -29l-8 -29l-64 -82l-24 -12l-21 6l-120 82l-19 -47v-539l72 -73l63 30l41 23l39 14l39 -45l-108 -98l-56 -33l-35 -24l-16 -43l2 -162l-49 -2l-51 104v17l14 124l-76 17l-20 10l-70 14l-37 43l80 113v385l-28 113h-11l-35 41l52 71
l145 127v222l51 -15z" />
    <glyph glyph-name="sterling" unicode="&#xa3;" horiz-adv-x="1302" 
d="M709 182v379l-91 2l25 -201l-27 -137l50 -47zM709 711v401l-113 -53l-31 -121v-16l25 -203l45 -8h74zM750 1120v-409h159l56 -41l-23 -101l-154 -12l-38 2v-373l98 9l231 -23l37 -4l33 -8l41 -62l-109 -121l-141 41l-322 41l-419 -82l-29 -10l-20 -6h-5l-32 35l153 108
l180 64l43 61l-45 330h-307l-39 31l11 24l114 78h148l41 21l-15 295l45 67l355 172l24 15l27 8l20 -8l297 -177l21 -36l-17 -29l-10 -6l-12 -4l-60 -33l-34 -12l-33 10l-217 133l-55 20l-19 -8h21z" />
    <glyph glyph-name="currency" unicode="&#xa4;" 
d="M510 784h-191l-67 -213l176 -202zM729 784h-84l-8 -53l-141 -420l233 -75v548zM518 940h-149l-43 -135h188l2 12v94zM729 805v135h-61l-19 -135h80zM729 963v260l-18 -25l-17 -82l-22 -153h57zM33 782v23h141l57 135h-139v23h150l176 407l43 21l41 -50l-15 -30l-110 -348
h141l2 65l66 172l245 221l11 11l22 10l31 -12l211 -64l78 23l41 16l26 8l27 -31l-49 -118l-72 -66l-80 -33l-76 19l-221 80l-10 -4v-297h559v-23h-559v-133h477v-23h-477v-561h-4l68 -22l421 196l72 29l39 -59l-524 -367l-412 129l-319 299l12 260l41 94h-131z" />
    <glyph glyph-name="currency" unicode="&#x20ac;" 
d="M510 784h-191l-67 -213l176 -202zM729 784h-84l-8 -53l-141 -420l233 -75v548zM518 940h-149l-43 -135h188l2 12v94zM729 805v135h-61l-19 -135h80zM729 963v260l-18 -25l-17 -82l-22 -153h57zM33 782v23h141l57 135h-139v23h150l176 407l43 21l41 -50l-15 -30l-110 -348
h141l2 65l66 172l245 221l11 11l22 10l31 -12l211 -64l78 23l41 16l26 8l27 -31l-49 -118l-72 -66l-80 -33l-76 19l-221 80l-10 -4v-297h559v-23h-559v-133h477v-23h-477v-561h-4l68 -22l421 196l72 29l39 -59l-524 -367l-412 129l-319 299l12 260l41 94h-131z" />
    <glyph glyph-name="yen" unicode="&#xa5;" horiz-adv-x="1447" 
d="M565 621h-61v-347l61 -20v367zM565 643v94h-61v-94h61zM606 621v-379l215 -70l299 449h-514zM606 737v-94h531l26 41l-37 53h-520zM1440 737h-109l21 -28l-54 -66h136v-22h-156l-457 -547l-241 24l-111 -22l-250 -115l-115 -180l152 -119l283 109l311 114l283 -266
l-99 -102l-76 41l-71 129l-6 10l-4 -2l-82 12l-99 -22l-137 -56l-287 -80l-290 267l182 250l162 151l-162 207l-64 45l-18 14l-31 60l60 47h8l108 -39l41 -25l35 -8l27 57v21l-19 25h-301v22h283l-74 94h-203v23h185l-15 18l-104 94l-55 89l73 43l64 -25l53 -45l105 -57
l16 22l-188 358l-109 66l186 74l277 -283v-354h61v364h41v-364h504l-344 500l-39 36l160 78l428 -614h125v-23z" />
    <glyph glyph-name="brokenbar" unicode="&#xa6;" horiz-adv-x="1646" 
d="M379 1028v-156h-25l27 -45l63 -16l45 121l-192 242l-8 8l-15 -27l-10 -45l-10 -72l6 -10h119zM1303 340v-164l22 -26l45 120l-184 236l-29 -10l-12 -41l-10 -76l30 -39h138zM442 -299l-47 -55l-137 -35l-233 199l86 186h88l-37 -113l172 -151l67 8zM637 1042l-135 -307
l-168 -86l-225 283l84 262l73 18l-6 9l21 43l51 36l82 25zM1229 1268l-10 -33l-719 -1219l-64 -34l-76 75l13 39l733 1202l57 35zM1518 381l-136 -305l-165 -86l-228 280l84 265l92 -5l-24 31l151 105l125 -62z" />
    <glyph glyph-name="section" unicode="&#xa7;" horiz-adv-x="1646" 
d="M240 340h137l31 39l-11 76l-12 41l-29 10l-184 -236l45 -120l23 26v164zM1163 872v156h119l6 10l-10 72l-10 45l-15 27l-200 -250l45 -121l63 16l27 45h-25zM553 270l-227 -280l-166 86l-135 305l100 223l125 62l151 -105l-24 -31l92 5zM1518 -190l-234 -199l-137 35
l-47 55l41 39l67 -8l172 151l-37 113h89zM1182 57l-76 -75l-64 34l-718 1219l-11 33l66 65l57 -35l733 -1202zM1434 932l-226 -283l-168 86l-135 307l223 283l82 -25l52 -36l20 -43l-6 -9l74 -18z" />
    <glyph glyph-name="dieresis" unicode="&#xa8;" horiz-adv-x="663" 
d="M281 1153l-97 -88l-96 82l100 86zM578 1147l-99 -80l-98 80l98 86z" />
    <glyph glyph-name="copyright" unicode="&#xa9;" horiz-adv-x="1370" 
d="M612 516v432l9 41l28 21l10 2l23 -8l78 -48l22 -8l25 -8l14 35l39 65l8 25l-39 55l-114 68l-31 10l-47 -43l-139 -92l-60 -68v-463l-22 -120l-6 -9l-17 -36l35 -37l35 -4l131 -56l65 -24l27 10l217 147l27 35l-41 49l-41 -16l-100 -68l-19 -2l-88 35zM1329 713
q0 -139 -51 -260q-102 -242 -349 -357q-120 -55 -255 -59v-4q-150 0 -278 54q-260 110 -370 362q-54 123 -54 263t53 263q109 252 361 360q124 53 264 53t264 -53q252 -108 362 -360q54 -123 53 -262z" />
    <glyph glyph-name="ordfeminine" unicode="&#xaa;" horiz-adv-x="542" 
d="M303 985v223l-127 -82v-161l12 -21l25 -16l2 2l72 41zM582 903l-9 -29l-118 -79l-29 -9l-33 13l-82 84l-116 -88l-33 -9l-31 11l-121 94l-16 35l14 37l12 8l15 43v94l-4 25l-6 32v13l28 49l119 51l129 29l-33 28l-188 76l-57 -33l69 125l105 -18l163 -15l70 17l27 6
l39 -41l-21 -39l-22 -72v-356l18 -55h10l4 -2l17 6l33 14z" />
    <glyph glyph-name="guillemotleft" unicode="&#xab;" horiz-adv-x="946" 
d="M436 377q17 -22 17 -51q1 -29 -21 -44q-22 -14 -44 -14t-38 17l-219 215q-43 39 -43 77t45 80l211 209q17 17 33 17q73 0 76 -58q0 -25 -19 -53l-92 -143q-18 -29 -18 -55t24 -62zM800 883q68 0 68 -52q0 -33 -16 -59l-92 -143q-26 -44 -17 -71q8 -27 21 -46l92 -135
q12 -18 12 -50t-22 -45q-48 -28 -78 3l-221 215q-41 41 -41 71q0 29 12 47t33 39l211 209q17 17 38 17z" />
    <glyph glyph-name="logicalnot" unicode="&#xac;" horiz-adv-x="2240" 
d="M1180 635h-70v-393l45 -80l25 12v461zM909 1241v6l-37 74h-8l-98 -35l-178 -102l-109 -293l-2 -168l430 2zM1180 729v481l-80 -36v-52l8 -395zM1509 729v418l-57 149l-39 17l-192 -82v-502h288zM1704 594v-414l18 -65l78 20l47 -51l-24 -35l-35 -20l-150 -72l-129 250
v430l-288 -2v-440l51 24l33 12l51 -43v-4l-21 -34l-258 -179l-51 -16l-53 31l-70 71l-29 62l19 47l14 47v420l-432 -2l-2 -275l-24 -166l-23 -79l43 -7l31 9l55 6l45 -35l-158 -123l-186 12l-127 -28l-106 -35l-54 45l156 141l188 203l-41 332l-196 -72l-33 45l119 117
l47 16l86 13v53l158 457l376 190l127 41l144 -176l10 -15l20 7l246 129l109 32l205 -112l79 33l113 41l33 -60l-21 -31l-102 -61l-88 -80v-393l364 364l33 13l47 -47l-14 -33l-405 -404l473 -469l14 -32l-47 -50l-33 15z" />
    <glyph glyph-name="registered" unicode="&#xae;" horiz-adv-x="1462" 
d="M594 688v232l94 81l49 48l68 -72l76 -92l-107 -78zM1178 434l-43 37l-37 -14l-23 -8l-16 22l-43 150l-29 49l-37 41l-65 53l-17 10l11 21l75 53l62 72l-29 47l-53 59l-72 90l-67 51l-213 -168l-201 166h-6l-119 -67l66 -39l131 -125v-184l8 -11l-15 6l-45 5l-67 -76
l125 -33l10 -152v-4l-33 -8l-127 -45l-65 -72l32 -43l33 13l150 45l205 -76l14 -10l20 -8l166 159l-39 31l-28 -14l-23 -21l-39 -22l-129 57l-2 2l-4 2l-6 53v78l145 92l90 -39l78 -131l45 -131l74 -57zM1329 713q0 -139 -51 -260q-102 -242 -349 -357q-120 -55 -255 -59v-4
q-150 0 -278 54q-260 110 -370 362q-54 123 -54 263t53 263q109 252 361 360q124 53 264 53t264 -53q252 -108 362 -360q54 -123 53 -262z" />
    <glyph glyph-name="macron" unicode="&#xaf;" horiz-adv-x="540" 
d="M377 1120h-250l-64 27v6l35 55l66 27h242l75 -27l-4 -10v-2l-33 -49z" />
    <glyph glyph-name="degree" unicode="&#xb0;" horiz-adv-x="724" 
d="M608 1051l-129 -297l-155 -82l-215 272l79 254l33 12l45 -49l-10 -45l-10 -69l121 -203l59 -17l43 117l-217 279l20 43l47 34l78 25z" />
    <glyph glyph-name="plusminus" unicode="&#xb1;" horiz-adv-x="665" 
d="M506 346h-385l-74 39v8l45 92l80 39h371l90 -37l-4 -16l-43 -84zM422 815v-94l-39 -82l-80 -47h-8l-39 76v149h-143l-74 39v10l47 80l80 39h90v98l39 82l74 45l18 4l35 -40l2 -54v-135h121l53 -2l39 -37l-4 -16l-45 -76l-80 -39h-86z" />
    <glyph glyph-name="acute" unicode="&#xb4;" horiz-adv-x="641" 
d="M592 1339l-45 -73l-213 -209l-39 -21l-35 39l8 29l129 231l97 72z" />
    <glyph glyph-name="mu" unicode="&#xb5;" horiz-adv-x="980" 
d="M373 -74v-24l14 -49l107 -66l36 -49l-10 -27l-2 -4l-22 -10l-43 14l-50 23l-110 14l-139 -29l-45 -14l-29 27l-8 24l22 33l78 70l18 41v792l-40 115l-17 -8l-18 -4l-29 20l-6 19l20 34l146 95l12 6l21 4l32 -12l90 -64l19 -41l-31 -51l-24 -74v-530l43 -39l30 10l148 78
l24 37v448l-24 70l-13 10l-18 41l23 43l86 62l32 12l35 -12l90 -64l19 -41l-31 -51l-25 -74v-536l39 -39l37 10l23 -8l8 -8l14 -31l-22 -35l-117 -80l-14 -8l-19 -6l-35 16l-28 29l-82 102l-213 -129z" />
    <glyph glyph-name="paragraph" unicode="&#xb6;" horiz-adv-x="1216" 
d="M174 1165q0 107 95 210q38 40 75 63q37 22 52 22q14 0 30 -11t24 -17t51 -39q42 -33 84 -53q43 -21 54 -29q33 -14 33 -47v-13l-2 -10l57 -1499v-8q0 -35 -29 -49t-118 -15h-33l-55 -2q-80 0 -78 53q0 44 39 46q2 0 30 -7h2q63 0 113 66q12 16 12 33v2l6 909
q-120 -6 -162 -25t-64 -40q-24 -21 -36 -21t-42 28t-73 56q-43 29 -48 39t-5 27l2 30v8l-14 283v10zM1075 -274v-5q0 -51 -80 -53l-55 2h-31q-89 0 -117 14t-30 56l-49 1589v4q0 37 28 51q29 14 119 15h31l55 2q82 0 80 -53q0 -45 -39 -45q-4 0 -31 6h-2v2q-37 0 -85 -38
t-50 -69v-4l60 -1337q0 -31 42 -66t80 -37h5q24 6 30 7q39 0 39 -41z" />
    <glyph glyph-name="periodcentered" unicode="&#xb7;" horiz-adv-x="428" 
d="M356 606l-16 -41l-82 -82l-41 -16l-41 16l-82 82l-16 41l16 41l82 82l41 16l41 -16l82 -82z" />
    <glyph glyph-name="periodcentered" unicode="&#x2219;" horiz-adv-x="428" 
d="M356 606l-16 -41l-82 -82l-41 -16l-41 16l-82 82l-16 41l16 41l82 82l41 16l41 -16l82 -82z" />
    <glyph glyph-name="cedilla" unicode="&#xb8;" horiz-adv-x="641" 
d="M479 160l-53 -174l37 -39l12 -35l-12 -35l-90 -115l-35 -18l-39 43l6 25l25 49v2l2 4l-31 20l-20 47l14 43l22 21l78 162h84z" />
    <glyph glyph-name="onesuperior" unicode="&#xb9;" 
d="M893 223h-41v1061h41v-1061z" />
    <glyph glyph-name="ordmasculine" unicode="&#xba;" horiz-adv-x="532" 
d="M332 1309l-27 32l-92 25l-25 -23l-8 -348l113 -51h10l23 21zM494 967l-43 -58l-80 -59l-58 -57l-10 -7l-20 -6l-35 15l-182 94l-25 2l-39 45l27 35l2 2l8 55v4l-2 285v10l55 96l96 60l43 18l29 -8l166 -68l14 -2l54 -73v-383z" />
    <glyph glyph-name="guillemotright" unicode="&#xbb;" horiz-adv-x="946" 
d="M449 571q0 -30 -41 -71l-222 -215q-28 -28 -75 -5q-25 11 -25 44t12 53l92 135q23 34 23 60t-18 57l-93 143q-16 27 -16 47t10 42t45 22t52 -17l210 -209q20 -20 33 -38t13 -48zM866 570q0 -31 -43 -70l-219 -215q-33 -33 -76 -6q-26 16 -26 46t16 52l88 135q25 36 25 62
t-19 55l-92 143q-18 29 -18 47q0 64 63 64q30 0 45 -17l211 -209q17 -18 31 -37t14 -50z" />
    <glyph glyph-name="onequarter" unicode="&#xbc;" horiz-adv-x="2240" 
d="M1221 96h-41v1184h41v-1184z" />
    <glyph glyph-name="onehalf" unicode="&#xbd;" horiz-adv-x="1427" 
d="M729 260h-41v979h41v-979z" />
    <glyph glyph-name="threequarters" unicode="&#xbe;" horiz-adv-x="2260" 
d="M2222 367l-530 -367h-6l-492 223l170 817l66 160l249 221l11 11l22 10l246 -76l110 33l37 14l27 -31l-51 -116l-154 -156l-10 -29l133 -16l29 2l2 6l20 29l39 16l41 -41l-113 -180l-86 -49h-229l-76 65v13l148 266l-2 2l-94 39l-99 29l-33 -11l-49 -90l-86 -487
l-176 -400l397 -73l426 196l68 27z" />
    <glyph glyph-name="questiondown" unicode="&#xbf;" horiz-adv-x="641" 
d="M563 215l-14 -37l-105 -123l-8 -8l-57 -27l-148 50l-143 264l37 110l94 158l105 184l6 23l-6 33l51 57l57 -86l-160 -465v-4l125 -123l117 45zM506 1169l-25 -45l-82 -59l-30 -12l-35 12l-86 63l-17 41l19 41l86 64l33 12l32 -12l82 -62z" />
    <glyph glyph-name="Agrave" unicode="&#xc0;" 
d="M479 514h-10l-86 -98l51 -84l258 -127l10 -4h5l79 51l50 29l16 14v248l-59 -47h-5zM956 385v750l-63 26v-831zM1407 248l-125 -137l-201 -111l-125 260l-280 -213l-33 -12l-22 4l-334 213l-49 -66l28 -106l-96 -96l-94 96l55 172l481 686l15 31l-39 39l-113 -58l-47 -22
l-74 73l273 154l207 -127l-121 -197l-142 -157l-28 -43l266 14l43 -20v553l-217 86l-215 -23l-49 -18l-37 -11l-31 29l33 51l328 101l249 -68l86 -45l50 -18l84 63l53 47l53 27l47 -58l-31 -55l-49 -39l-65 -110l2 -869l20 -69l78 47l51 37l49 18zM899 1479l-37 -41l-45 20
l-231 230l-51 81l110 74l103 -80l143 -252z" />
    <glyph glyph-name="Aacute" unicode="&#xc1;" 
d="M479 514h-10l-86 -98l51 -84l258 -127l10 -4h5l79 51l50 29l16 14v248l-59 -47h-5zM956 385v750l-63 26v-831zM1407 248l-125 -137l-201 -111l-125 260l-280 -213l-33 -12l-22 4l-334 213l-49 -66l28 -106l-96 -96l-94 96l55 172l481 686l15 31l-39 39l-113 -58l-47 -22
l-74 73l273 154l207 -127l-121 -197l-142 -157l-28 -43l266 14l43 -20v553l-217 86l-215 -23l-49 -18l-37 -11l-31 29l33 51l328 101l249 -68l86 -45l50 -18l84 63l53 47l53 27l47 -58l-31 -55l-49 -39l-65 -110l2 -869l20 -69l78 47l51 37l49 18zM1120 1769l-51 -81
l-231 -230l-45 -20l-37 41l8 32l143 252l105 80z" />
    <glyph glyph-name="Acircumflex" unicode="&#xc2;" 
d="M479 514h-10l-86 -98l51 -84l258 -127l10 -4h5l79 51l50 29l16 14v248l-59 -47h-5zM956 385v750l-63 26v-831zM1407 248l-125 -137l-201 -111l-125 260l-280 -213l-33 -12l-22 4l-334 213l-49 -66l28 -106l-96 -96l-94 96l55 172l481 686l15 31l-39 39l-113 -58l-47 -22
l-74 73l273 154l207 -127l-121 -197l-142 -157l-28 -43l266 14l43 -20v553l-217 86l-215 -23l-49 -18l-37 -11l-31 29l33 51l328 101l249 -68l86 -45l50 -18l84 63l53 47l53 27l47 -58l-31 -55l-49 -39l-65 -110l2 -869l20 -69l78 47l51 37l49 18zM1079 1470l-30 -34l-43 20
l-187 146l-188 -146l-33 -10l-35 35l21 41l196 266l43 20l45 -28l203 -283z" />
    <glyph glyph-name="Atilde" unicode="&#xc3;" 
d="M479 514h-10l-86 -98l51 -84l258 -127l10 -4h5l79 51l50 29l16 14v248l-59 -47h-5zM956 385v750l-63 26v-831zM1407 248l-125 -137l-201 -111l-125 260l-280 -213l-33 -12l-22 4l-334 213l-49 -66l28 -106l-96 -96l-94 96l55 172l481 686l15 31l-39 39l-113 -58l-47 -22
l-74 73l273 154l207 -127l-121 -197l-142 -157l-28 -43l266 14l43 -20v553l-217 86l-215 -23l-49 -18l-37 -11l-31 29l33 51l328 101l249 -68l86 -45l50 -18l84 63l53 47l53 27l47 -58l-31 -55l-49 -39l-65 -110l2 -869l20 -69l78 47l51 37l49 18zM1139 1642l-21 -40
l-139 -140l-39 -16l-37 12l-141 90l-10 4l-9 -4l-67 -55l-31 -10l-55 53l20 43l144 139l39 17l24 -4l152 -105l10 -4l8 4l68 60l30 10z" />
    <glyph glyph-name="Adieresis" unicode="&#xc4;" 
d="M479 514h-10l-86 -98l51 -84l258 -127l10 -4h5l79 51l50 29l16 14v248l-59 -47h-5zM956 385v750l-63 26v-831zM1407 248l-125 -137l-201 -111l-125 260l-280 -213l-33 -12l-22 4l-334 213l-49 -66l28 -106l-96 -96l-94 96l55 172l481 686l15 31l-39 39l-113 -58l-47 -22
l-74 73l273 154l207 -127l-121 -197l-142 -157l-28 -43l266 14l43 -20v553l-217 86l-215 -23l-49 -18l-37 -11l-31 29l33 51l328 101l249 -68l86 -45l50 -18l84 63l53 47l53 27l47 -58l-31 -55l-49 -39l-65 -110l2 -869l20 -69l78 47l51 37l49 18zM596 1712q44 0 72 -30
t28 -72q0 -43 -30 -74t-73 -31q-42 0 -72 30q-29 30 -29 73q0 44 30 74t74 30zM905 1712q45 0 75 -32t30 -73q0 -42 -31 -71t-73 -29t-74 29t-31 72q-1 44 29 74t75 30z" />
    <glyph glyph-name="Aring" unicode="&#xc5;" 
d="M479 514h-10l-86 -98l51 -84l258 -127l10 -4h5l79 51l50 29l16 14v248l-59 -47h-5zM956 385v750l-63 26v-831zM973 1605.5q0 22.5 -15.5 38t-38 15.5t-38 -15.5t-15.5 -38t15.5 -38t38 -15.5t38 15.5t15.5 38zM1407 248l-125 -137l-201 -111l-125 260l-280 -213l-33 -12
l-22 4l-334 213l-49 -66l28 -106l-96 -96l-94 96l55 172l481 686l15 31l-39 39l-113 -58l-47 -22l-74 73l273 154l207 -127l-121 -197l-142 -157l-28 -43l266 14l43 -20v553l-217 86l-215 -23l-49 -18l-37 -11l-31 29l33 51l328 101l249 -68l86 -45l50 -18l84 63l53 47
l53 27l47 -58l-31 -55l-49 -39l-65 -110l2 -869l20 -69l78 47l51 37l49 18zM1050.5 1470.5q-57.5 -57.5 -138.5 -57.5t-139 56.5t-58 138.5t57 139t139 57t139.5 -57t57.5 -138t-57.5 -138.5z" />
    <glyph glyph-name="AE" unicode="&#xc6;" horiz-adv-x="2320" 
d="M561 514h-10l-86 -98l51 -84l258 -127l10 -4h4l80 51l50 29l16 14v248l-60 -47h-4zM1245 199v2l2 -2h-2zM1038 385v750l-63 26v-831zM2222 367l-530 -367h-6l-300 135l-22 -24l-201 -111l-125 260l-280 -213l-33 -12l-23 4l-333 213l-50 -66l13 -43l16 -63l-96 -96
l-94 96l55 172l481 686l15 31l-39 39l-113 -58l-47 -22l-74 73l273 154l206 -127l-120 -197l-142 -157l-28 -43l266 14l43 -20v553l-217 86l-215 -23l-49 -18l-37 -11l-31 29l33 51l327 101l250 -68l86 -45l49 -18l84 63l54 47l53 27l47 -58l-31 -55l-49 -39l-65 -110
l2 -764l139 667l66 160l249 221l11 11l22 10l246 -76l110 33l37 14l27 -31l-51 -116l-68 -66l-260 -323l-31 -33l-10 -29l277 -16l49 63l2 6l20 29l39 16l41 -41l-112 -180l-86 -49h-373l-76 66v12l332 471l-2 2l-94 39l-99 29l-33 -11l-49 -90l-86 -487l-176 -400l397 -73
l426 196l68 27z" />
    <glyph glyph-name="Ccedilla" unicode="&#xc7;" 
d="M729 236v987l-18 -25l-17 -82l-57 -385l-141 -420zM578 -117q0 2 2 4l-37 25q-10 8 -18 30l-7 21l17 51l26 23l8 -2v4l-6 4l25 37l-158 49l-319 299l12 260l295 682l43 21l41 -50l-15 -30l-235 -740l176 -202l88 448v94l4 117l66 172l245 221l11 11l22 10l31 -12l211 -64
l78 23l41 16l26 8l27 -31l-49 -118l-72 -66l-80 -33l-76 19l-221 80l-10 -4v-1037h-4l68 -22l421 196l72 29l39 -59l-524 -367l-135 43l6 -18h-25l47 -48q22 -40 13 -54.5t-15 -22.5l-106 -131q-21 -21 -41 -21q-45 0 -45 47q0 14 8 29l22 47q4 8 7 10v2z" />
    <glyph glyph-name="Egrave" unicode="&#xc8;" 
d="M991 1146q0 11 -2 13q-14 3 -41 15q-128 54 -154 55q-58 0 -76 -46q-25 -63 -52 -269q-52 -404 -154 -564q-16 -28 -32 -54t-38 -60q45 -35 99 -62q65 110 109 226t76 192t45 129q29 108 65 166q8 76 116 202q38 46 39 57zM1413 276q0 -24 -43 -90q-97 -150 -300 -242
q-102 -48 -246 -48t-286 60q-284 120 -405 395q-57 133 -57 267q0 227 115 454q88 170 202 271q25 21 47 21t33 -19q10 -19 10 -31t-16 -34q-252 -252 -252 -608q0 -126 87 -274q30 -50 71 -95q46 96 77 185t35 228t14 242q11 103 25 138q26 66 201 204l76 64q16 14 25 22
t14 11q4 4 8 12q10 10 23 10t36 -14q109 -66 226 -66q35 1 76 19l51 22q27 10 30 11q27 0 27 -38q0 -73 -74 -140q-10 -9 -20 -19q-11 -10 -19 -16t-23 -26t-53 -53q-38 -34 -38 -57v-4q0 -15 46 -16q46 -2 87 -2t41 10q6 8 11 16q21 32 50 31q45 0 45 -43q0 -34 -90 -150
q-20 -26 -34 -46t-32 -32q-18 -13 -55 -13h-244q-14 0 -22 2q-19 -49 -31 -99t-47 -133t-78 -199t-108 -227q92 -29 200 -28h13q167 0 363 136q52 36 85 69q37 36 84 30q16 -4 28 -23q11 -21 11 -45zM635 1812q0 78 117 78q40 0 62 -17t50 -67l152 -264q10 -17 10 -35
q0 -41 -41 -43q-20 0 -47 23l-250 239q-27 25 -40 43t-13 43z" />
    <glyph glyph-name="Eacute" unicode="&#xc9;" 
d="M913 117v682l-20 2l-64 -197l-200 -465l200 -28h13zM991 1165l-2 2l-100 41l-103 31l-34 -10l-54 -96l-63 -408l-123 -373l-70 -114l99 -62l202 463l41 131l52 125l118 166zM954 799v-672l338 192l64 29l18 -2l39 -57l-563 -393l-430 133l-221 274l-123 326l317 727
l47 20l43 -53l-16 -33l-252 -612l158 -371l106 320l25 377l69 170l152 137l115 98l8 10l24 13l35 -15l226 -67l88 24l39 17l30 10l27 -33l-53 -125l-74 -69l-57 -60l-33 -78l-10 -26v-4l141 -9l29 2l4 7l22 63l39 16l45 -43l-119 -190l-92 -53h-205zM1001 1812l-55 -86
l-250 -239l-47 -23l-39 43l8 35l154 264l111 84z" />
    <glyph glyph-name="Ecircumflex" unicode="&#xca;" 
d="M991 1147q0 10 -2 12q-18 5 -95 38q-77 32 -99 32q-59 0 -78 -48q-24 -61 -51 -267q-52 -404 -154 -564q-16 -28 -32 -54t-38 -60q45 -35 99 -62q65 110 109 226t76 192t45 128q30 113 65 169q8 72 116 201q38 47 39 57zM1090 1038q0 -16 85 -16t85 4q4 0 4 4q6 8 11 16
q18 30 50 31q45 0 45 -43q0 -34 -69 -123t-87 -104q-18 -14 -55 -14h-244q-14 0 -22 2q-19 -47 -31 -97t-47 -133q-35 -81 -78 -199t-108 -229q105 -28 200 -28h13q167 0 363 136q52 36 85 69q37 36 84 30q16 -4 28 -23q11 -21 11 -45t-43 -90q-97 -150 -300 -242
q-102 -48 -246 -48t-286 60q-284 120 -405 395q-57 133 -57 267q0 227 115 454q88 171 202 274q25 20 48 20q22 0 32 -20t10 -34t-16 -30q-252 -252 -252 -608q0 -128 87 -276q30 -50 71 -95q46 96 77 185t34 204q9 324 40 404q26 66 201 204l76 66q41 34 46 43q5 10 20 10
t23 -4t24 -13t74 -36t119 -27q61 1 102 19l51 22q22 11 30 11q27 0 27 -49t-53 -107l-36 -36q-16 -15 -24 -21t-18 -19q-23 -29 -60 -62q-36 -33 -36 -55v-4zM588 1475q-37 0 -37 34q0 16 20 45l211 281q27 20 47 20q21 0 48 -30l219 -297q8 -11 8 -29q0 -33 -33 -35
q-24 0 -47 19l-201 153l-198 -151q-16 -10 -37 -10z" />
    <glyph glyph-name="Edieresis" unicode="&#xcb;" 
d="M991 1157l-2 4l-100 39l-103 31l-34 -10l-54 -97l-63 -403l-123 -371l-70 -112l99 -64l202 461l41 129l52 125zM1159 795h-266l-64 -195l-200 -463l200 -28h13l514 237l18 -2l39 -57l-563 -391l-508 172l-266 557l317 723l47 20l43 -53l-16 -33l-252 -608l158 -369
l106 318l25 374l69 170l267 234l8 10l24 10l261 -80l88 25l39 16l30 11l27 -33l-53 -123l-164 -166l-10 -27v-4l141 -18l29 4l26 37l39 16l45 -43l-119 -190zM598 1759q47 1 77 -31t30 -77t-32 -78t-78 -33t-78 31t-32 77t33 78t80 33zM930 1759q46 -1 78 -33t32 -77
t-32 -76t-77 -31q-46 0 -80 31t-34 76t33 77t80 33z" />
    <glyph glyph-name="Igrave" unicode="&#xcc;" horiz-adv-x="1046" 
d="M90.5 134.5q-18.5 -0.5 -18.5 25.5q0 40 37.5 86.5t130.5 46.5q57 0 108 -37q16 -14 30.5 -29.5t31.5 -31.5q53 63 53 182t-55.5 217t-137.5 98q-28 0 -52.5 -14t-39 -22.5t-33.5 -8.5q-36 0 -36 39v4q0 58 90.5 109t122.5 51q33 0 52 11t27 61t33 131.5t37 152.5v8
q0 16 -12.5 16.5t-22.5 0.5h-20l-105 6l-26 -2q-70 -41 -90 -41q-39 0 -39 50t60.5 104.5t164.5 54.5l168 -4q23 0 43 7t43 11h6q10 0 24.5 -9t14.5 -32q-58 -87 -87.5 -215.5t-29.5 -202.5v-38q10 -111 29.5 -219.5t19.5 -213.5q0 -218 -137 -352q59 -47 137 -47
q77 0 123.5 44.5t46.5 127.5q0 14 -3 32.5t-12 62.5t-37 162q-28 119 -28 261q0 273 73.5 455t189.5 182q16 0 33.5 -15.5t17.5 -27.5t-25 -43q-72 -86 -93 -165t-21 -154l8 -195q0 -85 19.5 -251.5t19.5 -198.5q0 -200 -97 -292.5t-225 -92.5q-66 0 -121 27.5t-103 57.5
q-128 80 -188 80t-71 -5q-10 -5 -28.5 -5.5zM760 1480q0 -42 -37 -42q-18 0 -43 20l-229 230q-25 25 -38.5 41.5t-13.5 48.5t34 48.5t74 16.5t58.5 -16.5t44.5 -63.5l142 -252q8 -14 8 -31z" />
    <glyph glyph-name="Iacute" unicode="&#xcd;" horiz-adv-x="1046" 
d="M90.5 134.5q-18.5 -0.5 -18.5 25.5q0 40 37.5 86.5t130.5 46.5q57 0 108 -37q16 -14 30.5 -29.5t31.5 -31.5q53 63 53 182t-55.5 217t-137.5 98q-28 0 -52.5 -14t-39 -22.5t-33.5 -8.5q-36 0 -36 39v4q0 58 90.5 109t122.5 51q33 0 52 11t27 61t33 131.5t37 152.5v8
q0 16 -12.5 16.5t-22.5 0.5h-20l-105 6l-26 -2q-70 -41 -90 -41q-39 0 -39 50t60.5 104.5t164.5 54.5l168 -4q23 0 43 7t43 11h6q10 0 24.5 -9t14.5 -32q-58 -87 -87.5 -215.5t-29.5 -202.5v-38q10 -111 29.5 -219.5t19.5 -213.5q0 -218 -137 -352q59 -47 137 -47
q77 0 123.5 44.5t46.5 127.5q0 14 -3 32.5t-12 62.5t-37 162q-28 119 -28 261q0 273 73.5 455t189.5 182q16 0 33.5 -15.5t17.5 -27.5t-25 -43q-72 -86 -93 -165t-21 -154l8 -195q0 -85 19.5 -251.5t19.5 -198.5q0 -200 -97 -292.5t-225 -92.5q-66 0 -121 27.5t-103 57.5
q-128 80 -188 80t-71 -5q-10 -5 -28.5 -5.5zM565 1438q-37 0 -37 41q0 20 11 32l139 252q27 47 46 63.5t58 16.5t73 -16.5t34 -48.5t-12.5 -49t-36.5 -41l-230 -230q-25 -20 -45 -20z" />
    <glyph glyph-name="Icircumflex" unicode="&#xce;" horiz-adv-x="1046" 
d="M106 135q-34 -1 -34 25q0 40 37.5 86.5t130.5 46.5q57 0 108 -37q16 -14 30.5 -29.5t31.5 -31.5q53 63 53 182t-56 216t-137 97q-32 0 -54.5 -13t-37 -21.5t-33.5 -8.5q-36 0 -36 39v2q0 60 90.5 111t122.5 51q33 0 52 11t27 61t33 131.5t37 152.5v8q0 14 -12.5 15.5
t-22.5 1.5h-20l-105 6q-23 0 -26 -4q-70 -41 -90 -41q-39 0 -39 51t60.5 105.5t164.5 54.5l168 -4q23 0 43 7t43 11h6q10 0 24.5 -9t14.5 -32q-58 -87 -87.5 -215.5t-29.5 -202.5v-38q10 -113 29.5 -220.5t19.5 -212.5q0 -218 -137 -352q59 -47 137 -47q77 0 123.5 44.5
t46.5 127.5q0 14 -3 32.5t-12 62.5t-37 160q-28 117 -28 261q0 274 73.5 456.5t189.5 182.5q16 0 33.5 -15.5t17.5 -27.5t-25 -43q-72 -86 -93 -165t-21 -154l8 -195q0 -85 19.5 -251.5t19.5 -198.5q0 -200 -97 -292.5t-225 -92.5q-66 0 -121 27.5t-103 57.5t-98.5 55
t-96.5 25t-58 -5q-13 -5 -19 -5zM831 1474q0 -38 -30 -38q-18 0 -43 20l-185 146l-184 -146q-15 -10 -31 -10q-36 0 -36 35q0 10 20 41l195 266q15 20 38 20t48 -28l200 -283q8 -9 8 -23z" />
    <glyph glyph-name="Idieresis" unicode="&#xcf;" horiz-adv-x="1046" 
d="M106 135q-34 -1 -34 25q0 40 37.5 86.5t122.5 46.5q84 0 122.5 -41t55.5 -57q53 57 53 179q0 123 -56 219.5t-137 96.5q-32 0 -66 -22q-35 -22 -59 -21q-36 0 -36 37v4q0 60 88.5 110t123.5 50q34 0 53 12t27 62t33 130.5t37 151.5v8q0 16 -12.5 16.5t-22.5 0.5h-20
l-105 6l-26 -2q-70 -41 -90 -41q-39 0 -39 50t60.5 104.5t164.5 54.5l168 -4q23 0 43 7t43 11h6q10 0 24.5 -9t14.5 -32q-58 -86 -87.5 -214t-29.5 -202v-40q10 -111 29.5 -219.5t19.5 -211.5q0 -218 -137 -352q59 -47 137 -47q77 0 123.5 44.5t46.5 125.5q0 49 -40 211
q-40 161 -40 306q0 274 73.5 456t189.5 182q16 0 33.5 -15.5t17.5 -27.5t-25 -43q-72 -86 -93 -165t-21 -154l4 -139q4 -139 23.5 -305.5t19.5 -198.5q0 -200 -97 -292.5t-225 -92.5q-66 0 -121 27.5t-103 57.5t-98.5 55t-93.5 25t-67 -8h-6q-1 -2 -7 -2zM528 1610
q0 -43 -29.5 -74t-70.5 -31t-70.5 30t-29.5 73t30.5 73.5t72.5 30.5t69.5 -29.5t27.5 -72.5zM838 1607q0 -42 -30 -71t-72 -29t-72.5 29t-30.5 72t29.5 73.5t73.5 30.5t73 -31.5t29 -73.5z" />
    <glyph glyph-name="Ntilde" unicode="&#xd1;" horiz-adv-x="1634" 
d="M565 434v-162l8 -108l52 -4l37 -4l-23 944l10 160l-67 -29l-11 -8l-20 -19zM352 1200v12l535 258l641 -542l-178 -537l-121 -141l-49 -70l14 -33l358 144l39 -51l-98 -222l-39 -49l-51 -39l-31 15l-35 22l-116 31l-170 -47l-15 -6l-16 -4l-49 143l22 39l43 49l129 160
l187 491l-545 453h-64l-12 -176l6 -1008l2 -18l-67 -64l-254 -108h-43l-297 49l-70 -14l-67 -17l-45 47l256 170l241 -4l41 131l-141 168l-21 -2l-10 -2l-33 39l64 35l31 -2l12 -2l45 22l-111 148l-196 94l61 108l96 -34l52 -15l86 -20l2 10l-88 92l-113 58l70 67l106 27z
M1130 1688l-20 -41l-141 -142l-41 -16l-37 14l-141 90l-11 4l-8 -4l-67 -55l-31 -10l-55 53l20 43l143 139l39 17l25 -4l153 -105l11 -4l8 4l67 60l31 10z" />
    <glyph glyph-name="Ograve" unicode="&#xd2;" horiz-adv-x="1624" 
d="M477 598l-39 479l-131 -94l-78 -195l2 -184l111 -330zM688 104v1108l-61 -28v-8l16 -453l-237 -518zM1386 748l-503 512l-11 2l-143 -37v-1135l33 -12l414 223zM1567 795l-303 -615l-576 -227l-438 186l-207 410l53 338l47 82l47 49l64 43l252 242l514 122zM901 1507
l-39 -45l-47 23l-248 241l-53 86l115 78l112 -84l152 -264z" />
    <glyph glyph-name="Oacute" unicode="&#xd3;" horiz-adv-x="1624" 
d="M477 598l-39 479l-131 -94l-78 -195l2 -184l111 -330zM688 104v1108l-61 -28v-8l16 -453l-237 -518zM1386 748l-503 512l-11 2l-143 -37v-1135l33 -12l414 223zM1567 795l-303 -615l-576 -227l-438 186l-207 410l53 338l47 82l47 49l64 43l252 242l514 122zM868 1890
q117 0 117 -78q0 -25 -13 -43t-40 -43l-250 -241q-29 -23 -47 -23q-39 0 -39 45q0 18 8 35l154 264q29 48 49 66t61 18z" />
    <glyph glyph-name="Ocircumflex" unicode="&#xd4;" horiz-adv-x="1624" 
d="M477 598l-39 479l-131 -94l-78 -195l2 -184l111 -330zM688 104v1108l-61 -28v-8l16 -453l-237 -518zM1386 748l-503 512l-11 2l-143 -37v-1135l33 -12l414 223zM1567 795l-303 -615l-576 -227l-438 186l-207 410l53 338l47 82l47 49l64 43l252 242l514 122zM993 1505
l-35 -35l-45 19l-198 153l-201 -151l-35 -10l-39 35l23 43l211 282l45 21l47 -31l217 -297z" />
    <glyph glyph-name="Otilde" unicode="&#xd5;" horiz-adv-x="1624" 
d="M477 598l-39 479l-131 -94l-78 -195l2 -184l111 -330zM688 104v1108l-61 -28v-8l16 -453l-237 -518zM1386 748l-503 512l-11 2l-143 -37v-1135l33 -12l414 223zM1567 795l-303 -615l-576 -227l-438 186l-207 410l53 338l47 82l47 49l64 43l252 242l514 122zM1047 1683
l-23 -43l-150 -147l-43 -16l-38 12l-150 96l-12 4l-8 -4l-72 -57l-33 -12l-57 57l20 43l154 147l41 19l24 -6l164 -109l10 -4l11 4l71 64l33 10z" />
    <glyph glyph-name="Odieresis" unicode="&#xd6;" horiz-adv-x="1624" 
d="M477 598l-39 479l-131 -94l-78 -195l2 -184l111 -330zM688 104v1108l-61 -28v-8l16 -453l-237 -518zM1386 748l-503 512l-11 2l-143 -37v-1135l33 -12l414 223zM1567 795l-303 -615l-576 -227l-438 186l-207 410l53 338l47 82l47 49l64 43l252 242l514 122zM585 1657
q45 0 75 -32t30 -77t-32 -78q-32 -32 -76 -32t-77 30q-32 30 -32 77q0 46 33 79t79 33zM1024 1546q0 -45 -32 -76q-32 -30 -78 -30t-78 30t-33 76q0 45 32 78q31 33 79 33t79 -33t31 -78z" />
    <glyph glyph-name="multiply" unicode="&#xd7;" horiz-adv-x="860" 
d="M270 1169l-8 15l-26 20l-11 4l-10 -4l-29 -20l-6 -15l4 -12l29 -22l12 -5l11 5l26 20zM680 1169l-8 15l-27 20l-10 4l-10 -4l-29 -20l-6 -15l4 -12l29 -22l12 -5l10 5l27 20zM463 -279l-47 -55l-137 -35l-234 199l86 186h88l-37 -112l172 -152l68 8zM625 215l-15 -37
l-104 -123l-8 -8l-58 -27l-147 50l-143 264l36 110l95 158l104 184l6 23l-6 33l51 57l58 -86l-160 -465v-4l125 -123l116 45zM362 1169l-24 -45l-82 -59l-31 -12l-35 12l-86 63l-16 41l18 41l87 64l32 12l33 -12l82 -62zM772 1169l-24 -45l-82 -59l-31 -12l-35 12l-86 63
l-16 41l18 41l86 64l33 12l33 -12l82 -62z" />
    <glyph glyph-name="Oslash" unicode="&#xd8;" horiz-adv-x="1624" 
d="M1018 1184l-23 49l-104 22l-154 -8l-407 -346l-99 -297l390 -504l395 1080zM1386 748l-208 397l-2 2l-17 -27l-446 -1034l49 -2l467 115zM1260 1362v-6l28 -58l279 -505l-236 -770l-643 -62l-41 -61l-82 -193l-2 -4h2l-4 -4l-74 -47l-79 76v6l4 22l86 201l2 14l-17 25
l-440 555l59 332l50 78l20 26l14 23l543 327l184 41l84 17l97 8l20 10l76 207l90 63l86 -84l-14 -49z" />
    <glyph glyph-name="Ugrave" unicode="&#xd9;" horiz-adv-x="1544" 
d="M483 274v752l-2 -2l-180 -451zM1155 1145v8l-4 2l-10 8l-11 11l-16 14l-74 -33l-30 -27l-37 -18l-37 39l29 53l26 23l37 28l31 27l33 35l63 47l29 -14l30 -23l50 -29l65 41l92 49l33 -38l-31 -52l-49 -39l-37 -79v-897l37 -82l33 4l14 2l17 2l32 -35l-28 -41l-96 -88
l-48 -25l-124 146l-400 -184l-342 77l-295 418l168 504l115 131l45 66l-57 69l-150 -33l-102 -104l-19 -21l-24 -14l-35 47l92 209l141 55l56 -16l86 -31l163 -47l54 -45l-23 -37l-123 -135v-866l31 -51l12 106l2 86l6 84l-4 453l70 112l41 35l35 21l37 -39v-4l-95 -736
l-28 -153l184 -33l336 191zM973 1479l-39 -41l-43 20l-234 230l-49 81l109 74l104 -80l144 -252z" />
    <glyph glyph-name="Uacute" unicode="&#xda;" horiz-adv-x="1544" 
d="M483 274v752l-2 -2l-180 -451zM1155 1145v8l-4 2l-10 8l-11 11l-16 14l-74 -33l-30 -27l-37 -18l-37 39l29 53l26 23l37 28l31 27l33 35l63 47l29 -14l30 -23l50 -29l65 41l92 49l33 -38l-31 -52l-49 -39l-37 -79v-897l37 -82l33 4l14 2l17 2l32 -35l-28 -41l-96 -88
l-48 -25l-124 146l-400 -184l-342 77l-295 418l168 504l115 131l45 66l-57 69l-150 -33l-102 -104l-19 -21l-24 -14l-35 47l92 209l141 55l56 -16l86 -31l163 -47l54 -45l-23 -37l-123 -135v-866l31 -51l12 106l2 86l6 84l-4 453l70 112l41 35l35 21l37 -39v-4l-95 -736
l-28 -153l184 -33l336 191zM1014 1769l-49 -81l-234 -230l-45 -20l-37 41l8 32l144 252l104 80z" />
    <glyph glyph-name="Ucircumflex" unicode="&#xdb;" horiz-adv-x="1544" 
d="M483 274v752l-2 -2l-180 -451zM1155 1145v8l-4 2l-10 8l-11 11l-16 14l-74 -33l-30 -27l-37 -18l-37 39l29 53l26 23l37 28l31 27l33 35l63 47l29 -14l30 -23l50 -29l65 41l92 49l33 -38l-31 -52l-49 -39l-37 -79v-897l37 -82l33 4l14 2l17 2l32 -35l-28 -41l-96 -88
l-48 -25l-124 146l-400 -184l-342 77l-295 418l168 504l115 131l45 66l-57 69l-150 -33l-102 -104l-19 -21l-24 -14l-35 47l92 209l141 55l56 -16l86 -31l163 -47l54 -45l-23 -37l-123 -135v-866l31 -51l12 106l2 86l6 84l-4 453l70 112l41 35l35 21l37 -39v-4l-95 -736
l-28 -153l184 -33l336 191zM1081 1470l-30 -34l-43 20l-189 146l-186 -146l-33 -10l-37 35l21 41l198 266l41 20l45 -28l205 -283z" />
    <glyph glyph-name="Udieresis" unicode="&#xdc;" horiz-adv-x="1544" 
d="M483 274v752l-2 -2l-180 -451zM1155 1145v8l-4 2l-10 8l-11 11l-16 14l-74 -33l-30 -27l-37 -18l-37 39l29 53l26 23l37 28l31 27l33 35l63 47l29 -14l30 -23l50 -29l65 41l92 49l33 -38l-31 -52l-49 -39l-37 -79v-897l37 -82l33 4l14 2l17 2l32 -35l-28 -41l-96 -88
l-48 -25l-124 146l-400 -184l-342 77l-295 418l168 504l115 131l45 66l-57 69l-150 -33l-102 -104l-19 -21l-24 -14l-35 47l92 209l141 55l56 -16l86 -31l163 -47l54 -45l-23 -37l-123 -135v-866l31 -51l12 106l2 86l6 84l-4 453l70 112l41 35l35 21l37 -39v-4l-95 -736
l-28 -153l184 -33l336 191zM745 1610q0 -43 -29.5 -74t-71.5 -31t-71.5 30t-29.5 73t30.5 73.5t72.5 30.5t70.5 -29.5t28.5 -72.5zM1059 1607q0 -42 -30 -71t-72 -29t-73.5 29t-31.5 72t29.5 73.5t74.5 30.5t74 -31.5t29 -73.5z" />
    <glyph glyph-name="germandbls" unicode="&#xdf;" horiz-adv-x="997" 
d="M170 1120v99l39 75l108 92l54 29l57 -14l94 -35l19 -45l-13 -31v-26l35 -88h-67l-95 84l-8 2l-49 -64l-4 -141l-10 -60l475 -73l57 -127v-11l-94 -196l-139 -80l-19 -27h113l39 -34l45 -46l111 -233l-17 -125l-332 -326l-41 17l-39 18l-305 78l-26 39l8 31l8 12l76 66
l51 -25l274 -59l35 -7l29 -2l115 142l-103 315l-297 80l-50 43l-13 -195v-6l24 -39l60 -57l6 -2l6 2l43 43l33 14l47 -47l-21 -39l-139 -135l-35 -14l-34 14l-160 129l-23 43l17 41l14 12l25 72zM305 478l82 50l37 -4l252 203l-131 121l-215 -14z" />
    <glyph glyph-name="agrave" unicode="&#xe0;" horiz-adv-x="847" 
d="M485 256v317l-139 5l-80 -119v-244l25 -39l45 -29l121 68zM879 125l-13 -37l-78 -55l-94 -60l-37 -12l-41 16l-131 134l-186 -136l-37 -14l-41 14l-178 138l-25 45l19 43l14 14l27 76v139l-4 39l-8 45v21l34 61l86 35l-4 -6l164 45l139 -2v30l-18 66l-215 98l-90 33
l-35 -162l-49 -47l-47 47l59 262l217 -14l252 -23l113 27l26 10h4l48 -49l-25 -49l-41 -119v-530l41 -96l18 -2l39 12l35 18zM625 1069l-41 -45l-49 23l-256 241l-54 86l119 80l115 -84l155 -266z" />
    <glyph glyph-name="aacute" unicode="&#xe1;" horiz-adv-x="847" 
d="M485 256v317l-139 5l-80 -119v-244l25 -39l45 -29l121 68zM879 125l-13 -37l-78 -55l-94 -60l-37 -12l-41 16l-131 134l-186 -136l-37 -14l-41 14l-178 138l-25 45l19 43l14 14l27 76v139l-4 39l-8 45v21l34 61l86 35l-4 -6l164 45l139 -2v30l-18 66l-215 98l-90 33
l-35 -162l-49 -47l-47 47l80 262l196 -14l252 -23l113 27l26 10h4l48 -49l-25 -49l-41 -119v-530l41 -96l18 -2l39 12l35 18zM625 1374l-56 -86l-256 -241l-47 -23l-41 45l8 35l158 266l115 84z" />
    <glyph glyph-name="acircumflex" unicode="&#xe2;" horiz-adv-x="847" 
d="M485 260v324l-139 2l-80 -119v-248l25 -39l37 -26l8 -4l121 67zM879 127l-13 -39l-78 -55l-94 -60l-37 -12l-41 16l-131 136l-186 -140l-37 -12l-41 14l-178 140l-25 47l19 43l14 12l27 80v139l-4 41l-8 45v21l34 63l86 35l-4 -6l164 47l139 -4v31l7 61l6 31l-33 16
l-123 47l-121 31l-94 -150l-49 -47l-47 47l90 213l86 23l151 23l201 -31l113 28l26 9h4l48 -49l-25 -50l-41 -120v-539l41 -98l18 -2l39 12l35 18zM694 1104l-35 -35l-47 18l-204 154l-205 -151l-37 -11l-39 35l23 45l215 283l47 20l49 -30l223 -299z" />
    <glyph glyph-name="atilde" unicode="&#xe3;" horiz-adv-x="847" 
d="M485 260v324l-139 2l-80 -119v-248l25 -39l37 -26l8 -4l121 67zM879 127l-13 -39l-78 -55l-94 -60l-37 -12l-41 16l-131 136l-186 -140l-37 -12l-41 14l-178 140l-25 47l19 43l14 12l27 80v139l-4 41l-8 45v21l34 63l86 35l-4 -6l164 47l139 -4v31l7 61l6 31l-33 16
l-123 47l-121 31l-94 -150l-49 -47l-47 47l90 213l86 23l151 23l201 -31l113 28l26 9h4l48 -49l-25 -50l-41 -120v-539l41 -98l18 -2l39 12l35 18zM705 1241l-23 -43l-154 -149l-43 -17l-41 12l-153 97l-12 4l-11 -2l-73 -60l-33 -12l-60 57l23 46l158 147l41 18l26 -6
l168 -108l10 -4l11 4l73 63l35 10z" />
    <glyph glyph-name="adieresis" unicode="&#xe4;" horiz-adv-x="847" 
d="M485 260v324l-139 2l-80 -119v-248l25 -39l37 -26l8 -4l121 67zM879 127l-13 -39l-78 -55l-94 -60l-37 -12l-41 16l-131 136l-186 -140l-37 -12l-41 14l-178 140l-25 47l19 43l14 12l27 80v139l-4 41l-8 45v21l34 63l86 35l-4 -6l164 47l139 -4v31l7 61l6 31l-33 16
l-123 47l-121 31l-94 -150l-49 -47l-47 47l90 213l86 23l151 23l201 -31l113 28l26 9h4l48 -49l-25 -50l-41 -120v-539l41 -98l18 -2l39 12l35 18zM232 1280q46 0 77 -32t31 -76q0 -45 -33 -79t-80 -34t-80 32q-33 31 -33 77t36 79t82 33zM684 1168q0 -46 -33 -76t-80 -31
q-47 0 -82 31q-35 30 -35 76t33 79t82 33t82 -33t33 -79z" />
    <glyph glyph-name="aring" unicode="&#xe5;" horiz-adv-x="847" 
d="M485 260v324l-139 2l-80 -119v-248l25 -39l37 -26l8 -4l121 67zM449 1280q-1 23 -17 37t-39 14t-38 -14t-15 -37t15 -38t38 -15t39 15t17 38zM879 127l-13 -39l-78 -55l-94 -60l-37 -12l-41 16l-131 136l-186 -140l-37 -12l-41 14l-178 140l-25 47l19 43l14 12l27 80v139
l-4 41l-8 45v21l34 63l86 35l-4 -6l164 47l139 -4v31l7 61l6 31l-33 16l-123 47l-121 31l-94 -150l-49 -47l-47 47l90 213l86 23l151 23l201 -31l113 28l26 9h4l48 -49l-25 -50l-41 -120v-539l41 -98l18 -2l39 12l35 18zM588 1279q0 -80 -60 -136t-143 -57q-84 -1 -142 56
t-60 139q-1 81 58 138q59 58 144 59t144 -59t59 -140z" />
    <glyph glyph-name="ae" unicode="&#xe6;" horiz-adv-x="1056" 
d="M481 260v395l-61 -20l-80 -37l-76 -133v-246l25 -39l35 -26l8 -4l121 67zM844 637l-13 29l-47 53l-65 63l-14 9l-15 -5l-12 -55v-205l29 17l94 39zM678 418v-180l27 -66l104 -43l22 4l115 78l43 16l39 -28l4 -9l2 -14l-26 -39l-220 -145l-30 -23l-29 -10l-78 29l-168 127
l-186 -142l-37 -12l-41 14l-176 140l-25 45l19 45l16 12l25 80v139l-6 39l-6 47v23l34 61l375 148l-57 41l-266 69l-35 -20h-84l112 178l21 -2l280 -64l134 -14l69 39l43 31l45 16l35 -14l219 -207l39 -78l-33 -80l-147 -157l-74 -35z" />
    <glyph glyph-name="ccedilla" unicode="&#xe7;" horiz-adv-x="641" 
d="M350 731v-463l29 -75l90 -39l20 4l101 71l39 15l30 -21l9 -26l-25 -35l-207 -148l41 -43l12 -39l-14 -38l-102 -130l-39 -20l-43 47l6 29l25 47l4 8v4l2 2l-35 25l-25 51l17 51l26 21h6l50 -17l8 33l-174 33l-35 6l-31 37l21 43l24 129v487l58 68l143 102l6 11l37 28
l29 -10l161 -240l-32 -112l-99 125l-61 39l-21 8l-16 -4z" />
    <glyph glyph-name="egrave" unicode="&#xe8;" horiz-adv-x="688" 
d="M289 721v-457l24 -61l90 -39l21 4l100 70l39 16l39 -47l-24 -37l-220 -156l-24 -8l-199 82l-35 6l-30 37l20 43l25 131l10 537l20 45l136 80l24 18l31 12l37 -16l190 -190l35 -74l-29 -74l-100 -131l-41 -35l-4 -4l-12 -2l-105 -37l78 109l8 20l35 45l6 21l-2 16l-51 64
l-55 57l-15 8zM453 1047l-35 -43l-43 22l-221 227l-48 80l103 74l100 -78l135 -250z" />
    <glyph glyph-name="eacute" unicode="&#xe9;" horiz-adv-x="663" 
d="M289 721v-457l24 -61l90 -39l21 4l100 70l39 16l39 -47l-24 -37l-220 -156l-24 -8l-199 82l-35 6l-30 37l20 43l25 131l10 537l20 45l136 80l24 18l31 12l37 -16l190 -190l35 -74l-29 -74l-100 -131l-41 -35l-4 -4l-12 -2l-105 -72l78 144l8 20l35 45l6 21l-2 16l-51 64
l-55 57l-15 8zM592 1333l-47 -80l-221 -227l-43 -22l-35 43l8 32l135 250l100 78z" />
    <glyph glyph-name="ecircumflex" unicode="&#xea;" horiz-adv-x="671" 
d="M289 721v-457l24 -61l90 -39l21 4l100 70l39 16l39 -47l-24 -37l-220 -156l-24 -8l-199 82l-35 6l-30 37l20 43l25 131l10 537l20 45l136 82l24 16l31 14l37 -18l190 -190l35 -74l-29 -74l-100 -131l-41 -35l-80 -78l-49 43l86 101l8 20l35 45l6 21l-2 16l-51 64l-55 57
l-15 8zM600 1079l-31 -32l-41 18l-178 143l-178 -141l-31 -10l-35 33l21 40l188 267l39 18l43 -29l195 -280z" />
    <glyph glyph-name="edieresis" unicode="&#xeb;" horiz-adv-x="663" 
d="M289 717v-455l24 -59l90 -41l21 4l100 72l39 16l39 -49l-24 -35l-220 -156l-24 -8l-199 82l-35 6l-30 37l20 43l25 129l10 535l20 45l136 80l24 18l31 12l37 -16l190 -191l35 -73l-29 -72l-100 -131l-41 -37l-4 -2l-70 -94l-37 45l68 119l8 20l35 43l6 23l-2 16l-6 10
l-100 111l-15 6zM301 1135l-98 -107l-97 100l101 105zM600 1128l-98 -98l-101 98l101 105z" />
    <glyph glyph-name="igrave" unicode="&#xec;" horiz-adv-x="540" 
d="M465 121l-33 -39l-121 -64l-30 -10l-33 12l-82 62l-21 43l17 41l12 12l23 72l-2 465l-25 73l-47 35l-17 43l21 43l86 66l33 12l30 -12l117 -92l17 -41l-29 -51l-23 -76l2 -439l7 -86l30 -38h4l31 12l27 -23l4 -8zM385 1047l-35 -43l-41 22l-217 227l-47 80l102 74l97 -78
l133 -250z" />
    <glyph glyph-name="iacute" unicode="&#xed;" horiz-adv-x="540" 
d="M465 121l-31 -39l-121 -64l-30 -10l-31 12l-80 62l-20 43l14 41l14 12l21 72v465l-25 73l-47 35l-16 43l20 43l84 66l31 12l33 -12l114 -92l15 -41l-27 -51l-23 -76v-439l7 -86l32 -38h4l29 12l29 -23l2 -8zM459 1333l-45 -80l-213 -227l-41 -22l-35 43l8 32l131 250
l96 78z" />
    <glyph glyph-name="icircumflex" unicode="&#xee;" horiz-adv-x="540" 
d="M469 121l-33 -39l-125 -64l-30 -10l-31 12l-84 62l-21 43l17 41l12 12l23 72l-2 465l-25 73l-47 35l-19 43l23 43l86 66l33 12l33 -12l116 -92l19 -41l-29 -51l-25 -76l2 -439l7 -86l32 -38h5l30 12l27 -23l4 -8zM514 1079l-31 -32l-41 18l-176 143l-176 -141l-33 -10
l-32 33l18 40l186 267l41 18l43 -29l193 -280z" />
    <glyph glyph-name="idieresis" unicode="&#xef;" horiz-adv-x="540" 
d="M469 121l-33 -39l-123 -64l-30 -10l-33 12l-84 62l-21 43l17 41l12 10l23 74l-2 461l-25 73l-47 35l-19 43l23 43l86 66l33 12l33 -12l118 -92l17 -41l-29 -52l-25 -75l2 -437l7 -84l32 -40l35 12l29 -21l2 -8zM219 1135l-96 -107l-96 100l100 105zM516 1128l-98 -98
l-99 98l99 105z" />
    <glyph glyph-name="eth" unicode="&#xf0;" horiz-adv-x="847" 
d="M166 1210v25l8 98l39 58l47 -29l150 -154l92 54l69 30l33 -32l49 -78l-112 -109l75 -80l46 -24l16 2l45 18l25 8l22 -10l4 -4l14 -31l-8 -22l-24 -41l-15 -62v-565l-39 -69l-139 -91l-96 -73l-8 -11l-33 -18l-45 29l-201 98l-24 4l-19 4l-26 33l24 47l19 64v466l-2 27
l47 68l32 14l31 8l35 -35l20 -514l2 -20l48 -64l139 -34h18l37 41v366l-10 205l-59 63l-113 109l-92 -55l-74 -33l-88 90l53 45l53 76l11 6l-49 47l-15 12z" />
    <glyph glyph-name="ntilde" unicode="&#xf1;" horiz-adv-x="968" 
d="M928 147l-19 -34l-125 -86l-45 -15l-127 273v489l-43 39l-32 -10l-148 -70l-22 -37v-448l24 -74l29 -51l-19 -41l-90 -64l-32 -12l-35 12l-84 62l-25 43l19 41l14 10l22 74v373l-32 141l-25 16l-27 -10l-32 -14l-29 14l-14 29l22 39l142 125l43 20l67 -57l60 -86l204 125
l47 20l39 -14l39 -25l64 -33l71 -51l-8 -35l-14 -34l-21 -80v-426l35 -107l51 17l11 4zM743 1202l-18 -43l-139 -137l-39 -16l-37 12l-137 90l-11 4l-8 -4l-67 -55l-31 -11l-51 54l20 43l140 137l38 16l23 -4l12 -6l140 -96l8 -4l8 4l68 59l30 10z" />
    <glyph glyph-name="ograve" unicode="&#xf2;" horiz-adv-x="831" 
d="M526 729l-53 64l-139 34l-51 -47l-9 -520l58 -57l123 -33h16l47 45zM90 305v10l-4 428v13l74 135l145 90l21 12l36 13l37 -11l254 -102l21 -4l31 -10l34 -86v-578l-57 -74l-201 -174l-41 -14l-41 16l-284 146l-31 2h-4l-45 55l35 37l6 12zM545 1069l-43 -45l-49 23
l-260 241l-56 88l121 78l117 -84l160 -266z" />
    <glyph glyph-name="oacute" unicode="&#xf3;" horiz-adv-x="831" 
d="M526 729l-53 64l-139 34l-51 -47l-9 -520l58 -57l123 -33h16l47 45zM90 305v10l-4 428v13l74 135l145 90l21 12l36 13l37 -11l254 -102l21 -4l31 -10l34 -86v-578l-57 -74l-201 -174l-41 -14l-41 16l-284 146l-31 2h-4l-45 55l35 37l6 12zM633 1376l-55 -88l-261 -241
l-49 -23l-43 45l11 35l159 266l115 84z" />
    <glyph glyph-name="ocircumflex" unicode="&#xf4;" horiz-adv-x="831" 
d="M526 729l-53 64l-139 34l-51 -47l-9 -520l58 -57l123 -33h16l47 45zM90 305v10l-4 426v15l74 135l145 90l21 12l36 13l37 -11l254 -102l21 -4l31 -10l34 -86v-578l-57 -74l-201 -174l-41 -14l-41 16l-284 146l-31 2h-4l-45 55l35 37l6 12zM698 1104l-34 -35l-48 18
l-208 154l-209 -151l-37 -11l-41 35l24 47l220 281l47 20l51 -30l225 -299z" />
    <glyph glyph-name="otilde" unicode="&#xf5;" horiz-adv-x="831" 
d="M526 731l-53 64l-139 34l-51 -47l-9 -522l58 -57l123 -31l16 -2l47 45zM90 305v10l-4 430v13l74 137l145 88l21 14l36 11l37 -9l254 -104l21 -2l31 -12l34 -84v-580l-57 -76l-201 -174l-41 -14l-41 16l-284 146l-31 2h-4l-45 55l35 39l6 12zM739 1241l-22 -43l-158 -149
l-43 -17l-43 12l-156 97l-12 6l-10 -4l-76 -60l-33 -12l-59 57l23 46l157 147l45 18l27 -6l170 -108l10 -4l10 4l76 63l35 10z" />
    <glyph glyph-name="odieresis" unicode="&#xf6;" horiz-adv-x="831" 
d="M526 733l-53 64l-139 34l-51 -47l-9 -524l58 -57l123 -31l16 -2l47 45zM90 305v12l-4 428v15l74 135l145 90l21 14l36 11l37 -11l254 -102l21 -4l31 -10l34 -86v-580l-57 -76l-201 -174l-41 -14l-41 16l-284 146l-31 2h-4l-45 55l35 39l6 12zM338 1174l-115 -115
l-112 108l116 113zM688 1167l-115 -106l-118 106l118 113z" />
    <glyph glyph-name="divide" unicode="&#xf7;" horiz-adv-x="1112" 
d="M717 932h-45v45h45v-45zM772 905v119h-119v-119h119zM868 -221l-18 -37l-135 -121l-37 -14l-35 10l-135 80l-8 4l-11 -4l-63 -47l-29 -10l-51 47l21 37l135 120l37 15l22 -4l146 -91l8 -4l8 4l65 52l29 10zM1075 367l-530 -367h-6l-492 223l170 817l66 160l249 221l11 11
l22 10l246 -76l111 33l36 14l27 -31l-51 -116l-154 -156l-10 -29l133 -16l29 2l2 6l20 29l39 16l41 -41l-112 -180l-86 -49h-230l-76 65v13l148 266l-2 2l-94 39l-99 29l-32 -11l-50 -90l-86 -487l-176 -400l398 -73l426 196l67 27z" />
    <glyph glyph-name="oslash" unicode="&#xf8;" horiz-adv-x="831" 
d="M526 735l-53 64l-123 30l-16 5l-51 -48l-9 -520l58 -57l123 -31l16 -2l47 45zM88 125h-8l-45 53l35 39l6 12l14 82v11l-4 428v12l74 135l145 88l21 14l36 11l37 -9l31 -16l29 -12v6l71 266l74 15l74 -27l-2 -12l-2 -4l-64 -254l-4 -17l-2 -12l43 -35h10l82 -100v-576
l-57 -73l-201 -175l-41 -14l-41 16l-30 29l-7 -4l-65 -250l-4 -10v-2l-53 -8l-109 37l2 26l74 264l4 17l2 10l-37 23l-61 14z" />
    <glyph glyph-name="ugrave" unicode="&#xf9;" horiz-adv-x="980" 
d="M823 166l37 10l23 -6l8 -10l14 -31l-22 -35l-117 -78l-14 -10l-19 -6l-35 16l-28 29l-82 102l-217 -135l-35 -12l-72 23l-61 28l-41 49l4 19l4 8l20 92v486l-40 114l-35 -12l-29 20l-6 21l22 33l144 94l12 6l21 6l32 -12l90 -64l19 -43l-29 -51l-26 -74v-530l43 -41
l30 10l148 80l24 35v451l-24 69l-13 12l-18 39l23 45l86 62l34 12l33 -12l90 -64l19 -43l-31 -51l-25 -74v-536zM588 1047l-37 -43l-43 22l-227 227l-50 80l107 74l102 -78l140 -250z" />
    <glyph glyph-name="uacute" unicode="&#xfa;" horiz-adv-x="980" 
d="M823 166l37 10l23 -6l8 -10l14 -31l-22 -35l-117 -78l-14 -10l-19 -6l-35 16l-28 29l-82 102l-217 -135l-35 -12l-72 23l-61 28l-41 49l4 19l4 8l20 92v486l-40 114l-35 -12l-29 20l-6 21l22 33l144 94l12 6l21 6l32 -12l90 -64l19 -43l-29 -51l-26 -74v-530l43 -41
l30 10l148 80l24 35v451l-24 69l-13 12l-18 39l23 45l86 62l34 12l33 -12l90 -64l19 -43l-31 -51l-25 -74v-536zM698 1333l-49 -80l-227 -227l-43 -22l-37 43l8 32l142 250l100 78z" />
    <glyph glyph-name="ucircumflex" unicode="&#xfb;" horiz-adv-x="980" 
d="M823 166l37 10l23 -6l8 -10l14 -31l-22 -35l-117 -78l-14 -10l-19 -6l-35 16l-28 29l-82 102l-217 -135l-35 -12l-72 23l-61 28l-41 49l4 19l4 8l20 92v486l-40 114l-35 -12l-29 20l-6 21l22 33l144 94l12 6l21 6l32 -12l90 -64l19 -43l-29 -49l-26 -76v-530l43 -41
l30 10l148 80l24 35v451l-24 69l-13 12l-18 39l23 45l86 62l34 12l33 -12l90 -64l19 -43l-31 -49l-25 -76v-536zM737 1079l-30 -32l-41 18l-185 143l-182 -141l-33 -10l-35 33l21 43l192 264l41 18l45 -29l199 -280z" />
    <glyph glyph-name="udieresis" unicode="&#xfc;" horiz-adv-x="980" 
d="M823 166l37 10l23 -8l8 -8l14 -31l-22 -35l-117 -78l-14 -10l-19 -6l-35 16l-28 29l-82 102l-217 -135l-35 -12l-72 23l-61 28l-41 49l4 19l4 6l20 92v483l-40 115l-35 -10l-29 18l-6 21l22 33l9 8l135 86l12 6l21 4l32 -10l90 -64l19 -41l-29 -51l-26 -74v-530l43 -39
l30 8l148 80l24 37v448l-24 68l-13 12l-18 41l23 43l86 62l34 10l33 -10l90 -64l19 -41l-31 -51l-25 -74v-536zM414 1135l-101 -107l-100 100l104 105zM721 1128l-100 -98l-105 98l105 105z" />
    <glyph glyph-name="yacute" unicode="&#xfd;" horiz-adv-x="1046" 
d="M104 135q-32 -1 -32 23q0 74 80 115q33 17 91 18t90 -25q33 -26 72 -69t91 -77q53 -34 124 -34t112 41q50 45 50 131q0 41 -39 202t-41 328q-10 -20 -20 -39q-53 -101 -82 -257q6 -48 6 -104q0 -126 -57 -126q-8 0 -28 7q-57 20 -66 66t-18 121q-10 76 -26 123
q-37 107 -141 107q-29 0 -66 -22t-59 -21q-36 0 -36 37v4q0 59 84 108t123 50q39 2 58 13t27 61t33 131q25 80 37 151v8q0 14 -12 16q-12 1 -23 1h-20l-105 6q-23 0 -26 -4q-70 -41 -90 -41q-39 0 -39 51t58 103q58 53 167 55l168 -4q23 0 43 7t43 11h6q11 0 25 -9t14 -32
q-59 -89 -100 -269q-16 -71 -17 -145v-39l17 -172l75 138q35 66 64 137q46 270 162 359q39 30 69 30t39 -7q8 -7 19 -18q8 -16 8 -23t-25 -38q-71 -86 -93 -164t-21 -154l8 -192q-1 -99 19 -256t20 -191q0 -197 -109 -301q-85 -81 -213 -81q-66 0 -121 28t-103 56t-98 54
t-96 26q-47 0 -71 -9h-9z" />
    <glyph glyph-name="ydieresis" unicode="&#xff;" horiz-adv-x="862" 
d="M486 826q-3 7 -3 19t21 23l25 25q66 62 91 76t45 14q27 0 62 -51t52 -124q16 -74 16 -130q0 -241 -180 -433q-73 -79 -181 -149t-158 -135q-50 -66 -51 -117q0 -51 27 -67q27 -17 65 -17q37 0 63 23t54 51t80 27q61 0 61 -66v-4q0 -92 -126 -125q-35 -8 -93 -8
q-120 0 -176 51q-55 51 -55 110q0 58 15 96q19 49 47 97q28 49 28 107l8 145v432q0 22 -19 57t-32 35v-2q-18 -18 -38 -18t-39 16q-40 31 -5 66q24 41 141 125q12 8 37 8t58 -33t52 -72q19 -40 19 -120v-488q0 -16 18 -34t66 7q47 24 90 91q4 8 12 18q7 10 13 22t13 23
q7 12 23 61t17 128q0 79 -3 111q-3 33 -17 49t-19 23t-14 19q-8 13 -13 15t-18 2l-37 -12q-23 0 -42 33zM291 1233q41 1 69 -29t27 -73q0 -43 -29 -74q-30 -31 -70 -31t-69 30t-29 72t30 74q30 31 71 31zM592 1233q44 0 72 -32t28 -74q0 -43 -30 -71t-70 -28q-41 0 -72 29
t-31 71t30 74q30 31 73 31z" />
    <glyph glyph-name="OE" unicode="&#x152;" horiz-adv-x="2686" 
d="M229 602v-18l525 -506l585 397l29 270l-381 490l-100 22l-137 -57l-129 -70l2 -595l-150 -132l-24 37v29l-17 561l-127 -49l-39 -107zM45 530v19l55 336l45 82l43 49l37 28l672 336l139 6l144 -57l383 -565v-4l-64 -311l262 241l-184 371l68 170l354 137l110 96l5 6
l30 19l33 -14l215 -68h6l117 37l20 10l17 4l28 -35l-53 -123l-41 -38l-119 -125l-172 -103l-2 -47l293 -33l45 54l13 20l34 25l2 2l19 6l22 -10l11 -27v-6l-19 -45l-18 -33l-6 -8l-166 -156l-404 60l-77 6l4 28l278 289l37 64l-111 47l-71 24l-23 2l-33 -10l-256 -96l-8 -49
l170 -572l-209 -270l441 -156l313 160l92 131l53 -28l19 -3l35 -57l-551 -393h-11l-583 321l-35 123l-43 -123l-735 -321h-35z" />
    <glyph glyph-name="oe" unicode="&#x153;" horiz-adv-x="1095" 
d="M321 840q-13 0 -27 -14t-15 -33l-11 -529q0 -16 14 -34t42 -25l120 -33h17q18 0 32 12q13 12 13 33l8 524q0 47 -51 62l-121 33q-8 4 -21 4zM721 764v-330q89 77 146 158q18 25 18 38q0 29 -29 58l-31 31q-19 17 -37 35l-28 28q-4 2 -4 5t-4 4q-31 0 -31 -27zM721 219
q0 -29 24 -47q2 0 43 -22t61 -21q19 0 23 4l115 78q27 16 47 16q20 1 30 -17q11 -18 11 -34t-26 -39l-218 -145q-27 -18 -33 -23q-25 -21 -54 -7q-29 13 -76 41t-113 42q-57 -45 -86 -78q-8 -4 -17 -9t-28 -5q-18 -1 -50 31t-102 74t-157 59q-9 2 -17 2h-14q-38 0 -45 35v6
l-2 4v8q0 41 35 41q0 6 9 18t9 78v10l-4 435v12q0 53 14 91t56 48l143 90q4 4 10 7q7 2 19 10t30 8t60 -27t160 -67l131 73q25 15 37 23t28 8t39 -16l219 -207q39 -37 39 -76t-31 -79q-212 -274 -319 -339v-94z" />
    <glyph glyph-name="Scaron" unicode="&#x160;" horiz-adv-x="1253" 
d="M147 1098v49h-49v-49h49zM860 950v66h-65v-66h65zM442 -279l-47 -55l-137 -35l-233 199l86 186h88l-37 -112l172 -152l67 8zM258 1104l-12 -35l-119 -145l-37 -19l-47 49l10 27l41 53l2 8v5l-39 38l-18 37l18 39l52 56l30 12l33 -12l74 -78zM1198 367l-530 -367h-6
l-492 223l170 817l66 160l249 221l11 11l22 10l246 -76l110 33l37 14l27 -31l-51 -116l-154 -156l-10 -29l133 -16l29 2l2 6l20 29l39 16l41 -41l-113 -180l-86 -49h-229l-76 65v13l148 266l-2 2l-94 39l-99 29l-33 -11l-49 -90l-86 -487l-176 -400l397 -73l426 196l68 27z
" />
    <glyph glyph-name="Ydieresis" unicode="&#x178;" horiz-adv-x="1447" 
d="M606 1157h41v-883l215 -69l342 512l-397 577l-39 35l160 78l465 -666l-531 -635l-241 25l-111 -20l-250 -117l-33 -178l70 -121l594 225l283 -266l-99 -105l-76 41l-77 140h-4l-82 12l-99 -25l-137 -53l-364 -117l-213 301l182 252l162 152l-162 205l-64 45l-18 14
l-31 59l60 48h8l108 -39l41 -23l35 -10l27 59v19l-144 184l-104 92l-55 88l73 45l64 -24l53 -45l104 -60l52 127l-224 256l-108 66l186 72l277 -283v-840l61 -20v870zM586 1612l-103 -109l-102 103l106 106zM899 1606l-102 -101l-107 101l107 106z" />
    <glyph glyph-name="florin" unicode="&#x192;" horiz-adv-x="540" 
d="M141 -31v840q0 16 -10 27.5t-27 11.5h-18q-27 0 -45 20.5t-18 49t18 48t45 19.5h20q29 0 41.5 12.5t12.5 26.5l-2 176v19q0 50 24 67q24 16 40 29.5t31 28t28 25.5t31 29t36 17q18 0 33.5 -5t28.5 -9l94 -35q37 -15 37 -39t-13 -37l-18 -26q-15 -23 -33 -22t-22 1l-78 19
q-16 0 -31.5 -18.5t-15.5 -45.5l-4 -139v-45q0 -10 16 -20.5t27 -10.5l55 -2q41 -5 41 -35q0 -18 -10 -43t-24.5 -33t-52.5 -13t-51.5 -17.5t-13.5 -57.5v-831q0 -53 -39 -76q-50 -40 -92 -81.5t-58 -41.5t-28 5t-19 6t-16 6l-94 32q-37 9 -37 45q0 10 3.5 16.5t7.5 14.5
l20 25q13 26 28 26t23 -4h2l72 -16l8 -2q16 0 31.5 19.5t15.5 43.5z" />
    <glyph glyph-name="circumflex" unicode="&#x2c6;" horiz-adv-x="862" 
d="M657 1110l-30 -31l-41 17l-176 131l-177 -129l-32 -11l-33 31l18 39l187 240l41 18l43 -26l192 -256z" />
    <glyph glyph-name="tilde" unicode="&#x2dc;" horiz-adv-x="645" 
d="M582 1212l-19 -36l-135 -121l-37 -15l-35 11l-135 79l-8 5l-74 -52l-28 -10l-52 47l21 37l135 121l37 14l22 -4l146 -90l8 -4l74 55l28 11z" />
    <glyph glyph-name="endash" unicode="&#x2013;" horiz-adv-x="968" 
d="M805 504h-707l-86 28l6 15l43 67l82 33h699l94 -29l-4 -14l-45 -67z" />
    <glyph glyph-name="emdash" unicode="&#x2014;" horiz-adv-x="1449" 
d="M1282 504h-1182l-88 28l6 15l43 67l84 33h1174l96 -29l-4 -14l-47 -67z" />
    <glyph glyph-name="quoteleft" unicode="&#x2018;" horiz-adv-x="368" 
d="M311 1114l-16 -39l-45 -59l-31 -17h-2l-31 11l-82 69l-14 33v4l10 31l105 158l35 22l47 -47l-6 -25l-33 -57l-2 -10v-2l43 -33l4 -4z" />
    <glyph glyph-name="quoteright" unicode="&#x2019;" horiz-adv-x="368" 
d="M283 1190l-13 -35l-118 -145l-37 -19l-47 49l10 27l41 53l2 8v5l-39 38l-19 37l21 41l55 54l29 12l35 -15l67 -75z" />
    <glyph glyph-name="quotesinglbase" unicode="&#x201a;" horiz-adv-x="540" 
d="M330 1061v-19l-29 -763v-7l6 -18l58 -78l6 -2l4 2l41 43l33 14l43 -47l-19 -39l-133 -135l-33 -12l-35 12l-153 129l-21 43l17 41l12 13l23 71l18 813v97l37 75l102 92l51 29l56 -14l90 -35l37 -45l-13 -31l-18 -24l-37 -23l-16 2l-68 17h-8l-47 -64z" />
    <glyph glyph-name="quotedblleft" unicode="&#x201c;" horiz-adv-x="684" 
d="M330 1124l-19 -39l-49 -59l-35 -16h-4l-30 10l-93 67l-16 35l12 35l113 156l41 24h6l47 -43v-6l-6 -22l-39 -58l-2 -10v-2l47 -35l6 -2zM602 1122l-18 -39l-49 -59l-35 -16h-2l-33 10l-90 67l-19 35l13 35l114 158l39 22l53 -45l-6 -26l-39 -58l-2 -10l50 -35l4 -4l8 -6z
" />
    <glyph glyph-name="quotedblright" unicode="&#x201d;" horiz-adv-x="684" 
d="M324 1192l-15 -35l-133 -145l-39 -19l-51 49l10 27l45 53l2 8v5l-43 39l-20 36l20 39l58 56l32 12l37 -12l82 -78zM598 1194l-14 -35l-133 -145l-39 -19l-52 49l11 27l45 53l4 9v4l-45 39l-21 36l23 39l55 56l35 12l37 -12l80 -78z" />
    <glyph glyph-name="quotedblbase" unicode="&#x201e;" horiz-adv-x="684" 
d="M319 78l-14 -35l-133 -145l-39 -19l-51 49l10 27l45 53l2 8v4l-43 39l-20 37l20 39l58 55l32 13l37 -13l82 -77zM594 80l-14 -35l-134 -145l-38 -19l-52 49l11 27l45 53l4 8v5l-45 38l-21 37l23 39l55 56l35 12l37 -12l80 -78z" />
    <glyph glyph-name="dagger" unicode="&#x2020;" horiz-adv-x="628" 
d="M285 328h-111l-84 39l8 20l43 47l76 37h68v170l-15 10h-16l-55 54v217h-82l-84 39l8 20l43 47l76 37h39v176l55 53h59l56 -53v-176h106l90 -37l-8 -24l-43 -46l-76 -36h-69v-156l14 -10h61l35 -39v-4l-41 -242h92l93 -37l-9 -24l-43 -45l-75 -37h-82l-52 -287l-38 -35
l-39 55v267z" />
    <glyph glyph-name="daggerdbl" unicode="&#x2021;" horiz-adv-x="684" 
d="M283 328h-111l-84 39l8 20l43 47l78 37h66v170l-13 10h-18l-55 54v217h-101l-84 39l8 20l43 47l76 37h58v176l55 53h61l56 -53v-176h86l92 -37l-8 -24l-45 -46l-76 -36h-49l-62 -252l76 86h59l37 -39v-4l-41 -242h92l93 -37l-9 -24l-43 -45l-75 -37h-82l-52 -287l-38 -35
l-41 55v267z" />
    <glyph glyph-name="bullet" unicode="&#x2022;" horiz-adv-x="540" 
d="M446 641l-184 -184l-182 184l182 182z" />
    <glyph glyph-name="ellipsis" unicode="&#x2026;" horiz-adv-x="1097" 
d="M303 143q16 -13 16 -34t-18 -39l-63 -54q-16 -14 -42 -14t-40 14l-58 52q-2 2 -4 2l-2 4q-16 10 -16 30t24 43l58 50q17 14 40 14t40 -12zM651 143q19 -15 19 -36t-21 -37l-61 -54q-16 -14 -42 -14t-40 14l-57 52l-2 1q-1 1 -3 1l-2 4q-16 10 -16 30t25 43l57 50
q26 22 48 16t32 -14zM858 197q14 14 40 14t40 -12l63 -56q19 -15 19 -37t-21 -36l-61 -54q-16 -14 -42 -14t-40 14l-57 52q-2 2 -12 11q-29 26 12 68z" />
    <glyph glyph-name="perthousand" unicode="&#x2030;" horiz-adv-x="2310" 
d="M641 1042l-135 -307l-168 -86l-229 283l84 262l36 12l47 -51l-12 -45l-10 -72l131 -211l61 -16l48 121l-234 289l23 43l51 36l82 25zM1239 1268l-8 -33l-727 -1219l-64 -34l-78 75l13 39l741 1202l58 35zM1532 381l-137 -305l-168 -86l-228 280l84 265l35 12l49 -51
l-12 -41l-10 -76l192 -229l47 120l-233 291l154 105l125 -62zM2187 381l-137 -305l-168 -86l-227 280l84 265l35 12l49 -51l-13 -41l-10 -76l193 -229l47 120l-234 291l154 105l125 -62z" />
    <glyph glyph-name="guilsinglleft" unicode="&#x2039;" horiz-adv-x="522" 
d="M428 328l-57 -60l-39 17l-203 215l-41 78l41 79l199 209l43 17l57 -58l-16 -53l-86 -143l-17 -54l23 -63l82 -135z" />
    <glyph glyph-name="guilsinglright" unicode="&#x203a;" horiz-adv-x="522" 
d="M444 578l-41 -78l-202 -215l-39 -17l-58 60l15 49l82 135l22 63l-16 54l-86 143l-17 53l60 58l41 -17l198 -209z" />
    <glyph glyph-name="trademark" unicode="&#x2122;" horiz-adv-x="1136" 
d="M270 1239v-14l2 -4l27 2l43 -35v-12l-45 -43l-10 -5l-6 -2v-14l-27 -262l12 -6l23 12l26 8l13 -2l30 -28l2 -11l-14 -28l-92 -76l-8 -4l-21 -6l-18 4l-64 39l-22 39l18 38l2 2l9 21l2 262l-7 19l-10 2h-2l-43 36l10 33l80 41l19 80l24 12l10 -2l15 -4l24 -49zM965 827
l30 9l45 -45l-24 -35l-60 -43l-94 -11l-22 156l-2 242l-11 -2l-71 -31l4 -221l6 -21l14 -10l13 -31l-21 -36l-47 -33l-8 -4l-60 -4l-22 137l-23 250h-6l-61 -31v-215l6 -23l22 -39l-24 -38l-41 -27l-29 -12l-20 6l-51 35l-21 36l14 35l9 6l4 21v215l-4 4h-27l-45 47l12 29
l62 59l41 19l53 -33l26 -27l7 2l98 51l33 9l49 -31l24 -25l78 47l33 9h10l21 -6l26 -27l19 -12l55 -43l-10 -35l-6 -23l2 -219z" />
    <glyph glyph-name="nonbreakingspace" unicode="&#xe000;" horiz-adv-x="323" 
 />
    </font>
</defs>
</svg>
