<?xml version="1.0" encoding="utf-8"?>
<!-- Generator: Adobe Illustrator 18.1.1, SVG Export Plug-In . SVG Version: 6.00 Build 0)  -->
<!DOCTYPE svg PUBLIC "-//W3C//DTD SVG 1.1//EN" "http://www.w3.org/Graphics/SVG/1.1/DTD/svg11.dtd">
<svg version="1.1" id="svg7" xmlns="http://www.w3.org/2000/svg" xmlns:xlink="http://www.w3.org/1999/xlink" x="0px" y="0px"
	 width="433.6px" height="432.3px" viewBox="-628.5 -182.7 433.6 432.3" enable-background="new -628.5 -182.7 433.6 432.3"
	 xml:space="preserve">
<g>
	<path id="path625" fill="#FFFFFF" d="M-462.4,30.8L-626,31.8l0.1,15.7l163.6-1.1L-462.4,30.8z"/>
	<path id="path626" fill="#FFFFFF" d="M-425.2,90l1,157.1l16.8-0.1l-1-157.1L-425.2,90z"/>
	<path id="path627" fill="#FFFFFF" d="M-197.5,29.5L-369,30.6l0.1,15.7l171.5-1.1L-197.5,29.5z"/>
	<path id="path628" fill="#FFFFFF" d="M-427.2-180l1.2,176.9l16.8-0.1l-1.2-176.9L-427.2-180z"/>
	<path id="path630" fill="#FFFFFF" d="M-367.9,104.2l0.1,13.8l49.5-0.2l-0.2-38.8l-14.7,0.2l0.3,25.7L-367.9,104.2z"/>
	<path id="path631" fill="#FFFFFF" d="M-462.6-28.1l-0.6-13.8l-48.2,0.2l0.2,41.3l14.3-0.2l-0.3-27.4L-462.6-28.1z"/>
	<path id="path632" fill="#FFFFFF" d="M-462.7,105l0.1,13.7l-47.8,0.4l-0.3-38.4l14.1,0l0.1,25.4L-462.7,105z"/>
	<path id="path633" fill="#FFFFFF" d="M-368.8-28.7l0.4-13.8l49.5-0.4l0.4,41.3l-14.7,0l-0.1-27.4L-368.8-28.7z"/>
</g>
</svg>
